{"glyphs":{"0":{"ha":1025,"x_min":74,"x_max":951,"o":"m 514 -17 q 284 25 383 -17 q 129 147 185 67 q 74 343 74 226 q 129 541 74 460 q 284 664 185 622 q 514 706 383 706 q 742 664 644 706 q 896 541 840 622 q 951 343 951 460 q 896 147 951 226 q 742 25 840 67 q 514 -17 644 -17 m 514 122 q 642 148 585 122 q 734 223 700 174 q 768 343 768 272 q 734 465 768 414 q 643 542 700 515 q 514 568 586 568 q 385 542 443 568 q 292 465 326 515 q 257 343 257 415 q 291 223 257 272 q 383 148 325 174 q 514 122 442 122 z "},"1":{"ha":542,"x_min":35,"x_max":411,"o":"m 35 536 l 35 690 l 411 690 l 411 0 l 231 0 l 231 536 l 35 536 z "},"2":{"ha":867,"x_min":43,"x_max":811,"o":"m 525 210 l 300 104 l 293 139 l 811 139 l 811 0 l 71 0 l 71 139 q 296 236 196 196 q 465 309 396 276 q 572 376 535 342 q 608 451 608 410 q 589 509 608 485 q 528 547 569 533 q 419 561 486 561 q 278 527 332 561 q 222 435 225 493 l 47 435 q 87 576 43 515 q 215 672 131 638 q 415 707 300 707 q 569 691 500 707 q 690 644 639 675 q 767 571 740 614 q 794 474 794 528 q 779 398 794 432 q 731 333 764 364 q 647 273 699 303 q 525 210 596 243 z "},"3":{"ha":890,"x_min":46,"x_max":840,"o":"m 465 256 l 465 263 q 616 249 547 260 q 735 215 685 239 q 813 147 785 190 q 840 38 840 104 q 791 -100 840 -40 q 651 -194 742 -160 q 439 -228 561 -228 q 230 -191 319 -228 q 93 -90 140 -154 q 50 60 46 -25 l 225 60 q 252 -10 226 19 q 326 -57 278 -40 q 439 -74 374 -74 q 594 -39 540 -74 q 649 64 649 -4 q 586 156 649 129 q 410 183 524 183 l 292 183 l 292 322 l 410 322 q 538 333 489 322 q 610 367 588 343 q 633 432 633 392 q 588 522 633 489 q 439 554 542 554 q 290 519 342 554 q 235 428 238 485 l 60 428 q 84 544 56 493 q 166 633 113 596 q 290 689 219 669 q 439 708 360 708 q 644 678 558 708 q 776 592 731 647 q 822 463 822 536 q 796 362 822 401 q 721 299 769 322 q 608 267 672 276 q 465 256 543 257 z "},"4":{"ha":988,"x_min":65,"x_max":932,"o":"m 772 696 l 772 -201 l 592 -201 l 592 550 l 646 531 l 229 63 l 203 124 l 614 124 l 614 -15 l 65 -15 l 65 124 l 592 696 l 772 696 m 750 -15 l 750 124 l 932 124 l 932 -15 l 750 -15 z "},"5":{"ha":951,"x_min":81,"x_max":886,"o":"m 561 360 q 688 342 629 360 q 792 288 747 324 q 861 199 836 253 q 886 74 886 144 q 838 -89 886 -22 q 701 -191 789 -156 q 496 -226 614 -226 q 339 -207 413 -226 q 208 -151 265 -187 q 117 -63 151 -115 q 81 56 83 -11 l 253 56 q 292 -17 258 13 q 377 -62 325 -47 q 489 -78 429 -78 q 569 -69 531 -78 q 638 -42 607 -60 q 688 6 669 -24 q 706 75 706 35 q 688 144 706 115 q 641 193 671 174 q 573 222 611 213 q 493 231 535 231 q 406 223 450 231 q 324 196 361 215 q 264 143 286 176 l 107 172 l 149 694 l 792 694 l 792 540 l 317 540 l 289 204 l 269 214 q 333 293 289 261 q 438 342 378 325 q 561 360 497 360 z "},"6":{"ha":957,"x_min":36,"x_max":908,"o":"m 544 592 q 736 554 654 592 q 863 448 818 517 q 907 288 908 379 q 856 127 906 196 q 713 20 806 58 q 489 -18 619 -18 q 249 17 351 -18 q 92 119 147 51 q 38 281 36 186 q 48 353 38 314 q 86 439 58 393 q 110 476 90 447 q 159 546 131 504 q 221 635 188 588 q 287 729 254 682 q 347 815 319 776 q 390 876 374 853 q 406 899 406 899 l 633 899 l 165 321 l 111 274 q 214 406 165 347 q 312 507 263 465 q 417 570 361 549 q 544 592 474 592 m 479 129 q 653 171 586 129 q 722 290 721 213 q 658 410 724 368 q 485 453 592 453 q 294 406 365 453 q 222 289 224 358 q 294 170 221 211 q 479 129 367 129 z "},"7":{"ha":893,"x_min":46,"x_max":839,"o":"m 46 536 l 46 690 l 839 690 l 839 536 l 406 -208 l 188 -208 l 688 606 l 725 536 l 46 536 z "},"8":{"ha":938,"x_min":58,"x_max":879,"o":"m 468 461 q 258 483 343 461 q 128 551 172 504 q 85 672 85 597 q 127 798 85 743 q 254 885 169 853 q 468 917 339 917 q 683 885 599 917 q 810 798 768 853 q 853 672 853 743 q 809 551 853 597 q 679 483 765 504 q 468 461 593 461 m 468 526 q 582 542 538 526 q 648 586 626 558 q 669 649 669 614 q 648 711 669 685 q 582 752 626 738 q 468 767 538 767 q 357 752 400 767 q 293 711 314 738 q 272 649 272 685 q 293 586 272 614 q 357 542 314 558 q 468 526 400 526 m 468 -18 q 240 17 331 -18 q 103 113 149 53 q 58 247 58 174 q 107 387 58 333 q 247 465 156 440 q 468 489 339 489 q 690 465 599 489 q 831 387 782 440 q 879 247 879 333 q 834 113 879 174 q 698 17 789 53 q 468 -18 607 -18 m 469 135 q 597 151 547 135 q 672 198 647 168 q 696 265 696 228 q 672 336 696 306 q 597 383 647 367 q 469 400 547 400 q 341 383 390 400 q 269 336 292 367 q 246 265 246 306 q 269 198 246 228 q 341 151 292 168 q 469 135 390 135 z "},"9":{"ha":968,"x_min":50,"x_max":931,"o":"m 414 103 q 224 141 307 103 q 96 247 142 179 q 50 407 50 315 q 103 569 51 501 q 251 674 154 638 q 486 711 349 711 q 724 676 625 711 q 877 576 824 642 q 929 414 931 510 q 917 338 929 378 q 874 250 904 297 q 851 215 869 243 q 803 144 832 186 q 742 55 775 103 q 678 -40 710 7 q 619 -124 646 -86 q 577 -185 593 -162 q 561 -208 561 -208 l 332 -208 l 800 374 l 856 415 q 751 285 801 343 q 651 187 701 228 q 543 124 601 146 q 414 103 485 103 m 486 565 q 305 525 372 565 q 236 404 238 485 q 301 284 235 326 q 481 242 367 242 q 672 288 600 242 q 744 406 743 333 q 713 494 746 458 q 621 547 679 529 q 486 565 563 565 z "},"A":{"ha":1096,"x_min":24,"x_max":1072,"o":"m 247 196 l 247 350 l 842 350 l 842 196 l 247 196 m 24 0 l 446 899 l 646 899 l 1072 0 l 871 0 l 501 810 l 590 810 l 224 0 l 24 0 z "},"Á":{"ha":1096,"x_min":24,"x_max":1072,"o":"m 247 196 l 247 350 l 842 350 l 842 196 l 247 196 m 24 0 l 446 899 l 646 899 l 1072 0 l 871 0 l 501 810 l 590 810 l 224 0 l 24 0 m 450 1007 l 639 1226 l 878 1226 l 622 1007 l 450 1007 z "},"Ă":{"ha":1096,"x_min":24,"x_max":1072,"o":"m 247 196 l 247 350 l 842 350 l 842 196 l 247 196 m 24 0 l 446 899 l 646 899 l 1072 0 l 871 0 l 501 810 l 590 810 l 224 0 l 24 0 m 839 1186 q 797 1078 831 1126 q 702 1003 764 1031 q 547 976 640 976 q 393 1003 454 976 q 299 1078 332 1031 q 256 1186 265 1126 l 388 1186 q 437 1113 399 1139 q 547 1088 475 1088 q 659 1113 621 1088 q 707 1186 697 1139 l 839 1186 z "},"Â":{"ha":1096,"x_min":24,"x_max":1072,"o":"m 247 196 l 247 350 l 842 350 l 842 196 l 247 196 m 24 0 l 446 899 l 646 899 l 1072 0 l 871 0 l 501 810 l 590 810 l 224 0 l 24 0 m 642 1226 l 867 1007 l 671 1007 l 490 1190 l 604 1189 l 422 1007 l 226 1007 l 453 1226 l 642 1226 z "},"Ä":{"ha":1096,"x_min":24,"x_max":1072,"o":"m 247 196 l 247 350 l 842 350 l 842 196 l 247 196 m 24 0 l 446 899 l 646 899 l 1072 0 l 871 0 l 501 810 l 590 810 l 224 0 l 24 0 m 294 908 l 294 750 l 85 750 l 85 908 l 294 908 m 1014 908 l 1014 750 l 804 750 l 804 908 l 1014 908 z "},"À":{"ha":1096,"x_min":24,"x_max":1072,"o":"m 247 196 l 247 350 l 842 350 l 842 196 l 247 196 m 24 0 l 446 899 l 646 899 l 1072 0 l 871 0 l 501 810 l 590 810 l 224 0 l 24 0 m 469 1007 l 214 1226 l 453 1226 l 642 1007 l 469 1007 z "},"Ā":{"ha":1096,"x_min":24,"x_max":1072,"o":"m 247 196 l 247 350 l 842 350 l 842 196 l 247 196 m 24 0 l 446 899 l 646 899 l 1072 0 l 871 0 l 501 810 l 590 810 l 224 0 l 24 0 m 335 1018 l 335 1131 l 761 1131 l 761 1018 l 335 1018 z "},"Ą":{"ha":1096,"x_min":24,"x_max":1072,"o":"m 1042 -300 q 817 -253 900 -300 q 733 -126 733 -207 q 769 -37 733 -71 q 867 15 806 -3 q 1004 40 928 33 l 1004 10 q 910 -26 947 0 q 874 -100 874 -53 q 894 -156 874 -133 q 953 -192 915 -179 q 1042 -204 992 -204 l 1042 -300 m 247 196 l 247 350 l 842 350 l 842 196 l 247 196 m 24 0 l 446 899 l 646 899 l 1072 0 l 871 0 l 501 810 l 590 810 l 224 0 l 24 0 z "},"Å":{"ha":1096,"x_min":24,"x_max":1072,"o":"m 247 196 l 247 350 l 842 350 l 842 196 l 247 196 m 24 0 l 446 899 l 646 899 l 1072 0 l 871 0 l 501 810 l 590 810 l 224 0 l 24 0 m 547 974 q 403 1016 457 974 q 350 1129 350 1058 q 403 1241 350 1199 q 547 1283 457 1283 q 690 1241 638 1283 q 743 1129 743 1199 q 690 1016 743 1058 q 547 974 638 974 m 547 1054 q 617 1073 596 1054 q 639 1129 639 1092 q 617 1184 639 1165 q 547 1203 596 1203 q 476 1184 497 1203 q 454 1129 454 1165 q 476 1073 454 1092 q 547 1054 497 1054 z "},"Ã":{"ha":1096,"x_min":24,"x_max":1072,"o":"m 247 196 l 247 350 l 842 350 l 842 196 l 247 196 m 24 0 l 446 899 l 646 899 l 1072 0 l 871 0 l 501 810 l 590 810 l 224 0 l 24 0 m 668 1006 q 594 1018 626 1006 q 535 1048 563 1031 q 479 1078 507 1065 q 418 1090 451 1090 q 372 1078 389 1090 q 344 1046 354 1065 q 326 1007 335 1026 l 199 1007 q 235 1102 210 1058 q 303 1173 261 1146 q 401 1200 344 1200 q 477 1188 444 1200 q 538 1158 510 1175 q 593 1128 567 1140 q 650 1115 619 1115 q 698 1128 681 1115 q 726 1161 715 1142 q 743 1199 736 1181 l 872 1199 q 835 1104 861 1149 q 768 1033 810 1060 q 668 1006 726 1006 z "},"Æ":{"ha":1608,"x_min":24,"x_max":1525,"o":"m 832 375 l 832 154 l 1525 154 l 1525 0 l 647 0 l 647 814 l 688 804 l 222 0 l 24 0 l 556 899 l 1524 899 l 1524 744 l 832 744 l 832 521 l 1399 521 l 1399 375 l 832 375 m 256 228 l 256 364 l 774 364 l 774 228 l 256 228 z "},"B":{"ha":1083,"x_min":107,"x_max":1026,"o":"m 107 0 l 107 899 l 625 899 q 899 838 806 899 q 993 658 993 778 q 956 538 993 582 q 849 474 918 494 q 688 447 781 453 l 693 457 q 822 447 761 456 q 928 417 882 439 q 1000 355 974 394 q 1026 251 1026 315 q 982 113 1026 168 q 858 31 938 58 q 675 0 779 3 l 107 0 m 292 153 l 656 153 q 790 181 743 153 q 838 272 838 210 q 810 339 838 318 q 736 365 782 360 q 638 369 690 369 l 292 369 l 292 153 m 292 518 l 618 518 q 753 544 706 518 q 800 632 800 569 q 753 720 800 694 q 628 746 706 746 l 292 746 l 292 518 z "},"C":{"ha":1229,"x_min":74,"x_max":1156,"o":"m 1156 324 q 1079 139 1143 215 q 906 22 1015 63 q 644 -18 796 -18 q 413 11 518 -18 q 233 99 308 40 q 115 244 157 157 q 74 447 74 331 q 115 651 74 564 q 233 798 157 739 q 413 887 308 857 q 644 917 518 917 q 906 875 796 917 q 1081 756 1017 833 q 1156 569 1144 679 l 972 569 q 912 670 954 628 q 803 735 869 713 q 644 757 736 757 q 444 722 531 757 q 311 617 358 686 q 264 447 264 549 q 311 279 264 347 q 444 176 358 211 q 644 140 531 140 q 802 163 736 140 q 910 226 868 185 q 972 324 953 268 l 1156 324 z "},"Ć":{"ha":1229,"x_min":74,"x_max":1156,"o":"m 1156 324 q 1079 139 1143 215 q 906 22 1015 63 q 644 -18 796 -18 q 413 11 518 -18 q 233 99 308 40 q 115 244 157 157 q 74 447 74 331 q 115 651 74 564 q 233 798 157 739 q 413 887 308 857 q 644 917 518 917 q 906 875 796 917 q 1081 756 1017 833 q 1156 569 1144 679 l 972 569 q 912 670 954 628 q 803 735 869 713 q 644 757 736 757 q 444 722 531 757 q 311 617 358 686 q 264 447 264 549 q 311 279 264 347 q 444 176 358 211 q 644 140 531 140 q 802 163 736 140 q 910 226 868 185 q 972 324 953 268 l 1156 324 m 533 1013 l 722 1232 l 961 1232 l 706 1013 l 533 1013 z "},"Č":{"ha":1229,"x_min":74,"x_max":1156,"o":"m 1156 324 q 1079 139 1143 215 q 906 22 1015 63 q 644 -18 796 -18 q 413 11 518 -18 q 233 99 308 40 q 115 244 157 157 q 74 447 74 331 q 115 651 74 564 q 233 798 157 739 q 413 887 308 857 q 644 917 518 917 q 906 875 796 917 q 1081 756 1017 833 q 1156 569 1144 679 l 972 569 q 912 670 954 628 q 803 735 869 713 q 644 757 736 757 q 444 722 531 757 q 311 617 358 686 q 264 447 264 549 q 311 279 264 347 q 444 176 358 211 q 644 140 531 140 q 802 163 736 140 q 910 226 868 185 q 972 324 953 268 l 1156 324 m 692 1051 l 578 1051 l 754 1232 l 950 1232 l 729 1013 l 540 1013 l 319 1232 l 515 1232 l 692 1051 z "},"Ç":{"ha":1229,"x_min":74,"x_max":1156,"o":"m 511 -161 q 520 -182 514 -168 q 543 -207 526 -196 q 592 -218 560 -218 q 647 -201 631 -218 q 663 -162 663 -185 q 656 -139 663 -153 q 629 -111 650 -125 q 561 -89 608 -97 l 674 -50 q 744 -74 713 -57 q 796 -117 776 -90 q 815 -186 815 -144 q 760 -288 815 -244 q 596 -332 706 -332 q 477 -308 526 -332 q 403 -244 428 -283 q 381 -161 378 -204 l 511 -161 m 561 24 l 713 24 l 713 -99 l 561 -89 l 561 24 m 1156 324 q 1079 139 1143 215 q 906 22 1015 63 q 644 -18 796 -18 q 413 11 518 -18 q 233 99 308 40 q 115 244 157 157 q 74 447 74 331 q 115 651 74 564 q 233 798 157 739 q 413 887 308 857 q 644 917 518 917 q 906 875 796 917 q 1081 756 1017 833 q 1156 569 1144 679 l 972 569 q 912 670 954 628 q 803 735 869 713 q 644 757 736 757 q 444 722 531 757 q 311 617 358 686 q 264 447 264 549 q 311 279 264 347 q 444 176 358 211 q 644 140 531 140 q 802 163 736 140 q 910 226 868 185 q 972 324 953 268 l 1156 324 z "},"Ċ":{"ha":1229,"x_min":74,"x_max":1156,"o":"m 1156 324 q 1079 139 1143 215 q 906 22 1015 63 q 644 -18 796 -18 q 413 11 518 -18 q 233 99 308 40 q 115 244 157 157 q 74 447 74 331 q 115 651 74 564 q 233 798 157 739 q 413 887 308 857 q 644 917 518 917 q 906 875 796 917 q 1081 756 1017 833 q 1156 569 1144 679 l 972 569 q 912 670 954 628 q 803 735 869 713 q 644 757 736 757 q 444 722 531 757 q 311 617 358 686 q 264 447 264 549 q 311 279 264 347 q 444 176 358 211 q 644 140 531 140 q 802 163 736 140 q 910 226 868 185 q 972 324 953 268 l 1156 324 m 736 1174 l 736 1015 l 526 1015 l 526 1174 l 736 1174 z "},"D":{"ha":1221,"x_min":107,"x_max":1147,"o":"m 621 899 q 874 863 772 899 q 1035 765 975 826 q 1122 622 1096 703 q 1147 453 1147 542 q 1119 282 1147 364 q 1028 137 1090 200 q 866 37 967 74 q 621 0 765 0 l 107 0 l 107 899 l 621 899 m 292 158 l 617 158 q 783 183 717 158 q 888 249 849 207 q 943 343 926 290 q 960 453 960 396 q 943 561 960 510 q 888 653 926 613 q 783 717 849 693 q 617 740 717 740 l 292 740 l 292 158 z "},"Ð":{"ha":1221,"x_min":-7,"x_max":1147,"o":"m 621 899 q 874 863 772 899 q 1035 765 975 826 q 1122 622 1096 703 q 1147 453 1147 542 q 1119 282 1147 364 q 1028 137 1090 200 q 866 37 967 74 q 621 0 765 0 l 107 0 l 107 899 l 621 899 m 292 158 l 617 158 q 783 183 717 158 q 888 249 849 207 q 943 343 926 290 q 960 453 960 396 q 943 561 960 510 q 888 653 926 613 q 783 717 849 693 q 617 740 717 740 l 292 740 l 292 158 m -7 501 l 492 501 l 492 406 l -7 406 l -7 501 z "},"Ď":{"ha":1221,"x_min":107,"x_max":1147,"o":"m 621 899 q 874 863 772 899 q 1035 765 975 826 q 1122 622 1096 703 q 1147 453 1147 542 q 1119 282 1147 364 q 1028 137 1090 200 q 866 37 967 74 q 621 0 765 0 l 107 0 l 107 899 l 621 899 m 292 158 l 617 158 q 783 183 717 158 q 888 249 849 207 q 943 343 926 290 q 960 453 960 396 q 943 561 960 510 q 888 653 926 613 q 783 717 849 693 q 617 740 717 740 l 292 740 l 292 158 m 631 1075 l 517 1075 l 693 1256 l 889 1256 l 668 1036 l 479 1036 l 258 1256 l 454 1256 l 631 1075 z "},"Đ":{"ha":1221,"x_min":-7,"x_max":1147,"o":"m 621 899 q 874 863 772 899 q 1035 765 975 826 q 1122 622 1096 703 q 1147 453 1147 542 q 1119 282 1147 364 q 1028 137 1090 200 q 866 37 967 74 q 621 0 765 0 l 107 0 l 107 899 l 621 899 m 292 158 l 617 158 q 783 183 717 158 q 888 249 849 207 q 943 343 926 290 q 960 453 960 396 q 943 561 960 510 q 888 653 926 613 q 783 717 849 693 q 617 740 717 740 l 292 740 l 292 158 m -7 501 l 492 501 l 492 406 l -7 406 l -7 501 z "},"E":{"ha":1068,"x_min":107,"x_max":985,"o":"m 292 375 l 292 154 l 985 154 l 985 0 l 107 0 l 107 899 l 983 899 l 983 744 l 292 744 l 292 521 l 858 521 l 858 375 l 292 375 z "},"É":{"ha":1068,"x_min":107,"x_max":985,"o":"m 292 375 l 292 154 l 985 154 l 985 0 l 107 0 l 107 899 l 983 899 l 983 744 l 292 744 l 292 521 l 858 521 l 858 375 l 292 375 m 454 1007 l 643 1226 l 882 1226 l 626 1007 l 454 1007 z "},"Ě":{"ha":1068,"x_min":107,"x_max":985,"o":"m 292 375 l 292 154 l 985 154 l 985 0 l 107 0 l 107 899 l 983 899 l 983 744 l 292 744 l 292 521 l 858 521 l 858 375 l 292 375 m 613 1046 l 499 1046 l 675 1226 l 871 1226 l 650 1007 l 461 1007 l 240 1226 l 436 1226 l 613 1046 z "},"Ê":{"ha":1068,"x_min":107,"x_max":985,"o":"m 292 375 l 292 154 l 985 154 l 985 0 l 107 0 l 107 899 l 983 899 l 983 744 l 292 744 l 292 521 l 858 521 l 858 375 l 292 375 m 646 1226 l 871 1007 l 675 1007 l 494 1190 l 608 1189 l 426 1007 l 231 1007 l 457 1226 l 646 1226 z "},"Ë":{"ha":1068,"x_min":107,"x_max":985,"o":"m 292 375 l 292 154 l 985 154 l 985 0 l 107 0 l 107 899 l 983 899 l 983 744 l 292 744 l 292 521 l 858 521 l 858 375 l 292 375 m 506 1167 l 506 1008 l 296 1008 l 296 1167 l 506 1167 m 807 1167 l 807 1008 l 597 1008 l 597 1167 l 807 1167 z "},"Ė":{"ha":1068,"x_min":107,"x_max":985,"o":"m 292 375 l 292 154 l 985 154 l 985 0 l 107 0 l 107 899 l 983 899 l 983 744 l 292 744 l 292 521 l 858 521 l 858 375 l 292 375 m 657 1168 l 657 1010 l 447 1010 l 447 1168 l 657 1168 z "},"È":{"ha":1068,"x_min":107,"x_max":985,"o":"m 292 375 l 292 154 l 985 154 l 985 0 l 107 0 l 107 899 l 983 899 l 983 744 l 292 744 l 292 521 l 858 521 l 858 375 l 292 375 m 474 1007 l 218 1226 l 457 1226 l 646 1007 l 474 1007 z "},"Ē":{"ha":1068,"x_min":107,"x_max":985,"o":"m 292 375 l 292 154 l 985 154 l 985 0 l 107 0 l 107 899 l 983 899 l 983 744 l 292 744 l 292 521 l 858 521 l 858 375 l 292 375 m 339 1018 l 339 1131 l 765 1131 l 765 1018 l 339 1018 z "},"Ę":{"ha":1068,"x_min":107,"x_max":985,"o":"m 911 -310 q 686 -263 769 -310 q 603 -136 603 -217 q 639 -47 603 -81 q 736 6 675 -12 q 874 31 797 24 l 874 0 q 780 -36 817 -10 q 743 -110 743 -62 q 764 -166 743 -143 q 823 -201 785 -189 q 911 -214 861 -214 l 911 -310 m 292 375 l 292 154 l 985 154 l 985 0 l 107 0 l 107 899 l 983 899 l 983 744 l 292 744 l 292 521 l 858 521 l 858 375 l 292 375 z "},"F":{"ha":1029,"x_min":107,"x_max":983,"o":"m 983 899 l 983 744 l 292 744 l 292 503 l 858 503 l 858 358 l 292 358 l 292 0 l 107 0 l 107 899 l 983 899 z "},"G":{"ha":1269,"x_min":74,"x_max":1182,"o":"m 624 -18 q 398 11 499 -18 q 224 99 297 40 q 113 243 151 157 q 74 442 74 329 q 115 644 74 556 q 231 793 156 732 q 412 885 307 854 q 644 917 517 917 q 906 874 796 917 q 1078 756 1015 832 q 1150 574 1142 679 l 972 574 q 913 670 954 629 q 806 734 872 711 q 644 757 739 757 q 438 718 524 757 q 308 608 353 679 q 264 442 264 538 q 303 281 264 349 q 423 178 342 214 q 631 142 504 142 q 802 167 728 142 q 926 237 876 193 q 997 335 976 281 l 1069 361 q 934 82 1051 182 q 624 -18 817 -18 m 1022 0 q 1028 99 1022 43 q 1042 213 1033 156 q 1057 319 1050 271 l 646 319 l 646 438 l 1182 438 l 1182 0 l 1022 0 z "},"Ğ":{"ha":1269,"x_min":74,"x_max":1182,"o":"m 624 -18 q 398 11 499 -18 q 224 99 297 40 q 113 243 151 157 q 74 442 74 329 q 115 644 74 556 q 231 793 156 732 q 412 885 307 854 q 644 917 517 917 q 906 874 796 917 q 1078 756 1015 832 q 1150 574 1142 679 l 972 574 q 913 670 954 629 q 806 734 872 711 q 644 757 739 757 q 438 718 524 757 q 308 608 353 679 q 264 442 264 538 q 303 281 264 349 q 423 178 342 214 q 631 142 504 142 q 802 167 728 142 q 926 237 876 193 q 997 335 976 281 l 1069 361 q 934 82 1051 182 q 624 -18 817 -18 m 1022 0 q 1028 99 1022 43 q 1042 213 1033 156 q 1057 319 1050 271 l 646 319 l 646 438 l 1182 438 l 1182 0 l 1022 0 m 922 1192 q 881 1084 914 1132 q 785 1009 847 1036 q 631 982 724 982 q 476 1009 538 982 q 382 1084 415 1036 q 339 1192 349 1132 l 471 1192 q 520 1119 482 1144 q 631 1093 558 1093 q 742 1119 704 1093 q 790 1192 781 1144 l 922 1192 z "},"Ģ":{"ha":1269,"x_min":74,"x_max":1182,"o":"m 624 -18 q 398 11 499 -18 q 224 99 297 40 q 113 243 151 157 q 74 442 74 329 q 115 644 74 556 q 231 793 156 732 q 412 885 307 854 q 644 917 517 917 q 906 874 796 917 q 1078 756 1015 832 q 1150 574 1142 679 l 972 574 q 913 670 954 629 q 806 734 872 711 q 644 757 739 757 q 438 718 524 757 q 308 608 353 679 q 264 442 264 538 q 303 281 264 349 q 423 178 342 214 q 631 142 504 142 q 802 167 728 142 q 926 237 876 193 q 997 335 976 281 l 1069 361 q 934 82 1051 182 q 624 -18 817 -18 m 1022 0 q 1028 99 1022 43 q 1042 213 1033 156 q 1057 319 1050 271 l 646 319 l 646 438 l 1182 438 l 1182 0 l 1022 0 m 554 -346 l 538 -299 q 588 -266 567 -285 q 610 -228 608 -247 l 524 -212 l 524 -85 l 736 -85 l 736 -157 q 690 -280 736 -232 q 554 -346 643 -328 l 554 -346 z "},"Ġ":{"ha":1269,"x_min":74,"x_max":1182,"o":"m 624 -18 q 398 11 499 -18 q 224 99 297 40 q 113 243 151 157 q 74 442 74 329 q 115 644 74 556 q 231 793 156 732 q 412 885 307 854 q 644 917 517 917 q 906 874 796 917 q 1078 756 1015 832 q 1150 574 1142 679 l 972 574 q 913 670 954 629 q 806 734 872 711 q 644 757 739 757 q 438 718 524 757 q 308 608 353 679 q 264 442 264 538 q 303 281 264 349 q 423 178 342 214 q 631 142 504 142 q 802 167 728 142 q 926 237 876 193 q 997 335 976 281 l 1069 361 q 934 82 1051 182 q 624 -18 817 -18 m 1022 0 q 1028 99 1022 43 q 1042 213 1033 156 q 1057 319 1050 271 l 646 319 l 646 438 l 1182 438 l 1182 0 l 1022 0 m 736 1174 l 736 1015 l 526 1015 l 526 1174 l 736 1174 z "},"H":{"ha":1243,"x_min":107,"x_max":1136,"o":"m 269 528 l 982 528 l 982 374 l 269 374 l 269 528 m 951 899 l 1136 899 l 1136 0 l 951 0 l 951 899 m 107 899 l 292 899 l 292 0 l 107 0 l 107 899 z "},"Ħ":{"ha":1243,"x_min":51,"x_max":1192,"o":"m 51 654 l 51 758 l 1192 758 l 1192 654 l 51 654 m 269 528 l 982 528 l 982 374 l 269 374 l 269 528 m 951 899 l 1136 899 l 1136 0 l 951 0 l 951 899 m 107 899 l 292 899 l 292 0 l 107 0 l 107 899 z "},"I":{"ha":450,"x_min":133,"x_max":318,"o":"m 133 899 l 318 899 l 318 0 l 133 0 l 133 899 z "},"Ĳ":{"ha":1047,"x_min":133,"x_max":940,"o":"m 133 899 l 314 899 l 314 401 l 133 401 l 133 899 m 756 351 l 756 899 l 940 899 l 940 339 q 915 204 940 268 q 838 91 889 140 q 713 14 788 42 q 540 -14 639 -14 q 392 6 464 -14 q 264 65 321 25 q 172 165 207 104 q 135 307 138 225 l 310 307 q 388 187 325 228 q 540 146 451 146 q 664 173 617 146 q 733 247 711 200 q 756 351 756 293 z "},"Í":{"ha":450,"x_min":128,"x_max":556,"o":"m 133 899 l 318 899 l 318 0 l 133 0 l 133 899 m 128 1007 l 317 1226 l 556 1226 l 300 1007 l 128 1007 z "},"Î":{"ha":450,"x_min":-96,"x_max":544,"o":"m 133 899 l 318 899 l 318 0 l 133 0 l 133 899 m 319 1226 l 544 1007 l 349 1007 l 168 1190 l 282 1189 l 100 1007 l -96 1007 l 131 1226 l 319 1226 z "},"Ï":{"ha":450,"x_min":-31,"x_max":481,"o":"m 133 899 l 318 899 l 318 0 l 133 0 l 133 899 m 179 1167 l 179 1008 l -31 1008 l -31 1167 l 179 1167 m 481 1167 l 481 1008 l 271 1008 l 271 1167 l 481 1167 z "},"İ":{"ha":450,"x_min":121,"x_max":331,"o":"m 133 899 l 318 899 l 318 0 l 133 0 l 133 899 m 331 1168 l 331 1010 l 121 1010 l 121 1168 l 331 1168 z "},"Ì":{"ha":450,"x_min":-108,"x_max":319,"o":"m 133 899 l 318 899 l 318 0 l 133 0 l 133 899 m 147 1007 l -108 1226 l 131 1226 l 319 1007 l 147 1007 z "},"Ī":{"ha":450,"x_min":13,"x_max":439,"o":"m 133 899 l 318 899 l 318 0 l 133 0 l 133 899 m 13 1018 l 13 1131 l 439 1131 l 439 1018 l 13 1018 z "},"Į":{"ha":450,"x_min":-25,"x_max":318,"o":"m 283 -310 q 58 -263 142 -310 q -25 -136 -25 -217 q 11 -47 -25 -81 q 108 6 47 -12 q 246 31 169 24 l 246 0 q 152 -36 189 -10 q 115 -110 115 -62 q 136 -166 115 -143 q 195 -201 157 -189 q 283 -214 233 -214 l 283 -310 m 133 899 l 318 899 l 318 0 l 133 0 l 133 899 z "},"J":{"ha":949,"x_min":36,"x_max":842,"o":"m 657 351 l 657 899 l 842 899 l 842 339 q 816 204 842 268 q 740 91 790 140 q 615 14 689 42 q 442 -14 540 -14 q 294 6 365 -14 q 165 65 222 25 q 74 165 108 104 q 36 307 39 225 l 211 307 q 290 187 226 228 q 442 146 353 146 q 565 173 518 146 q 635 247 613 200 q 657 351 657 293 z "},"K":{"ha":1131,"x_min":107,"x_max":1096,"o":"m 492 438 l 490 515 l 1096 0 l 829 0 l 290 472 l 769 899 l 1032 899 l 492 438 m 107 899 l 292 899 l 292 0 l 107 0 l 107 899 z "},"Ķ":{"ha":1131,"x_min":107,"x_max":1096,"o":"m 492 438 l 490 515 l 1096 0 l 829 0 l 290 472 l 769 899 l 1032 899 l 492 438 m 107 899 l 292 899 l 292 0 l 107 0 l 107 899 m 458 -346 l 442 -299 q 492 -266 471 -285 q 514 -228 513 -247 l 428 -212 l 428 -85 l 640 -85 l 640 -157 q 594 -280 640 -232 q 458 -346 547 -328 l 458 -346 z "},"L":{"ha":954,"x_min":107,"x_max":889,"o":"m 292 899 l 292 154 l 889 154 l 889 0 l 107 0 l 107 899 l 292 899 z "},"Ĺ":{"ha":954,"x_min":101,"x_max":889,"o":"m 292 899 l 292 154 l 889 154 l 889 0 l 107 0 l 107 899 l 292 899 m 101 1007 l 290 1226 l 529 1226 l 274 1007 l 101 1007 z "},"Ľ":{"ha":954,"x_min":107,"x_max":889,"o":"m 292 899 l 292 154 l 889 154 l 889 0 l 107 0 l 107 899 l 292 899 m 667 676 l 571 676 l 513 849 l 513 968 l 725 968 l 725 849 l 667 676 z "},"Ļ":{"ha":954,"x_min":107,"x_max":889,"o":"m 292 899 l 292 154 l 889 154 l 889 0 l 107 0 l 107 899 l 292 899 m 465 -346 l 449 -299 q 499 -266 478 -285 q 521 -228 519 -247 l 435 -212 l 435 -85 l 647 -85 l 647 -157 q 601 -280 647 -232 q 465 -346 554 -328 l 465 -346 z "},"Ŀ":{"ha":954,"x_min":107,"x_max":889,"o":"m 292 899 l 292 154 l 889 154 l 889 0 l 107 0 l 107 899 l 292 899 m 699 586 l 699 428 l 489 428 l 489 586 l 699 586 z "},"Ł":{"ha":954,"x_min":-43,"x_max":889,"o":"m 292 899 l 292 154 l 889 154 l 889 0 l 107 0 l 107 899 l 292 899 m 524 703 l 575 629 l 6 240 l -43 314 l 524 703 z "},"M":{"ha":1526,"x_min":107,"x_max":1419,"o":"m 806 92 l 718 92 l 1235 899 l 1419 899 l 1419 0 l 1235 0 l 1235 653 l 1279 640 l 867 0 l 660 0 l 247 638 l 292 650 l 292 0 l 107 0 l 107 899 l 292 899 l 806 92 z "},"N":{"ha":1251,"x_min":107,"x_max":1144,"o":"m 1018 183 l 960 160 l 960 899 l 1144 899 l 1144 0 l 960 0 l 233 710 l 292 733 l 292 0 l 107 0 l 107 899 l 292 899 l 1018 183 z "},"Ń":{"ha":1251,"x_min":107,"x_max":1144,"o":"m 1018 183 l 960 160 l 960 899 l 1144 899 l 1144 0 l 960 0 l 233 710 l 292 733 l 292 0 l 107 0 l 107 899 l 292 899 l 1018 183 m 538 1007 l 726 1226 l 965 1226 l 710 1007 l 538 1007 z "},"Ň":{"ha":1251,"x_min":107,"x_max":1144,"o":"m 1018 183 l 960 160 l 960 899 l 1144 899 l 1144 0 l 960 0 l 233 710 l 292 733 l 292 0 l 107 0 l 107 899 l 292 899 l 1018 183 m 696 1046 l 582 1046 l 758 1226 l 954 1226 l 733 1007 l 544 1007 l 324 1226 l 519 1226 l 696 1046 z "},"Ņ":{"ha":1251,"x_min":107,"x_max":1144,"o":"m 1018 183 l 960 160 l 960 899 l 1144 899 l 1144 0 l 960 0 l 233 710 l 292 733 l 292 0 l 107 0 l 107 899 l 292 899 l 1018 183 m 563 -346 l 546 -299 q 596 -266 575 -285 q 618 -228 617 -247 l 532 -212 l 532 -85 l 744 -85 l 744 -157 q 698 -280 744 -232 q 563 -346 651 -328 l 563 -346 z "},"Ñ":{"ha":1251,"x_min":107,"x_max":1144,"o":"m 1018 183 l 960 160 l 960 899 l 1144 899 l 1144 0 l 960 0 l 233 710 l 292 733 l 292 0 l 107 0 l 107 899 l 292 899 l 1018 183 m 756 1006 q 682 1018 714 1006 q 622 1048 650 1031 q 567 1078 594 1065 q 506 1090 539 1090 q 459 1078 476 1090 q 432 1046 442 1065 q 414 1007 422 1026 l 286 1007 q 323 1102 297 1058 q 390 1173 349 1146 q 489 1200 432 1200 q 565 1188 532 1200 q 626 1158 597 1175 q 681 1128 654 1140 q 738 1115 707 1115 q 785 1128 768 1115 q 813 1161 803 1142 q 831 1199 824 1181 l 960 1199 q 923 1104 949 1149 q 856 1033 897 1060 q 756 1006 814 1006 z "},"Ŋ":{"ha":1251,"x_min":107,"x_max":1144,"o":"m 1018 183 l 960 160 l 960 899 l 1144 899 l 1144 -46 q 1122 -149 1144 -106 q 1063 -219 1100 -192 q 978 -263 1025 -247 q 882 -285 932 -279 q 785 -292 832 -292 l 785 -142 q 871 -131 831 -142 q 935 -89 911 -119 q 960 0 960 -58 l 233 710 l 292 733 l 292 0 l 107 0 l 107 899 l 292 899 l 1018 183 z "},"O":{"ha":1283,"x_min":74,"x_max":1210,"o":"m 642 -18 q 335 38 463 -18 q 141 199 208 94 q 74 449 74 303 q 141 700 74 596 q 335 860 208 804 q 642 917 463 917 q 949 860 822 917 q 1142 700 1075 804 q 1210 449 1210 596 q 1142 199 1210 303 q 949 38 1075 94 q 642 -18 822 -18 m 642 142 q 837 175 753 142 q 969 276 921 208 q 1017 449 1017 344 q 969 621 1017 553 q 837 723 921 689 q 642 757 753 757 q 446 723 532 757 q 311 621 360 689 q 263 449 263 553 q 311 276 263 344 q 446 175 360 208 q 642 142 532 142 z "},"Ó":{"ha":1283,"x_min":74,"x_max":1210,"o":"m 642 -18 q 335 38 463 -18 q 141 199 208 94 q 74 449 74 303 q 141 700 74 596 q 335 860 208 804 q 642 917 463 917 q 949 860 822 917 q 1142 700 1075 804 q 1210 449 1210 596 q 1142 199 1210 303 q 949 38 1075 94 q 642 -18 822 -18 m 642 142 q 837 175 753 142 q 969 276 921 208 q 1017 449 1017 344 q 969 621 1017 553 q 837 723 921 689 q 642 757 753 757 q 446 723 532 757 q 311 621 360 689 q 263 449 263 553 q 311 276 263 344 q 446 175 360 208 q 642 142 532 142 m 544 1013 l 733 1232 l 972 1232 l 717 1013 l 544 1013 z "},"Ô":{"ha":1283,"x_min":74,"x_max":1210,"o":"m 642 -18 q 335 38 463 -18 q 141 199 208 94 q 74 449 74 303 q 141 700 74 596 q 335 860 208 804 q 642 917 463 917 q 949 860 822 917 q 1142 700 1075 804 q 1210 449 1210 596 q 1142 199 1210 303 q 949 38 1075 94 q 642 -18 822 -18 m 642 142 q 837 175 753 142 q 969 276 921 208 q 1017 449 1017 344 q 969 621 1017 553 q 837 723 921 689 q 642 757 753 757 q 446 723 532 757 q 311 621 360 689 q 263 449 263 553 q 311 276 263 344 q 446 175 360 208 q 642 142 532 142 m 736 1232 l 961 1013 l 765 1013 l 585 1196 l 699 1194 l 517 1013 l 321 1013 l 547 1232 l 736 1232 z "},"Ö":{"ha":1285,"x_min":74,"x_max":1210,"o":"m 642 -18 q 335 38 463 -18 q 141 199 208 94 q 74 449 74 303 q 141 700 74 596 q 335 860 208 804 q 642 917 463 917 q 949 860 822 917 q 1142 700 1075 804 q 1210 449 1210 596 q 1142 199 1210 303 q 949 38 1075 94 q 642 -18 822 -18 m 642 142 q 837 175 753 142 q 969 276 921 208 q 1017 449 1017 344 q 969 621 1017 553 q 837 723 921 689 q 642 757 753 757 q 446 723 532 757 q 311 621 360 689 q 263 449 263 553 q 311 276 263 344 q 446 175 360 208 q 642 142 532 142 m 315 1060 l 315 901 l 106 901 l 106 1060 l 315 1060 m 1194 1060 l 1194 901 l 985 901 l 985 1060 l 1194 1060 z "},"Ȯ":{"ha":1283,"x_min":74,"x_max":1210,"o":"m 642 -18 q 335 38 463 -18 q 141 199 208 94 q 74 449 74 303 q 141 700 74 596 q 335 860 208 804 q 642 917 463 917 q 949 860 822 917 q 1142 700 1075 804 q 1210 449 1210 596 q 1142 199 1210 303 q 949 38 1075 94 q 642 -18 822 -18 m 642 142 q 837 175 753 142 q 969 276 921 208 q 1017 449 1017 344 q 969 621 1017 553 q 837 723 921 689 q 642 757 753 757 q 446 723 532 757 q 311 621 360 689 q 263 449 263 553 q 311 276 263 344 q 446 175 360 208 q 642 142 532 142 m 747 1174 l 747 1015 l 538 1015 l 538 1174 l 747 1174 z "},"Ò":{"ha":1283,"x_min":74,"x_max":1210,"o":"m 642 -18 q 335 38 463 -18 q 141 199 208 94 q 74 449 74 303 q 141 700 74 596 q 335 860 208 804 q 642 917 463 917 q 949 860 822 917 q 1142 700 1075 804 q 1210 449 1210 596 q 1142 199 1210 303 q 949 38 1075 94 q 642 -18 822 -18 m 642 142 q 837 175 753 142 q 969 276 921 208 q 1017 449 1017 344 q 969 621 1017 553 q 837 723 921 689 q 642 757 753 757 q 446 723 532 757 q 311 621 360 689 q 263 449 263 553 q 311 276 263 344 q 446 175 360 208 q 642 142 532 142 m 564 1013 l 308 1232 l 547 1232 l 736 1013 l 564 1013 z "},"Ő":{"ha":1283,"x_min":74,"x_max":1210,"o":"m 642 -18 q 335 38 463 -18 q 141 199 208 94 q 74 449 74 303 q 141 700 74 596 q 335 860 208 804 q 642 917 463 917 q 949 860 822 917 q 1142 700 1075 804 q 1210 449 1210 596 q 1142 199 1210 303 q 949 38 1075 94 q 642 -18 822 -18 m 642 142 q 837 175 753 142 q 969 276 921 208 q 1017 449 1017 344 q 969 621 1017 553 q 837 723 921 689 q 642 757 753 757 q 446 723 532 757 q 311 621 360 689 q 263 449 263 553 q 311 276 263 344 q 446 175 360 208 q 642 142 532 142 m 697 1013 l 865 1232 l 1054 1232 l 839 1013 l 697 1013 m 397 1013 l 557 1232 l 746 1232 l 539 1013 l 397 1013 z "},"Ō":{"ha":1283,"x_min":74,"x_max":1210,"o":"m 642 -18 q 335 38 463 -18 q 141 199 208 94 q 74 449 74 303 q 141 700 74 596 q 335 860 208 804 q 642 917 463 917 q 949 860 822 917 q 1142 700 1075 804 q 1210 449 1210 596 q 1142 199 1210 303 q 949 38 1075 94 q 642 -18 822 -18 m 642 142 q 837 175 753 142 q 969 276 921 208 q 1017 449 1017 344 q 969 621 1017 553 q 837 723 921 689 q 642 757 753 757 q 446 723 532 757 q 311 621 360 689 q 263 449 263 553 q 311 276 263 344 q 446 175 360 208 q 642 142 532 142 m 429 1024 l 429 1136 l 856 1136 l 856 1024 l 429 1024 z "},"Ø":{"ha":1283,"x_min":74,"x_max":1210,"o":"m 642 -18 q 335 38 463 -18 q 141 199 208 94 q 74 449 74 303 q 141 700 74 596 q 335 860 208 804 q 642 917 463 917 q 949 860 822 917 q 1142 700 1075 804 q 1210 449 1210 596 q 1142 199 1210 303 q 949 38 1075 94 q 642 -18 822 -18 m 642 142 q 837 175 753 142 q 969 276 921 208 q 1017 449 1017 344 q 969 621 1017 553 q 837 723 921 689 q 642 757 753 757 q 446 723 532 757 q 311 621 360 689 q 263 449 263 553 q 311 276 263 344 q 446 175 360 208 q 642 142 532 142 m 879 963 l 954 921 l 401 -78 l 329 -33 l 879 963 z "},"Õ":{"ha":1283,"x_min":74,"x_max":1210,"o":"m 642 -18 q 335 38 463 -18 q 141 199 208 94 q 74 449 74 303 q 141 700 74 596 q 335 860 208 804 q 642 917 463 917 q 949 860 822 917 q 1142 700 1075 804 q 1210 449 1210 596 q 1142 199 1210 303 q 949 38 1075 94 q 642 -18 822 -18 m 642 142 q 837 175 753 142 q 969 276 921 208 q 1017 449 1017 344 q 969 621 1017 553 q 837 723 921 689 q 642 757 753 757 q 446 723 532 757 q 311 621 360 689 q 263 449 263 553 q 311 276 263 344 q 446 175 360 208 q 642 142 532 142 m 763 1011 q 689 1024 721 1011 q 629 1053 657 1036 q 574 1083 601 1071 q 513 1096 546 1096 q 466 1083 483 1096 q 439 1051 449 1071 q 421 1013 429 1032 l 293 1013 q 330 1108 304 1064 q 397 1178 356 1151 q 496 1206 439 1206 q 572 1193 539 1206 q 633 1163 604 1181 q 688 1133 661 1146 q 744 1121 714 1121 q 792 1134 775 1121 q 820 1167 810 1147 q 838 1204 831 1186 l 967 1204 q 930 1110 956 1154 q 863 1038 904 1065 q 763 1011 821 1011 z "},"Œ":{"ha":1774,"x_min":74,"x_max":1690,"o":"m 1690 156 l 1690 0 l 754 0 l 1063 156 l 1690 156 m 1563 521 l 1563 375 l 1172 375 l 1172 521 l 1563 521 m 1689 899 l 1689 743 l 1001 743 l 754 899 l 1689 899 m 642 -18 q 335 38 463 -18 q 141 199 208 94 q 74 449 74 303 q 141 700 74 596 q 335 860 208 804 q 642 917 463 917 q 949 860 822 917 q 1142 700 1075 804 q 1210 449 1210 596 q 1142 199 1210 303 q 949 38 1075 94 q 642 -18 822 -18 m 642 142 q 837 175 753 142 q 969 276 921 208 q 1017 449 1017 344 q 969 621 1017 553 q 837 723 921 689 q 642 757 753 757 q 446 723 532 757 q 311 621 360 689 q 263 449 263 553 q 311 276 263 344 q 446 175 360 208 q 642 142 532 142 z "},"P":{"ha":1089,"x_min":104,"x_max":1022,"o":"m 267 292 l 267 439 l 678 439 q 794 478 751 439 q 838 589 838 518 q 794 701 838 663 q 678 740 751 740 l 289 740 l 289 0 l 104 0 l 104 899 l 661 899 q 802 881 736 899 q 917 825 868 863 q 994 729 967 788 q 1022 589 1022 671 q 994 451 1022 508 q 917 359 967 394 q 802 308 868 324 q 661 292 736 292 l 267 292 z "},"Þ":{"ha":1054,"x_min":104,"x_max":988,"o":"m 626 750 q 767 733 701 750 q 883 681 833 717 q 960 588 932 644 q 988 449 988 531 q 960 311 988 368 q 883 218 932 254 q 767 165 833 182 q 626 149 701 149 l 250 149 l 250 299 l 643 299 q 758 338 714 299 q 803 449 803 378 q 758 561 803 522 q 643 600 714 600 l 250 600 l 250 750 l 626 750 m 104 899 l 289 899 l 289 0 l 104 0 l 104 899 z "},"Q":{"ha":1283,"x_min":74,"x_max":1210,"o":"m 551 60 l 732 60 l 732 -278 l 551 -278 l 551 60 m 642 -18 q 335 38 463 -18 q 141 199 208 94 q 74 449 74 303 q 141 700 74 596 q 335 860 208 804 q 642 917 463 917 q 949 860 822 917 q 1142 700 1075 804 q 1210 449 1210 596 q 1142 199 1210 303 q 949 38 1075 94 q 642 -18 822 -18 m 642 142 q 837 175 753 142 q 969 276 921 208 q 1017 449 1017 344 q 969 621 1017 553 q 837 723 921 689 q 642 757 753 757 q 446 723 532 757 q 311 621 360 689 q 263 449 263 553 q 311 276 263 344 q 446 175 360 208 q 642 142 532 142 z "},"R":{"ha":1147,"x_min":107,"x_max":1061,"o":"m 107 0 l 107 899 l 717 899 q 898 870 821 899 q 1018 781 975 842 q 1061 626 1061 721 q 1039 518 1061 563 q 977 446 1017 474 q 886 403 938 418 q 776 385 835 389 l 757 396 q 917 380 854 394 q 1010 327 979 365 q 1042 214 1042 289 l 1042 0 l 857 0 l 857 201 q 839 281 857 253 q 774 321 821 310 q 640 332 728 332 l 292 332 l 292 0 l 107 0 m 292 476 l 717 476 q 835 514 794 476 q 876 615 876 551 q 835 708 876 676 q 717 740 794 740 l 292 740 l 292 476 z "},"Ŕ":{"ha":1147,"x_min":107,"x_max":1061,"o":"m 107 0 l 107 899 l 717 899 q 898 870 821 899 q 1018 781 975 842 q 1061 626 1061 721 q 1039 518 1061 563 q 977 446 1017 474 q 886 403 938 418 q 776 385 835 389 l 757 396 q 917 380 854 394 q 1010 327 979 365 q 1042 214 1042 289 l 1042 0 l 857 0 l 857 201 q 839 281 857 253 q 774 321 821 310 q 640 332 728 332 l 292 332 l 292 0 l 107 0 m 292 476 l 717 476 q 835 514 794 476 q 876 615 876 551 q 835 708 876 676 q 717 740 794 740 l 292 740 l 292 476 m 469 1007 l 658 1226 l 897 1226 l 642 1007 l 469 1007 z "},"Ř":{"ha":1147,"x_min":107,"x_max":1061,"o":"m 107 0 l 107 899 l 717 899 q 898 870 821 899 q 1018 781 975 842 q 1061 626 1061 721 q 1039 518 1061 563 q 977 446 1017 474 q 886 403 938 418 q 776 385 835 389 l 757 396 q 917 380 854 394 q 1010 327 979 365 q 1042 214 1042 289 l 1042 0 l 857 0 l 857 201 q 839 281 857 253 q 774 321 821 310 q 640 332 728 332 l 292 332 l 292 0 l 107 0 m 292 476 l 717 476 q 835 514 794 476 q 876 615 876 551 q 835 708 876 676 q 717 740 794 740 l 292 740 l 292 476 m 628 1046 l 514 1046 l 690 1226 l 886 1226 l 665 1007 l 476 1007 l 256 1226 l 451 1226 l 628 1046 z "},"Ŗ":{"ha":1147,"x_min":107,"x_max":1061,"o":"m 107 0 l 107 899 l 717 899 q 898 870 821 899 q 1018 781 975 842 q 1061 626 1061 721 q 1039 518 1061 563 q 977 446 1017 474 q 886 403 938 418 q 776 385 835 389 l 757 396 q 917 380 854 394 q 1010 327 979 365 q 1042 214 1042 289 l 1042 0 l 857 0 l 857 201 q 839 281 857 253 q 774 321 821 310 q 640 332 728 332 l 292 332 l 292 0 l 107 0 m 292 476 l 717 476 q 835 514 794 476 q 876 615 876 551 q 835 708 876 676 q 717 740 794 740 l 292 740 l 292 476 m 486 -353 l 469 -306 q 519 -273 499 -292 q 542 -235 540 -254 l 456 -219 l 456 -92 l 668 -92 l 668 -164 q 622 -287 668 -239 q 486 -353 575 -335 l 486 -353 z "},"S":{"ha":964,"x_min":44,"x_max":908,"o":"m 47 303 l 235 303 q 278 217 240 256 q 379 158 317 179 q 519 136 442 136 q 636 151 590 136 q 704 194 682 167 q 726 261 726 222 q 699 319 726 299 q 611 352 671 339 q 454 379 551 365 q 310 410 378 390 q 190 463 242 431 q 108 541 138 494 q 78 651 78 588 q 123 790 78 731 q 257 883 168 850 q 475 917 346 917 q 774 834 669 917 q 876 607 879 751 l 696 607 q 627 725 690 689 q 468 761 564 761 q 322 735 379 761 q 264 644 264 708 q 278 601 264 619 q 325 568 292 582 q 415 542 358 554 q 557 517 472 529 q 701 487 636 506 q 812 438 765 468 q 883 363 858 408 q 908 250 908 317 q 866 108 908 168 q 735 14 824 47 q 507 -19 647 -19 q 331 2 407 -19 q 199 60 254 24 q 108 139 143 96 q 59 225 74 182 q 47 303 44 268 z "},"Ś":{"ha":964,"x_min":44,"x_max":908,"o":"m 47 303 l 235 303 q 278 217 240 256 q 379 158 317 179 q 519 136 442 136 q 636 151 590 136 q 704 194 682 167 q 726 261 726 222 q 699 319 726 299 q 611 352 671 339 q 454 379 551 365 q 310 410 378 390 q 190 463 242 431 q 108 541 138 494 q 78 651 78 588 q 123 790 78 731 q 257 883 168 850 q 475 917 346 917 q 774 834 669 917 q 876 607 879 751 l 696 607 q 627 725 690 689 q 468 761 564 761 q 322 735 379 761 q 264 644 264 708 q 278 601 264 619 q 325 568 292 582 q 415 542 358 554 q 557 517 472 529 q 701 487 636 506 q 812 438 765 468 q 883 363 858 408 q 908 250 908 317 q 866 108 908 168 q 735 14 824 47 q 507 -19 647 -19 q 331 2 407 -19 q 199 60 254 24 q 108 139 143 96 q 59 225 74 182 q 47 303 44 268 m 374 1013 l 563 1232 l 801 1232 l 546 1013 l 374 1013 z "},"Š":{"ha":964,"x_min":44,"x_max":908,"o":"m 47 303 l 235 303 q 278 217 240 256 q 379 158 317 179 q 519 136 442 136 q 636 151 590 136 q 704 194 682 167 q 726 261 726 222 q 699 319 726 299 q 611 352 671 339 q 454 379 551 365 q 310 410 378 390 q 190 463 242 431 q 108 541 138 494 q 78 651 78 588 q 123 790 78 731 q 257 883 168 850 q 475 917 346 917 q 774 834 669 917 q 876 607 879 751 l 696 607 q 627 725 690 689 q 468 761 564 761 q 322 735 379 761 q 264 644 264 708 q 278 601 264 619 q 325 568 292 582 q 415 542 358 554 q 557 517 472 529 q 701 487 636 506 q 812 438 765 468 q 883 363 858 408 q 908 250 908 317 q 866 108 908 168 q 735 14 824 47 q 507 -19 647 -19 q 331 2 407 -19 q 199 60 254 24 q 108 139 143 96 q 59 225 74 182 q 47 303 44 268 m 532 1051 l 418 1051 l 594 1232 l 790 1232 l 569 1013 l 381 1013 l 160 1232 l 356 1232 l 532 1051 z "},"Ş":{"ha":964,"x_min":44,"x_max":908,"o":"m 346 -168 q 355 -189 349 -175 q 378 -214 361 -203 q 426 -225 394 -225 q 481 -208 465 -225 q 497 -169 497 -192 q 491 -146 497 -160 q 464 -118 485 -132 q 396 -96 443 -104 l 508 -57 q 579 -81 547 -64 q 631 -124 611 -97 q 650 -193 650 -151 q 595 -295 650 -251 q 431 -339 540 -339 q 312 -315 361 -339 q 238 -251 263 -290 q 215 -168 213 -211 l 346 -168 m 396 17 l 547 17 l 547 -106 l 396 -96 l 396 17 m 47 303 l 235 303 q 278 217 240 256 q 379 158 317 179 q 519 136 442 136 q 636 151 590 136 q 704 194 682 167 q 726 261 726 222 q 699 319 726 299 q 611 352 671 339 q 454 379 551 365 q 310 410 378 390 q 190 463 242 431 q 108 541 138 494 q 78 651 78 588 q 123 790 78 731 q 257 883 168 850 q 475 917 346 917 q 774 834 669 917 q 876 607 879 751 l 696 607 q 627 725 690 689 q 468 761 564 761 q 322 735 379 761 q 264 644 264 708 q 278 601 264 619 q 325 568 292 582 q 415 542 358 554 q 557 517 472 529 q 701 487 636 506 q 812 438 765 468 q 883 363 858 408 q 908 250 908 317 q 866 108 908 168 q 735 14 824 47 q 507 -19 647 -19 q 331 2 407 -19 q 199 60 254 24 q 108 139 143 96 q 59 225 74 182 q 47 303 44 268 z "},"Ș":{"ha":964,"x_min":44,"x_max":908,"o":"m 47 303 l 235 303 q 278 217 240 256 q 379 158 317 179 q 519 136 442 136 q 636 151 590 136 q 704 194 682 167 q 726 261 726 222 q 699 319 726 299 q 611 352 671 339 q 454 379 551 365 q 310 410 378 390 q 190 463 242 431 q 108 541 138 494 q 78 651 78 588 q 123 790 78 731 q 257 883 168 850 q 475 917 346 917 q 774 834 669 917 q 876 607 879 751 l 696 607 q 627 725 690 689 q 468 761 564 761 q 322 735 379 761 q 264 644 264 708 q 278 601 264 619 q 325 568 292 582 q 415 542 358 554 q 557 517 472 529 q 701 487 636 506 q 812 438 765 468 q 883 363 858 408 q 908 250 908 317 q 866 108 908 168 q 735 14 824 47 q 507 -19 647 -19 q 331 2 407 -19 q 199 60 254 24 q 108 139 143 96 q 59 225 74 182 q 47 303 44 268 m 401 -353 l 385 -306 q 435 -273 414 -292 q 457 -235 456 -254 l 371 -219 l 371 -92 l 583 -92 l 583 -164 q 537 -287 583 -239 q 401 -353 490 -335 l 401 -353 z "},"T":{"ha":1003,"x_min":28,"x_max":975,"o":"m 28 899 l 975 899 l 975 744 l 28 744 l 28 899 m 410 764 l 594 764 l 594 0 l 410 0 l 410 764 z "},"Ŧ":{"ha":1003,"x_min":28,"x_max":975,"o":"m 111 397 l 111 501 l 892 501 l 892 397 l 111 397 m 28 899 l 975 899 l 975 744 l 28 744 l 28 899 m 410 764 l 594 764 l 594 0 l 410 0 l 410 764 z "},"Ť":{"ha":1003,"x_min":28,"x_max":975,"o":"m 28 899 l 975 899 l 975 744 l 28 744 l 28 899 m 410 764 l 594 764 l 594 0 l 410 0 l 410 764 m 563 1046 l 449 1046 l 625 1226 l 821 1226 l 600 1007 l 411 1007 l 190 1226 l 386 1226 l 563 1046 z "},"Ţ":{"ha":1003,"x_min":28,"x_max":975,"o":"m 369 -161 q 378 -182 372 -168 q 401 -207 385 -196 q 450 -218 418 -218 q 505 -201 489 -218 q 521 -162 521 -185 q 515 -139 521 -153 q 488 -111 508 -125 q 419 -89 467 -97 l 532 -50 q 603 -74 571 -57 q 654 -117 635 -90 q 674 -186 674 -144 q 619 -288 674 -244 q 454 -332 564 -332 q 335 -308 385 -332 q 261 -244 286 -283 q 239 -161 236 -204 l 369 -161 m 419 24 l 571 24 l 571 -99 l 419 -89 l 419 24 m 28 899 l 975 899 l 975 744 l 28 744 l 28 899 m 410 764 l 594 764 l 594 0 l 410 0 l 410 764 z "},"Ț":{"ha":1003,"x_min":28,"x_max":975,"o":"m 28 899 l 975 899 l 975 744 l 28 744 l 28 899 m 410 764 l 594 764 l 594 0 l 410 0 l 410 764 m 425 -346 l 408 -299 q 458 -266 438 -285 q 481 -228 479 -247 l 394 -212 l 394 -85 l 607 -85 l 607 -157 q 560 -280 607 -232 q 425 -346 514 -328 l 425 -346 z "},"U":{"ha":1224,"x_min":107,"x_max":1117,"o":"m 932 397 l 932 899 l 1117 899 l 1117 378 q 1091 222 1117 289 q 1018 110 1065 156 q 908 35 971 64 q 770 -6 844 7 q 614 -18 696 -18 q 453 -6 529 -18 q 313 35 376 7 q 204 110 250 64 q 133 222 158 156 q 107 378 107 289 l 107 899 l 292 899 l 292 397 q 333 237 292 292 q 448 162 375 182 q 614 142 521 142 q 776 162 704 142 q 890 237 847 182 q 932 397 932 292 z "},"Ú":{"ha":1224,"x_min":107,"x_max":1117,"o":"m 932 397 l 932 899 l 1117 899 l 1117 378 q 1091 222 1117 289 q 1018 110 1065 156 q 908 35 971 64 q 770 -6 844 7 q 614 -18 696 -18 q 453 -6 529 -18 q 313 35 376 7 q 204 110 250 64 q 133 222 158 156 q 107 378 107 289 l 107 899 l 292 899 l 292 397 q 333 237 292 292 q 448 162 375 182 q 614 142 521 142 q 776 162 704 142 q 890 237 847 182 q 932 397 932 292 m 517 1007 l 706 1226 l 944 1226 l 689 1007 l 517 1007 z "},"Û":{"ha":1224,"x_min":107,"x_max":1117,"o":"m 932 397 l 932 899 l 1117 899 l 1117 378 q 1091 222 1117 289 q 1018 110 1065 156 q 908 35 971 64 q 770 -6 844 7 q 614 -18 696 -18 q 453 -6 529 -18 q 313 35 376 7 q 204 110 250 64 q 133 222 158 156 q 107 378 107 289 l 107 899 l 292 899 l 292 397 q 333 237 292 292 q 448 162 375 182 q 614 142 521 142 q 776 162 704 142 q 890 237 847 182 q 932 397 932 292 m 708 1226 l 933 1007 l 738 1007 l 557 1190 l 671 1189 l 489 1007 l 293 1007 l 519 1226 l 708 1226 z "},"Ü":{"ha":1224,"x_min":107,"x_max":1117,"o":"m 932 397 l 932 899 l 1117 899 l 1117 378 q 1091 222 1117 289 q 1018 110 1065 156 q 908 35 971 64 q 770 -6 844 7 q 614 -18 696 -18 q 453 -6 529 -18 q 313 35 376 7 q 204 110 250 64 q 133 222 158 156 q 107 378 107 289 l 107 899 l 292 899 l 292 397 q 333 237 292 292 q 448 162 375 182 q 614 142 521 142 q 776 162 704 142 q 890 237 847 182 q 932 397 932 292 m 565 899 l 565 740 l 356 740 l 356 899 l 565 899 m 867 899 l 867 740 l 657 740 l 657 899 l 867 899 z "},"Ù":{"ha":1224,"x_min":107,"x_max":1117,"o":"m 932 397 l 932 899 l 1117 899 l 1117 378 q 1091 222 1117 289 q 1018 110 1065 156 q 908 35 971 64 q 770 -6 844 7 q 614 -18 696 -18 q 453 -6 529 -18 q 313 35 376 7 q 204 110 250 64 q 133 222 158 156 q 107 378 107 289 l 107 899 l 292 899 l 292 397 q 333 237 292 292 q 448 162 375 182 q 614 142 521 142 q 776 162 704 142 q 890 237 847 182 q 932 397 932 292 m 536 1007 l 281 1226 l 519 1226 l 708 1007 l 536 1007 z "},"Ű":{"ha":1224,"x_min":107,"x_max":1117,"o":"m 932 397 l 932 899 l 1117 899 l 1117 378 q 1091 222 1117 289 q 1018 110 1065 156 q 908 35 971 64 q 770 -6 844 7 q 614 -18 696 -18 q 453 -6 529 -18 q 313 35 376 7 q 204 110 250 64 q 133 222 158 156 q 107 378 107 289 l 107 899 l 292 899 l 292 397 q 333 237 292 292 q 448 162 375 182 q 614 142 521 142 q 776 162 704 142 q 890 237 847 182 q 932 397 932 292 m 682 919 l 850 1139 l 1039 1139 l 824 919 l 682 919 m 382 919 l 542 1139 l 731 1139 l 524 919 l 382 919 z "},"Ū":{"ha":1224,"x_min":107,"x_max":1117,"o":"m 932 397 l 932 899 l 1117 899 l 1117 378 q 1091 222 1117 289 q 1018 110 1065 156 q 908 35 971 64 q 770 -6 844 7 q 614 -18 696 -18 q 453 -6 529 -18 q 313 35 376 7 q 204 110 250 64 q 133 222 158 156 q 107 378 107 289 l 107 899 l 292 899 l 292 397 q 333 237 292 292 q 448 162 375 182 q 614 142 521 142 q 776 162 704 142 q 890 237 847 182 q 932 397 932 292 m 401 1018 l 401 1131 l 828 1131 l 828 1018 l 401 1018 z "},"Ų":{"ha":1224,"x_min":107,"x_max":1117,"o":"m 893 -317 q 668 -270 751 -317 q 585 -143 585 -224 q 621 -53 585 -87 q 718 3 657 -18 q 856 39 779 25 l 856 13 q 762 -40 799 -10 q 725 -115 725 -69 q 746 -172 725 -149 q 805 -208 767 -196 q 893 -221 843 -221 l 893 -317 m 932 397 l 932 899 l 1117 899 l 1117 378 q 1091 222 1117 289 q 1018 110 1065 156 q 908 35 971 64 q 770 -6 844 7 q 614 -18 696 -18 q 453 -6 529 -18 q 313 35 376 7 q 204 110 250 64 q 133 222 158 156 q 107 378 107 289 l 107 899 l 292 899 l 292 397 q 333 237 292 292 q 448 162 375 182 q 614 142 521 142 q 776 162 704 142 q 890 237 847 182 q 932 397 932 292 z "},"Ů":{"ha":1224,"x_min":107,"x_max":1117,"o":"m 932 397 l 932 899 l 1117 899 l 1117 378 q 1091 222 1117 289 q 1018 110 1065 156 q 908 35 971 64 q 770 -6 844 7 q 614 -18 696 -18 q 453 -6 529 -18 q 313 35 376 7 q 204 110 250 64 q 133 222 158 156 q 107 378 107 289 l 107 899 l 292 899 l 292 397 q 333 237 292 292 q 448 162 375 182 q 614 142 521 142 q 776 162 704 142 q 890 237 847 182 q 932 397 932 292 m 614 974 q 470 1016 524 974 q 417 1129 417 1058 q 470 1241 417 1199 q 614 1283 524 1283 q 757 1241 704 1283 q 810 1129 810 1199 q 757 1016 810 1058 q 614 974 704 974 m 614 1054 q 684 1073 663 1054 q 706 1129 706 1092 q 684 1184 706 1165 q 614 1203 663 1203 q 542 1184 564 1203 q 521 1129 521 1165 q 542 1073 521 1092 q 614 1054 564 1054 z "},"V":{"ha":1076,"x_min":28,"x_max":1049,"o":"m 425 0 l 28 899 l 232 899 l 572 88 l 508 88 l 847 899 l 1049 899 l 656 0 l 425 0 z "},"W":{"ha":1806,"x_min":28,"x_max":1778,"o":"m 407 0 l 28 899 l 232 899 l 553 103 l 493 101 l 799 899 l 1011 899 l 1317 101 l 1257 103 l 1578 899 l 1778 899 l 1403 0 l 1176 0 l 876 779 l 935 779 l 633 0 l 407 0 z "},"Ẃ":{"ha":1806,"x_min":28,"x_max":1778,"o":"m 407 0 l 28 899 l 232 899 l 553 103 l 493 101 l 799 899 l 1011 899 l 1317 101 l 1257 103 l 1578 899 l 1778 899 l 1403 0 l 1176 0 l 876 779 l 935 779 l 633 0 l 407 0 m 811 1029 l 1000 1249 l 1239 1249 l 983 1029 l 811 1029 z "},"Ŵ":{"ha":1806,"x_min":28,"x_max":1778,"o":"m 407 0 l 28 899 l 232 899 l 553 103 l 493 101 l 799 899 l 1011 899 l 1317 101 l 1257 103 l 1578 899 l 1778 899 l 1403 0 l 1176 0 l 876 779 l 935 779 l 633 0 l 407 0 m 1003 1249 l 1228 1029 l 1032 1029 l 851 1213 l 965 1211 l 783 1029 l 588 1029 l 814 1249 l 1003 1249 z "},"Ẅ":{"ha":1806,"x_min":28,"x_max":1778,"o":"m 407 0 l 28 899 l 232 899 l 553 103 l 493 101 l 799 899 l 1011 899 l 1317 101 l 1257 103 l 1578 899 l 1778 899 l 1403 0 l 1176 0 l 876 779 l 935 779 l 633 0 l 407 0 m 604 940 l 604 782 l 394 782 l 394 940 l 604 940 m 1414 940 l 1414 782 l 1204 782 l 1204 940 l 1414 940 z "},"Ẁ":{"ha":1806,"x_min":28,"x_max":1778,"o":"m 407 0 l 28 899 l 232 899 l 553 103 l 493 101 l 799 899 l 1011 899 l 1317 101 l 1257 103 l 1578 899 l 1778 899 l 1403 0 l 1176 0 l 876 779 l 935 779 l 633 0 l 407 0 m 831 1029 l 575 1249 l 814 1249 l 1003 1029 l 831 1029 z "},"X":{"ha":1083,"x_min":54,"x_max":1029,"o":"m 800 899 l 1025 899 l 600 403 l 594 397 l 279 0 l 54 0 l 492 521 l 496 525 l 800 899 m 293 899 l 593 522 l 596 518 l 1029 0 l 794 0 l 483 403 l 479 406 l 68 899 l 293 899 z "},"Y":{"ha":1028,"x_min":26,"x_max":1001,"o":"m 1001 899 l 607 283 l 607 0 l 421 0 l 421 283 l 26 899 l 240 899 l 572 361 l 461 361 l 788 899 l 1001 899 z "},"Ý":{"ha":1028,"x_min":26,"x_max":1001,"o":"m 1001 899 l 607 283 l 607 0 l 421 0 l 421 283 l 26 899 l 240 899 l 572 361 l 461 361 l 788 899 l 1001 899 m 417 1007 l 606 1226 l 844 1226 l 589 1007 l 417 1007 z "},"Ŷ":{"ha":1028,"x_min":26,"x_max":1001,"o":"m 1001 899 l 607 283 l 607 0 l 421 0 l 421 283 l 26 899 l 240 899 l 572 361 l 461 361 l 788 899 l 1001 899 m 608 1226 l 833 1007 l 638 1007 l 457 1190 l 571 1189 l 389 1007 l 193 1007 l 419 1226 l 608 1226 z "},"Ÿ":{"ha":1028,"x_min":26,"x_max":1001,"o":"m 1001 899 l 607 283 l 607 0 l 421 0 l 421 283 l 26 899 l 240 899 l 572 361 l 461 361 l 788 899 l 1001 899 m 468 1167 l 468 1008 l 258 1008 l 258 1167 l 468 1167 m 769 1167 l 769 1008 l 560 1008 l 560 1167 l 769 1167 z "},"Ỳ":{"ha":1028,"x_min":26,"x_max":1001,"o":"m 1001 899 l 607 283 l 607 0 l 421 0 l 421 283 l 26 899 l 240 899 l 572 361 l 461 361 l 788 899 l 1001 899 m 436 1007 l 181 1226 l 419 1226 l 608 1007 l 436 1007 z "},"Z":{"ha":1140,"x_min":88,"x_max":1053,"o":"m 88 899 l 1053 899 l 1053 744 l 251 103 l 235 154 l 1053 154 l 1053 0 l 88 0 l 88 154 l 889 796 l 906 744 l 88 744 l 88 899 z "},"Ź":{"ha":1140,"x_min":88,"x_max":1053,"o":"m 88 899 l 1053 899 l 1053 744 l 251 103 l 235 154 l 1053 154 l 1053 0 l 88 0 l 88 154 l 889 796 l 906 744 l 88 744 l 88 899 m 474 1029 l 663 1249 l 901 1249 l 646 1029 l 474 1029 z "},"Ž":{"ha":1140,"x_min":88,"x_max":1053,"o":"m 88 899 l 1053 899 l 1053 744 l 251 103 l 235 154 l 1053 154 l 1053 0 l 88 0 l 88 154 l 889 796 l 906 744 l 88 744 l 88 899 m 632 1068 l 518 1068 l 694 1249 l 890 1249 l 669 1029 l 481 1029 l 260 1249 l 456 1249 l 632 1068 z "},"Ż":{"ha":1140,"x_min":88,"x_max":1053,"o":"m 88 899 l 1053 899 l 1053 744 l 251 103 l 235 154 l 1053 154 l 1053 0 l 88 0 l 88 154 l 889 796 l 906 744 l 88 744 l 88 899 m 676 1190 l 676 1032 l 467 1032 l 467 1190 l 676 1190 z "},"a":{"ha":1004,"x_min":50,"x_max":924,"o":"m 419 -15 q 233 30 317 -15 q 99 156 149 75 q 50 344 50 238 q 100 535 50 454 q 235 660 150 615 q 429 706 321 706 q 622 658 549 706 q 728 528 694 610 q 761 344 761 446 q 742 220 761 283 q 682 103 722 157 q 576 17 642 50 q 419 -15 511 -15 m 478 124 q 619 151 560 124 q 711 229 679 179 q 743 344 743 279 q 710 465 743 415 q 619 540 678 514 q 478 565 560 565 q 299 505 363 565 q 235 344 235 444 q 265 228 235 278 q 351 151 296 179 q 478 124 406 124 m 743 690 l 924 690 l 924 0 l 756 0 q 752 27 756 0 q 746 96 749 54 q 743 178 743 138 l 743 690 z "},"á":{"ha":1004,"x_min":50,"x_max":924,"o":"m 419 -15 q 233 30 317 -15 q 99 156 149 75 q 50 344 50 238 q 100 535 50 454 q 235 660 150 615 q 429 706 321 706 q 622 658 549 706 q 728 528 694 610 q 761 344 761 446 q 742 220 761 283 q 682 103 722 157 q 576 17 642 50 q 419 -15 511 -15 m 478 124 q 619 151 560 124 q 711 229 679 179 q 743 344 743 279 q 710 465 743 415 q 619 540 678 514 q 478 565 560 565 q 299 505 363 565 q 235 344 235 444 q 265 228 235 278 q 351 151 296 179 q 478 124 406 124 m 743 690 l 924 690 l 924 0 l 756 0 q 752 27 756 0 q 746 96 749 54 q 743 178 743 138 l 743 690 m 381 835 l 569 1054 l 808 1054 l 553 835 l 381 835 z "},"ă":{"ha":1004,"x_min":50,"x_max":924,"o":"m 419 -15 q 233 30 317 -15 q 99 156 149 75 q 50 344 50 238 q 100 535 50 454 q 235 660 150 615 q 429 706 321 706 q 622 658 549 706 q 728 528 694 610 q 761 344 761 446 q 742 220 761 283 q 682 103 722 157 q 576 17 642 50 q 419 -15 511 -15 m 478 124 q 619 151 560 124 q 711 229 679 179 q 743 344 743 279 q 710 465 743 415 q 619 540 678 514 q 478 565 560 565 q 299 505 363 565 q 235 344 235 444 q 265 228 235 278 q 351 151 296 179 q 478 124 406 124 m 743 690 l 924 690 l 924 0 l 756 0 q 752 27 756 0 q 746 96 749 54 q 743 178 743 138 l 743 690 m 769 1014 q 728 906 761 954 q 633 831 694 858 q 478 804 571 804 q 324 831 385 804 q 229 906 263 858 q 186 1014 196 954 l 318 1014 q 367 941 329 967 q 478 915 406 915 q 590 941 551 915 q 638 1014 628 967 l 769 1014 z "},"â":{"ha":1004,"x_min":50,"x_max":924,"o":"m 419 -15 q 233 30 317 -15 q 99 156 149 75 q 50 344 50 238 q 100 535 50 454 q 235 660 150 615 q 429 706 321 706 q 622 658 549 706 q 728 528 694 610 q 761 344 761 446 q 742 220 761 283 q 682 103 722 157 q 576 17 642 50 q 419 -15 511 -15 m 478 124 q 619 151 560 124 q 711 229 679 179 q 743 344 743 279 q 710 465 743 415 q 619 540 678 514 q 478 565 560 565 q 299 505 363 565 q 235 344 235 444 q 265 228 235 278 q 351 151 296 179 q 478 124 406 124 m 743 690 l 924 690 l 924 0 l 756 0 q 752 27 756 0 q 746 96 749 54 q 743 178 743 138 l 743 690 m 572 1054 l 797 835 l 601 835 l 421 1018 l 535 1017 l 353 835 l 157 835 l 383 1054 l 572 1054 z "},"ä":{"ha":1004,"x_min":50,"x_max":924,"o":"m 419 -15 q 233 30 317 -15 q 99 156 149 75 q 50 344 50 238 q 100 535 50 454 q 235 660 150 615 q 429 706 321 706 q 622 658 549 706 q 728 528 694 610 q 761 344 761 446 q 742 220 761 283 q 682 103 722 157 q 576 17 642 50 q 419 -15 511 -15 m 478 124 q 619 151 560 124 q 711 229 679 179 q 743 344 743 279 q 710 465 743 415 q 619 540 678 514 q 478 565 560 565 q 299 505 363 565 q 235 344 235 444 q 265 228 235 278 q 351 151 296 179 q 478 124 406 124 m 743 690 l 924 690 l 924 0 l 756 0 q 752 27 756 0 q 746 96 749 54 q 743 178 743 138 l 743 690 m 432 994 l 432 836 l 222 836 l 222 994 l 432 994 m 733 994 l 733 836 l 524 836 l 524 994 l 733 994 z "},"à":{"ha":1004,"x_min":50,"x_max":924,"o":"m 419 -15 q 233 30 317 -15 q 99 156 149 75 q 50 344 50 238 q 100 535 50 454 q 235 660 150 615 q 429 706 321 706 q 622 658 549 706 q 728 528 694 610 q 761 344 761 446 q 742 220 761 283 q 682 103 722 157 q 576 17 642 50 q 419 -15 511 -15 m 478 124 q 619 151 560 124 q 711 229 679 179 q 743 344 743 279 q 710 465 743 415 q 619 540 678 514 q 478 565 560 565 q 299 505 363 565 q 235 344 235 444 q 265 228 235 278 q 351 151 296 179 q 478 124 406 124 m 743 690 l 924 690 l 924 0 l 756 0 q 752 27 756 0 q 746 96 749 54 q 743 178 743 138 l 743 690 m 400 835 l 144 1054 l 383 1054 l 572 835 l 400 835 z "},"ā":{"ha":1004,"x_min":50,"x_max":924,"o":"m 419 -15 q 233 30 317 -15 q 99 156 149 75 q 50 344 50 238 q 100 535 50 454 q 235 660 150 615 q 429 706 321 706 q 622 658 549 706 q 728 528 694 610 q 761 344 761 446 q 742 220 761 283 q 682 103 722 157 q 576 17 642 50 q 419 -15 511 -15 m 478 124 q 619 151 560 124 q 711 229 679 179 q 743 344 743 279 q 710 465 743 415 q 619 540 678 514 q 478 565 560 565 q 299 505 363 565 q 235 344 235 444 q 265 228 235 278 q 351 151 296 179 q 478 124 406 124 m 743 690 l 924 690 l 924 0 l 756 0 q 752 27 756 0 q 746 96 749 54 q 743 178 743 138 l 743 690 m 265 846 l 265 958 l 692 958 l 692 846 l 265 846 z "},"ą":{"ha":1004,"x_min":50,"x_max":924,"o":"m 892 -310 q 667 -263 750 -310 q 583 -136 583 -217 q 619 -47 583 -81 q 717 6 656 -12 q 854 31 778 24 l 854 0 q 760 -36 797 -10 q 724 -110 724 -62 q 744 -166 724 -143 q 803 -201 765 -189 q 892 -214 842 -214 l 892 -310 m 419 -15 q 233 30 317 -15 q 99 156 149 75 q 50 344 50 238 q 100 535 50 454 q 235 660 150 615 q 429 706 321 706 q 622 658 549 706 q 728 528 694 610 q 761 344 761 446 q 742 220 761 283 q 682 103 722 157 q 576 17 642 50 q 419 -15 511 -15 m 478 124 q 619 151 560 124 q 711 229 679 179 q 743 344 743 279 q 710 465 743 415 q 619 540 678 514 q 478 565 560 565 q 299 505 363 565 q 235 344 235 444 q 265 228 235 278 q 351 151 296 179 q 478 124 406 124 m 743 690 l 924 690 l 924 0 l 756 0 q 752 27 756 0 q 746 96 749 54 q 743 178 743 138 l 743 690 z "},"å":{"ha":1004,"x_min":50,"x_max":924,"o":"m 419 -15 q 233 30 317 -15 q 99 156 149 75 q 50 344 50 238 q 100 535 50 454 q 235 660 150 615 q 429 706 321 706 q 622 658 549 706 q 728 528 694 610 q 761 344 761 446 q 742 220 761 283 q 682 103 722 157 q 576 17 642 50 q 419 -15 511 -15 m 478 124 q 619 151 560 124 q 711 229 679 179 q 743 344 743 279 q 710 465 743 415 q 619 540 678 514 q 478 565 560 565 q 299 505 363 565 q 235 344 235 444 q 265 228 235 278 q 351 151 296 179 q 478 124 406 124 m 743 690 l 924 690 l 924 0 l 756 0 q 752 27 756 0 q 746 96 749 54 q 743 178 743 138 l 743 690 m 478 801 q 334 844 388 801 q 281 957 281 886 q 334 1069 281 1026 q 478 1111 388 1111 q 621 1069 568 1111 q 674 957 674 1026 q 621 844 674 886 q 478 801 568 801 m 478 882 q 548 901 526 882 q 569 957 569 919 q 548 1012 569 993 q 478 1031 526 1031 q 406 1012 428 1031 q 385 957 385 993 q 406 901 385 919 q 478 882 428 882 z "},"ã":{"ha":1004,"x_min":50,"x_max":924,"o":"m 419 -15 q 233 30 317 -15 q 99 156 149 75 q 50 344 50 238 q 100 535 50 454 q 235 660 150 615 q 429 706 321 706 q 622 658 549 706 q 728 528 694 610 q 761 344 761 446 q 742 220 761 283 q 682 103 722 157 q 576 17 642 50 q 419 -15 511 -15 m 478 124 q 619 151 560 124 q 711 229 679 179 q 743 344 743 279 q 710 465 743 415 q 619 540 678 514 q 478 565 560 565 q 299 505 363 565 q 235 344 235 444 q 265 228 235 278 q 351 151 296 179 q 478 124 406 124 m 743 690 l 924 690 l 924 0 l 756 0 q 752 27 756 0 q 746 96 749 54 q 743 178 743 138 l 743 690 m 599 833 q 525 846 557 833 q 465 876 493 858 q 410 906 438 893 q 349 918 382 918 q 302 906 319 918 q 275 874 285 893 q 257 835 265 854 l 129 835 q 166 930 140 886 q 233 1001 192 974 q 332 1028 275 1028 q 408 1015 375 1028 q 469 985 440 1003 q 524 956 497 968 q 581 943 550 943 q 628 956 611 943 q 656 989 646 969 q 674 1026 667 1008 l 803 1026 q 766 932 792 976 q 699 860 740 888 q 599 833 657 833 z "},"æ":{"ha":1758,"x_min":50,"x_max":1714,"o":"m 419 -15 q 233 30 317 -15 q 99 156 149 75 q 50 344 50 238 q 100 535 50 454 q 235 660 150 615 q 429 706 321 706 q 622 658 549 706 q 728 528 694 610 q 761 344 761 446 q 742 220 761 283 q 682 103 722 157 q 576 17 642 50 q 419 -15 511 -15 m 478 124 q 619 151 560 124 q 711 229 679 179 q 743 344 743 279 q 710 465 743 415 q 619 540 678 514 q 478 565 560 565 q 299 505 363 565 q 235 344 235 444 q 265 228 235 278 q 351 151 296 179 q 478 124 406 124 m 743 690 l 924 690 l 924 0 l 756 0 q 747 83 751 32 q 743 178 743 133 l 743 690 m 1529 226 l 1704 226 q 1645 100 1693 156 q 1515 13 1597 44 q 1315 -19 1433 -19 q 1082 23 1183 -19 q 924 146 981 65 q 867 340 867 226 q 922 535 867 454 q 1077 660 978 617 q 1310 703 1176 703 q 1536 660 1446 703 q 1670 530 1626 617 q 1707 308 1714 443 l 1049 308 q 1088 213 1056 256 q 1177 144 1121 169 q 1311 119 1233 119 q 1455 149 1397 119 q 1529 226 1513 179 m 1301 565 q 1139 522 1201 565 q 1058 414 1076 478 l 1528 414 q 1462 524 1521 483 q 1301 565 1403 565 z "},"b":{"ha":1033,"x_min":111,"x_max":983,"o":"m 615 -15 q 458 17 524 -15 q 353 103 393 50 q 293 220 313 157 q 274 344 274 283 q 292 486 274 421 q 351 601 311 551 q 457 678 392 650 q 615 706 522 706 q 805 660 722 706 q 935 535 888 615 q 983 344 983 454 q 935 156 983 238 q 803 30 886 75 q 615 -15 719 -15 m 557 124 q 685 151 631 124 q 769 228 739 179 q 799 344 799 278 q 735 506 799 444 q 557 567 672 567 q 417 540 476 567 q 324 465 357 514 q 292 344 292 415 q 324 229 292 279 q 415 151 356 179 q 557 124 475 124 m 292 968 l 292 178 q 288 83 292 133 q 279 0 283 32 l 111 0 l 111 968 l 292 968 z "},"c":{"ha":953,"x_min":50,"x_max":903,"o":"m 903 272 q 845 117 896 182 q 706 17 794 51 q 494 -17 617 -17 q 266 24 367 -17 q 108 145 165 65 q 50 343 50 225 q 108 542 50 461 q 266 664 165 622 q 494 706 367 706 q 704 672 617 706 q 842 574 792 638 q 901 419 893 510 l 736 419 q 649 528 713 489 q 494 567 585 567 q 363 542 422 567 q 269 467 304 517 q 233 343 233 418 q 268 220 233 269 q 363 147 303 171 q 494 122 422 122 q 653 161 592 122 q 738 272 715 200 l 903 272 z "},"ć":{"ha":953,"x_min":50,"x_max":903,"o":"m 903 272 q 845 117 896 182 q 706 17 794 51 q 494 -17 617 -17 q 266 24 367 -17 q 108 145 165 65 q 50 343 50 225 q 108 542 50 461 q 266 664 165 622 q 494 706 367 706 q 704 672 617 706 q 842 574 792 638 q 901 419 893 510 l 736 419 q 649 528 713 489 q 494 567 585 567 q 363 542 422 567 q 269 467 304 517 q 233 343 233 418 q 268 220 233 269 q 363 147 303 171 q 494 122 422 122 q 653 161 592 122 q 738 272 715 200 l 903 272 m 388 835 l 576 1054 l 815 1054 l 560 835 l 388 835 z "},"č":{"ha":953,"x_min":50,"x_max":903,"o":"m 903 272 q 845 117 896 182 q 706 17 794 51 q 494 -17 617 -17 q 266 24 367 -17 q 108 145 165 65 q 50 343 50 225 q 108 542 50 461 q 266 664 165 622 q 494 706 367 706 q 704 672 617 706 q 842 574 792 638 q 901 419 893 510 l 736 419 q 649 528 713 489 q 494 567 585 567 q 363 542 422 567 q 269 467 304 517 q 233 343 233 418 q 268 220 233 269 q 363 147 303 171 q 494 122 422 122 q 653 161 592 122 q 738 272 715 200 l 903 272 m 546 874 l 432 874 l 608 1054 l 804 1054 l 583 835 l 394 835 l 174 1054 l 369 1054 l 546 874 z "},"ç":{"ha":953,"x_min":50,"x_max":903,"o":"m 361 -175 q 370 -196 364 -182 q 393 -221 376 -210 q 442 -232 410 -232 q 497 -215 481 -232 q 513 -176 513 -199 q 506 -153 513 -167 q 479 -125 500 -139 q 411 -103 458 -111 l 524 -64 q 594 -87 563 -71 q 646 -131 626 -104 q 665 -200 665 -158 q 610 -302 665 -258 q 446 -346 556 -346 q 327 -322 376 -346 q 253 -258 278 -297 q 231 -175 228 -218 l 361 -175 m 411 10 l 563 10 l 563 -112 l 411 -103 l 411 10 m 903 272 q 845 117 896 182 q 706 17 794 51 q 494 -17 617 -17 q 266 24 367 -17 q 108 145 165 65 q 50 343 50 225 q 108 542 50 461 q 266 664 165 622 q 494 706 367 706 q 704 672 617 706 q 842 574 792 638 q 901 419 893 510 l 736 419 q 649 528 713 489 q 494 567 585 567 q 363 542 422 567 q 269 467 304 517 q 233 343 233 418 q 268 220 233 269 q 363 147 303 171 q 494 122 422 122 q 653 161 592 122 q 738 272 715 200 l 903 272 z "},"ċ":{"ha":953,"x_min":50,"x_max":903,"o":"m 903 272 q 845 117 896 182 q 706 17 794 51 q 494 -17 617 -17 q 266 24 367 -17 q 108 145 165 65 q 50 343 50 225 q 108 542 50 461 q 266 664 165 622 q 494 706 367 706 q 704 672 617 706 q 842 574 792 638 q 901 419 893 510 l 736 419 q 649 528 713 489 q 494 567 585 567 q 363 542 422 567 q 269 467 304 517 q 233 343 233 418 q 268 220 233 269 q 363 147 303 171 q 494 122 422 122 q 653 161 592 122 q 738 272 715 200 l 903 272 m 590 996 l 590 838 l 381 838 l 381 996 l 590 996 z "},"d":{"ha":1035,"x_min":50,"x_max":924,"o":"m 419 -15 q 231 30 315 -15 q 99 156 147 75 q 50 344 50 238 q 98 535 50 454 q 229 660 146 615 q 419 706 313 706 q 578 678 513 706 q 683 601 643 650 q 742 486 724 551 q 761 344 761 421 q 742 220 761 283 q 682 103 722 157 q 576 17 642 50 q 419 -15 511 -15 m 478 124 q 619 151 560 124 q 711 229 679 179 q 743 344 743 279 q 710 465 743 415 q 619 540 678 514 q 478 567 560 567 q 299 506 363 567 q 235 344 235 444 q 265 228 235 278 q 351 151 296 179 q 478 124 406 124 m 743 968 l 924 968 l 924 0 l 756 0 q 747 83 751 32 q 743 178 743 133 l 743 968 z "},"ð":{"ha":961,"x_min":50,"x_max":901,"o":"m 486 124 q 587 139 540 124 q 668 183 633 154 q 723 251 703 211 q 743 342 743 292 q 722 433 743 393 q 665 500 701 472 q 582 542 629 528 q 482 556 535 556 q 301 497 367 556 q 235 339 235 438 q 303 181 235 238 q 486 124 372 124 m 732 985 l 808 903 l 624 738 l 551 821 l 732 985 m 224 853 l 251 985 q 485 917 385 958 q 657 825 585 876 q 776 715 729 774 q 851 597 824 657 q 890 477 879 536 q 901 364 901 418 q 881 239 901 297 q 824 134 861 181 q 734 53 786 88 q 617 1 682 19 q 478 -17 553 -17 q 249 28 344 -17 q 101 156 153 74 q 50 344 50 238 q 77 491 50 426 q 153 601 104 556 q 269 669 203 646 q 411 693 335 693 q 568 666 501 693 q 678 590 635 639 q 743 475 722 540 l 735 483 q 687 601 721 546 q 592 704 653 657 q 440 789 531 751 q 224 853 350 826 z "},"ď":{"ha":1035,"x_min":50,"x_max":1208,"o":"m 419 -15 q 231 30 315 -15 q 99 156 147 75 q 50 344 50 238 q 98 535 50 454 q 229 660 146 615 q 419 706 313 706 q 578 678 513 706 q 683 601 643 650 q 742 486 724 551 q 761 344 761 421 q 742 220 761 283 q 682 103 722 157 q 576 17 642 50 q 419 -15 511 -15 m 478 124 q 619 151 560 124 q 711 229 679 179 q 743 344 743 279 q 710 465 743 415 q 619 540 678 514 q 478 567 560 567 q 299 506 363 567 q 235 344 235 444 q 265 228 235 278 q 351 151 296 179 q 478 124 406 124 m 743 968 l 924 968 l 924 0 l 756 0 q 747 83 751 32 q 743 178 743 133 l 743 968 m 1150 676 l 1054 676 l 996 849 l 996 968 l 1208 968 l 1208 849 l 1150 676 z "},"đ":{"ha":1035,"x_min":50,"x_max":1014,"o":"m 419 -15 q 231 30 315 -15 q 99 156 147 75 q 50 344 50 238 q 98 535 50 454 q 229 660 146 615 q 419 706 313 706 q 578 678 513 706 q 683 601 643 650 q 742 486 724 551 q 761 344 761 421 q 742 220 761 283 q 682 103 722 157 q 576 17 642 50 q 419 -15 511 -15 m 478 124 q 619 151 560 124 q 711 229 679 179 q 743 344 743 279 q 710 465 743 415 q 619 540 678 514 q 478 567 560 567 q 299 506 363 567 q 235 344 235 444 q 265 228 235 278 q 351 151 296 179 q 478 124 406 124 m 743 968 l 924 968 l 924 0 l 756 0 q 747 83 751 32 q 743 178 743 133 l 743 968 m 515 882 l 1014 882 l 1014 786 l 515 786 l 515 882 z "},"e":{"ha":942,"x_min":50,"x_max":897,"o":"m 713 229 l 888 229 q 828 103 876 158 q 699 15 781 47 q 499 -17 617 -17 q 265 26 367 -17 q 107 149 164 68 q 50 343 50 229 q 106 538 50 457 q 260 663 161 619 q 493 706 360 706 q 719 663 629 706 q 853 533 810 619 q 890 311 897 446 l 232 311 q 272 215 239 258 q 360 147 304 172 q 494 122 417 122 q 638 152 581 122 q 713 229 696 182 m 485 568 q 322 524 385 568 q 242 417 260 481 l 711 417 q 645 527 704 486 q 485 568 586 568 z "},"é":{"ha":942,"x_min":50,"x_max":897,"o":"m 713 229 l 888 229 q 828 103 876 158 q 699 15 781 47 q 499 -17 617 -17 q 265 26 367 -17 q 107 149 164 68 q 50 343 50 229 q 106 538 50 457 q 260 663 161 619 q 493 706 360 706 q 719 663 629 706 q 853 533 810 619 q 890 311 897 446 l 232 311 q 272 215 239 258 q 360 147 304 172 q 494 122 417 122 q 638 152 581 122 q 713 229 696 182 m 485 568 q 322 524 385 568 q 242 417 260 481 l 711 417 q 645 527 704 486 q 485 568 586 568 m 392 835 l 581 1054 l 819 1054 l 564 835 l 392 835 z "},"ě":{"ha":942,"x_min":50,"x_max":897,"o":"m 713 229 l 888 229 q 828 103 876 158 q 699 15 781 47 q 499 -17 617 -17 q 265 26 367 -17 q 107 149 164 68 q 50 343 50 229 q 106 538 50 457 q 260 663 161 619 q 493 706 360 706 q 719 663 629 706 q 853 533 810 619 q 890 311 897 446 l 232 311 q 272 215 239 258 q 360 147 304 172 q 494 122 417 122 q 638 152 581 122 q 713 229 696 182 m 485 568 q 322 524 385 568 q 242 417 260 481 l 711 417 q 645 527 704 486 q 485 568 586 568 m 550 874 l 436 874 l 613 1054 l 808 1054 l 588 835 l 399 835 l 178 1054 l 374 1054 l 550 874 z "},"ê":{"ha":942,"x_min":50,"x_max":897,"o":"m 713 229 l 888 229 q 828 103 876 158 q 699 15 781 47 q 499 -17 617 -17 q 265 26 367 -17 q 107 149 164 68 q 50 343 50 229 q 106 538 50 457 q 260 663 161 619 q 493 706 360 706 q 719 663 629 706 q 853 533 810 619 q 890 311 897 446 l 232 311 q 272 215 239 258 q 360 147 304 172 q 494 122 417 122 q 638 152 581 122 q 713 229 696 182 m 485 568 q 322 524 385 568 q 242 417 260 481 l 711 417 q 645 527 704 486 q 485 568 586 568 m 583 1054 l 808 835 l 613 835 l 432 1018 l 546 1017 l 364 835 l 168 835 l 394 1054 l 583 1054 z "},"ë":{"ha":942,"x_min":50,"x_max":897,"o":"m 713 229 l 888 229 q 828 103 876 158 q 699 15 781 47 q 499 -17 617 -17 q 265 26 367 -17 q 107 149 164 68 q 50 343 50 229 q 106 538 50 457 q 260 663 161 619 q 493 706 360 706 q 719 663 629 706 q 853 533 810 619 q 890 311 897 446 l 232 311 q 272 215 239 258 q 360 147 304 172 q 494 122 417 122 q 638 152 581 122 q 713 229 696 182 m 485 568 q 322 524 385 568 q 242 417 260 481 l 711 417 q 645 527 704 486 q 485 568 586 568 m 443 994 l 443 836 l 233 836 l 233 994 l 443 994 m 744 994 l 744 836 l 535 836 l 535 994 l 744 994 z "},"ė":{"ha":942,"x_min":50,"x_max":897,"o":"m 713 229 l 888 229 q 828 103 876 158 q 699 15 781 47 q 499 -17 617 -17 q 265 26 367 -17 q 107 149 164 68 q 50 343 50 229 q 106 538 50 457 q 260 663 161 619 q 493 706 360 706 q 719 663 629 706 q 853 533 810 619 q 890 311 897 446 l 232 311 q 272 215 239 258 q 360 147 304 172 q 494 122 417 122 q 638 152 581 122 q 713 229 696 182 m 485 568 q 322 524 385 568 q 242 417 260 481 l 711 417 q 645 527 704 486 q 485 568 586 568 m 594 996 l 594 838 l 385 838 l 385 996 l 594 996 z "},"è":{"ha":942,"x_min":50,"x_max":897,"o":"m 713 229 l 888 229 q 828 103 876 158 q 699 15 781 47 q 499 -17 617 -17 q 265 26 367 -17 q 107 149 164 68 q 50 343 50 229 q 106 538 50 457 q 260 663 161 619 q 493 706 360 706 q 719 663 629 706 q 853 533 810 619 q 890 311 897 446 l 232 311 q 272 215 239 258 q 360 147 304 172 q 494 122 417 122 q 638 152 581 122 q 713 229 696 182 m 485 568 q 322 524 385 568 q 242 417 260 481 l 711 417 q 645 527 704 486 q 485 568 586 568 m 411 835 l 156 1054 l 394 1054 l 583 835 l 411 835 z "},"ē":{"ha":942,"x_min":50,"x_max":897,"o":"m 713 229 l 888 229 q 828 103 876 158 q 699 15 781 47 q 499 -17 617 -17 q 265 26 367 -17 q 107 149 164 68 q 50 343 50 229 q 106 538 50 457 q 260 663 161 619 q 493 706 360 706 q 719 663 629 706 q 853 533 810 619 q 890 311 897 446 l 232 311 q 272 215 239 258 q 360 147 304 172 q 494 122 417 122 q 638 152 581 122 q 713 229 696 182 m 485 568 q 322 524 385 568 q 242 417 260 481 l 711 417 q 645 527 704 486 q 485 568 586 568 m 276 846 l 276 958 l 703 958 l 703 846 l 276 846 z "},"ę":{"ha":942,"x_min":50,"x_max":897,"o":"m 771 -310 q 544 -263 628 -310 q 461 -136 461 -217 q 497 -45 461 -81 q 595 14 533 -10 q 733 60 657 38 l 733 29 q 639 -32 676 -1 q 601 -110 601 -62 q 623 -167 601 -143 q 683 -203 644 -190 q 771 -215 721 -215 l 771 -310 m 713 229 l 888 229 q 828 103 876 158 q 699 15 781 47 q 499 -17 617 -17 q 265 26 367 -17 q 107 149 164 68 q 50 343 50 229 q 106 538 50 457 q 260 663 161 619 q 493 706 360 706 q 719 663 629 706 q 853 533 810 619 q 890 311 897 446 l 232 311 q 272 215 239 258 q 360 147 304 172 q 494 122 417 122 q 638 152 581 122 q 713 229 696 182 m 485 568 q 322 524 385 568 q 242 417 260 481 l 711 417 q 645 527 704 486 q 485 568 586 568 z "},"f":{"ha":619,"x_min":35,"x_max":600,"o":"m 35 678 l 590 678 l 590 540 l 35 540 l 35 678 m 457 968 l 600 968 l 600 822 l 500 822 q 431 814 460 824 q 386 778 401 804 q 371 706 371 753 l 371 0 l 190 0 l 190 728 q 221 865 190 811 q 311 943 251 918 q 457 968 371 968 z "},"g":{"ha":932,"x_min":50,"x_max":897,"o":"m 428 106 q 230 140 315 106 q 97 240 144 174 q 50 401 50 307 q 96 563 50 494 q 227 668 142 631 q 428 706 313 706 q 490 701 460 706 q 549 690 519 697 l 897 689 l 897 553 q 753 570 826 551 q 625 611 681 589 l 621 621 q 710 566 668 599 q 777 491 751 533 q 803 393 803 449 q 757 238 803 303 q 627 140 711 174 q 428 106 543 106 m 660 -285 l 660 -251 q 619 -162 660 -187 q 507 -137 578 -137 l 292 -137 q 187 -128 229 -137 q 119 -100 144 -118 q 83 -58 94 -82 q 72 -6 72 -33 q 108 78 72 50 q 206 117 144 107 q 340 121 267 126 l 428 106 q 298 91 340 103 q 256 44 256 79 q 272 12 256 24 q 319 0 289 0 l 546 0 q 705 -20 639 0 q 806 -88 771 -40 q 840 -219 840 -136 l 840 -285 l 660 -285 m 428 236 q 533 256 488 236 q 603 312 578 275 q 628 400 628 349 q 603 490 628 453 q 533 548 578 528 q 428 568 489 568 q 322 548 368 568 q 251 490 276 528 q 226 400 226 453 q 251 312 226 349 q 322 256 276 275 q 428 236 367 236 z "},"ğ":{"ha":932,"x_min":50,"x_max":897,"o":"m 428 106 q 230 140 315 106 q 97 240 144 174 q 50 401 50 307 q 96 563 50 494 q 227 668 142 631 q 428 706 313 706 q 490 701 460 706 q 549 690 519 697 l 897 689 l 897 553 q 753 570 826 551 q 625 611 681 589 l 621 621 q 710 566 668 599 q 777 491 751 533 q 803 393 803 449 q 757 238 803 303 q 627 140 711 174 q 428 106 543 106 m 660 -285 l 660 -251 q 619 -162 660 -187 q 507 -137 578 -137 l 292 -137 q 187 -128 229 -137 q 119 -100 144 -118 q 83 -58 94 -82 q 72 -6 72 -33 q 108 78 72 50 q 206 117 144 107 q 340 121 267 126 l 428 106 q 298 91 340 103 q 256 44 256 79 q 272 12 256 24 q 319 0 289 0 l 546 0 q 705 -20 639 0 q 806 -88 771 -40 q 840 -219 840 -136 l 840 -285 l 660 -285 m 428 236 q 533 256 488 236 q 603 312 578 275 q 628 400 628 349 q 603 490 628 453 q 533 548 578 528 q 428 568 489 568 q 322 548 368 568 q 251 490 276 528 q 226 400 226 453 q 251 312 226 349 q 322 256 276 275 q 428 236 367 236 m 719 1014 q 678 906 711 954 q 583 831 644 858 q 428 804 521 804 q 274 831 335 804 q 179 906 213 858 q 136 1014 146 954 l 268 1014 q 317 941 279 967 q 428 915 356 915 q 540 941 501 915 q 588 1014 578 967 l 719 1014 z "},"ģ":{"ha":932,"x_min":50,"x_max":897,"o":"m 428 106 q 230 140 315 106 q 97 240 144 174 q 50 401 50 307 q 96 563 50 494 q 227 668 142 631 q 428 706 313 706 q 490 701 460 706 q 549 690 519 697 l 897 689 l 897 553 q 753 570 826 551 q 625 611 681 589 l 621 621 q 710 566 668 599 q 777 491 751 533 q 803 393 803 449 q 757 238 803 303 q 627 140 711 174 q 428 106 543 106 m 660 -285 l 660 -251 q 619 -162 660 -187 q 507 -137 578 -137 l 292 -137 q 187 -128 229 -137 q 119 -100 144 -118 q 83 -58 94 -82 q 72 -6 72 -33 q 108 78 72 50 q 206 117 144 107 q 340 121 267 126 l 428 106 q 298 91 340 103 q 256 44 256 79 q 272 12 256 24 q 319 0 289 0 l 546 0 q 705 -20 639 0 q 806 -88 771 -40 q 840 -219 840 -136 l 840 -285 l 660 -285 m 428 236 q 533 256 488 236 q 603 312 578 275 q 628 400 628 349 q 603 490 628 453 q 533 548 578 528 q 428 568 489 568 q 322 548 368 568 q 251 490 276 528 q 226 400 226 453 q 251 312 226 349 q 322 256 276 275 q 428 236 367 236 m 504 1054 l 521 1007 q 475 977 499 997 q 450 936 451 957 l 535 921 l 535 793 l 322 793 l 322 865 q 369 988 322 940 q 504 1054 415 1036 z "},"ġ":{"ha":932,"x_min":50,"x_max":897,"o":"m 428 106 q 230 140 315 106 q 97 240 144 174 q 50 401 50 307 q 96 563 50 494 q 227 668 142 631 q 428 706 313 706 q 490 701 460 706 q 549 690 519 697 l 897 689 l 897 553 q 753 570 826 551 q 625 611 681 589 l 621 621 q 710 566 668 599 q 777 491 751 533 q 803 393 803 449 q 757 238 803 303 q 627 140 711 174 q 428 106 543 106 m 660 -285 l 660 -251 q 619 -162 660 -187 q 507 -137 578 -137 l 292 -137 q 187 -128 229 -137 q 119 -100 144 -118 q 83 -58 94 -82 q 72 -6 72 -33 q 108 78 72 50 q 206 117 144 107 q 340 121 267 126 l 428 106 q 298 91 340 103 q 256 44 256 79 q 272 12 256 24 q 319 0 289 0 l 546 0 q 705 -20 639 0 q 806 -88 771 -40 q 840 -219 840 -136 l 840 -285 l 660 -285 m 428 236 q 533 256 488 236 q 603 312 578 275 q 628 400 628 349 q 603 490 628 453 q 533 548 578 528 q 428 568 489 568 q 322 548 368 568 q 251 490 276 528 q 226 400 226 453 q 251 312 226 349 q 322 256 276 275 q 428 236 367 236 m 533 996 l 533 838 l 324 838 l 324 996 l 533 996 z "},"h":{"ha":975,"x_min":96,"x_max":894,"o":"m 714 0 l 714 379 q 694 474 714 436 q 633 531 675 511 q 519 550 590 550 q 396 524 451 550 q 306 458 340 499 q 267 371 271 417 l 265 447 q 297 539 272 493 q 364 622 322 585 q 465 683 406 660 q 597 706 524 706 q 715 690 661 706 q 810 640 769 674 q 872 558 850 607 q 894 442 894 508 l 894 0 l 714 0 m 96 0 l 96 968 l 276 968 l 276 0 l 96 0 z "},"ħ":{"ha":975,"x_min":0,"x_max":894,"o":"m 714 0 l 714 379 q 694 474 714 436 q 633 531 675 511 q 519 550 590 550 q 396 524 451 550 q 306 458 340 499 q 267 371 271 417 l 265 447 q 297 539 272 493 q 364 622 322 585 q 465 683 406 660 q 597 706 524 706 q 715 690 661 706 q 810 640 769 674 q 872 558 850 607 q 894 442 894 508 l 894 0 l 714 0 m 96 0 l 96 968 l 276 968 l 276 0 l 96 0 m 0 885 l 499 885 l 499 789 l 0 789 l 0 885 z "},"i":{"ha":372,"x_min":81,"x_max":290,"o":"m 290 993 l 290 835 l 81 835 l 81 993 l 290 993 m 94 690 l 275 690 l 275 0 l 94 0 l 94 690 z "},"ı":{"ha":343,"x_min":81,"x_max":261,"o":"m 81 690 l 261 690 l 261 0 l 81 0 l 81 690 z "},"í":{"ha":343,"x_min":74,"x_max":501,"o":"m 81 690 l 261 690 l 261 0 l 81 0 l 81 690 m 74 832 l 263 1051 l 501 1051 l 246 832 l 74 832 z "},"î":{"ha":343,"x_min":-150,"x_max":490,"o":"m 81 690 l 261 690 l 261 0 l 81 0 l 81 690 m 265 1051 l 490 832 l 294 832 l 114 1015 l 228 1014 l 46 832 l -150 832 l 76 1051 l 265 1051 z "},"ï":{"ha":278,"x_min":-32,"x_max":363,"o":"m 81 690 l 261 690 l 261 0 l 81 0 l 81 690 m 178 994 l 178 836 l -32 836 l -32 994 l 178 994 m 363 994 l 363 836 l 153 836 l 153 994 l 363 994 z "},"ì":{"ha":343,"x_min":-162,"x_max":265,"o":"m 81 690 l 261 690 l 261 0 l 81 0 l 81 690 m 93 832 l -162 1051 l 76 1051 l 265 832 l 93 832 z "},"ĳ":{"ha":744,"x_min":81,"x_max":663,"o":"m 290 993 l 290 835 l 81 835 l 81 993 l 290 993 m 94 690 l 275 690 l 275 0 l 94 0 l 94 690 m 469 690 l 650 690 l 650 -278 l 469 -278 l 469 690 m 663 993 l 663 835 l 453 835 l 453 993 l 663 993 z "},"ī":{"ha":343,"x_min":-42,"x_max":385,"o":"m 81 690 l 261 690 l 261 0 l 81 0 l 81 690 m -42 843 l -42 956 l 385 956 l 385 843 l -42 843 z "},"į":{"ha":372,"x_min":4,"x_max":313,"o":"m 313 -310 q 88 -263 171 -310 q 4 -136 4 -217 q 40 -47 4 -81 q 138 6 76 -12 q 275 31 199 24 l 275 0 q 181 -36 218 -10 q 144 -110 144 -62 q 165 -166 144 -143 q 224 -201 186 -189 q 313 -214 263 -214 l 313 -310 m 290 993 l 290 835 l 81 835 l 81 993 l 290 993 m 94 690 l 275 690 l 275 0 l 94 0 l 94 690 z "},"j":{"ha":372,"x_min":81,"x_max":290,"o":"m 97 690 l 278 690 l 278 -278 l 97 -278 l 97 690 m 290 993 l 290 835 l 81 835 l 81 993 l 290 993 z "},"k":{"ha":901,"x_min":96,"x_max":890,"o":"m 96 968 l 276 968 l 276 0 l 96 0 l 96 968 m 858 690 l 447 328 l 451 439 l 890 0 l 661 0 l 281 388 l 613 690 l 858 690 z "},"ķ":{"ha":901,"x_min":96,"x_max":890,"o":"m 96 968 l 276 968 l 276 0 l 96 0 l 96 968 m 858 690 l 447 328 l 451 439 l 890 0 l 661 0 l 281 388 l 613 690 l 858 690 m 374 -346 l 357 -299 q 407 -266 386 -285 q 429 -228 428 -247 l 343 -212 l 343 -85 l 556 -85 l 556 -157 q 509 -280 556 -232 q 374 -346 463 -328 l 374 -346 z "},"l":{"ha":376,"x_min":97,"x_max":278,"o":"m 97 968 l 278 968 l 278 0 l 97 0 l 97 968 z "},"ĺ":{"ha":376,"x_min":97,"x_max":525,"o":"m 97 968 l 278 968 l 278 0 l 97 0 l 97 968 m 97 1099 l 286 1318 l 525 1318 l 269 1099 l 97 1099 z "},"ľ":{"ha":583,"x_min":97,"x_max":557,"o":"m 97 968 l 278 968 l 278 0 l 97 0 l 97 968 m 499 676 l 403 676 l 344 849 l 344 968 l 557 968 l 557 849 l 499 676 z "},"ļ":{"ha":376,"x_min":82,"x_max":294,"o":"m 97 968 l 278 968 l 278 0 l 97 0 l 97 968 m 113 -346 l 96 -299 q 146 -266 125 -285 q 168 -228 167 -247 l 82 -212 l 82 -85 l 294 -85 l 294 -157 q 248 -280 294 -232 q 113 -346 201 -328 l 113 -346 z "},"ŀ":{"ha":635,"x_min":97,"x_max":536,"o":"m 97 968 l 278 968 l 278 0 l 97 0 l 97 968 m 536 533 l 536 375 l 326 375 l 326 533 l 536 533 z "},"ł":{"ha":406,"x_min":-28,"x_max":432,"o":"m 381 661 l 432 588 l 21 307 l -28 381 l 381 661 m 111 968 l 292 968 l 292 0 l 111 0 l 111 968 z "},"m":{"ha":1565,"x_min":83,"x_max":1485,"o":"m 83 690 l 264 690 l 264 0 l 83 0 l 83 690 m 585 706 q 703 689 649 706 q 797 638 757 672 q 860 549 838 603 q 882 422 882 496 l 882 0 l 701 0 l 701 390 q 659 519 701 478 q 521 560 617 560 q 390 532 449 560 q 296 462 332 504 q 254 374 260 419 l 253 444 q 285 539 260 493 q 352 623 310 585 q 453 683 394 661 q 585 706 511 706 m 1186 706 q 1304 689 1250 706 q 1399 638 1358 672 q 1462 549 1439 603 q 1485 422 1485 496 l 1485 0 l 1304 0 l 1304 390 q 1261 519 1304 478 q 1122 560 1218 560 q 992 532 1050 560 q 897 462 933 504 q 857 374 861 419 l 854 449 q 888 540 861 494 q 957 624 914 586 q 1058 683 1000 661 q 1186 706 1115 706 z "},"n":{"ha":963,"x_min":83,"x_max":882,"o":"m 83 690 l 264 690 l 264 0 l 83 0 l 83 690 m 585 706 q 703 689 649 706 q 797 638 757 672 q 860 549 838 603 q 882 422 882 496 l 882 0 l 701 0 l 701 390 q 659 519 701 478 q 521 560 617 560 q 390 532 449 560 q 296 462 332 504 q 254 374 260 419 l 253 444 q 285 539 260 493 q 352 623 310 585 q 453 683 394 661 q 585 706 511 706 z "},"ń":{"ha":963,"x_min":83,"x_max":882,"o":"m 83 690 l 264 690 l 264 0 l 83 0 l 83 690 m 585 706 q 703 689 649 706 q 797 638 757 672 q 860 549 838 603 q 882 422 882 496 l 882 0 l 701 0 l 701 390 q 659 519 701 478 q 521 560 617 560 q 390 532 449 560 q 296 462 332 504 q 254 374 260 419 l 253 444 q 285 539 260 493 q 352 623 310 585 q 453 683 394 661 q 585 706 511 706 m 431 835 l 619 1054 l 858 1054 l 603 835 l 431 835 z "},"ň":{"ha":963,"x_min":83,"x_max":882,"o":"m 83 690 l 264 690 l 264 0 l 83 0 l 83 690 m 585 706 q 703 689 649 706 q 797 638 757 672 q 860 549 838 603 q 882 422 882 496 l 882 0 l 701 0 l 701 390 q 659 519 701 478 q 521 560 617 560 q 390 532 449 560 q 296 462 332 504 q 254 374 260 419 l 253 444 q 285 539 260 493 q 352 623 310 585 q 453 683 394 661 q 585 706 511 706 m 589 874 l 475 874 l 651 1054 l 847 1054 l 626 835 l 438 835 l 217 1054 l 413 1054 l 589 874 z "},"ņ":{"ha":963,"x_min":83,"x_max":882,"o":"m 83 690 l 264 690 l 264 0 l 83 0 l 83 690 m 585 706 q 703 689 649 706 q 797 638 757 672 q 860 549 838 603 q 882 422 882 496 l 882 0 l 701 0 l 701 390 q 659 519 701 478 q 521 560 617 560 q 390 532 449 560 q 296 462 332 504 q 254 374 260 419 l 253 444 q 285 539 260 493 q 352 623 310 585 q 453 683 394 661 q 585 706 511 706 m 407 -346 l 390 -299 q 440 -266 419 -285 q 463 -228 461 -247 l 376 -212 l 376 -85 l 589 -85 l 589 -157 q 542 -280 589 -232 q 407 -346 496 -328 l 407 -346 z "},"ñ":{"ha":963,"x_min":83,"x_max":882,"o":"m 83 690 l 264 690 l 264 0 l 83 0 l 83 690 m 585 706 q 703 689 649 706 q 797 638 757 672 q 860 549 838 603 q 882 422 882 496 l 882 0 l 701 0 l 701 390 q 659 519 701 478 q 521 560 617 560 q 390 532 449 560 q 296 462 332 504 q 254 374 260 419 l 253 444 q 285 539 260 493 q 352 623 310 585 q 453 683 394 661 q 585 706 511 706 m 649 833 q 575 846 607 833 q 515 876 543 858 q 460 906 488 893 q 399 918 432 918 q 352 906 369 918 q 325 874 335 893 q 307 835 315 854 l 179 835 q 216 930 190 886 q 283 1001 242 974 q 382 1028 325 1028 q 458 1015 425 1028 q 519 985 490 1003 q 574 956 547 968 q 631 943 600 943 q 678 956 661 943 q 706 989 696 969 q 724 1026 717 1008 l 853 1026 q 816 932 842 976 q 749 860 790 888 q 649 833 707 833 z "},"ŋ":{"ha":963,"x_min":83,"x_max":882,"o":"m 517 -294 l 517 -146 q 624 -131 583 -146 q 683 -83 664 -115 q 701 0 701 -50 l 701 390 q 659 519 701 478 q 521 560 617 560 q 390 532 449 560 q 296 462 332 504 q 254 374 260 419 l 253 444 q 285 539 260 493 q 352 623 310 585 q 453 683 394 661 q 585 706 511 706 q 703 689 649 706 q 797 638 757 672 q 860 549 838 603 q 882 422 882 496 l 882 -50 q 860 -155 882 -110 q 794 -231 839 -200 q 681 -278 750 -262 q 517 -294 611 -294 m 83 0 l 83 690 l 264 690 l 264 0 l 83 0 z "},"o":{"ha":978,"x_min":50,"x_max":928,"o":"m 490 -17 q 260 25 360 -17 q 106 147 161 67 q 50 343 50 226 q 106 541 50 460 q 260 664 161 622 q 490 706 360 706 q 719 664 621 706 q 872 541 817 622 q 928 343 928 460 q 872 147 928 226 q 719 25 817 67 q 490 -17 621 -17 m 490 122 q 620 148 563 122 q 711 223 678 174 q 744 343 744 272 q 711 465 744 414 q 621 542 678 515 q 490 568 564 568 q 360 542 418 568 q 267 465 301 515 q 233 343 233 415 q 267 223 233 272 q 358 148 300 174 q 490 122 417 122 z "},"ó":{"ha":978,"x_min":50,"x_max":928,"o":"m 490 -17 q 260 25 360 -17 q 106 147 161 67 q 50 343 50 226 q 106 541 50 460 q 260 664 161 622 q 490 706 360 706 q 719 664 621 706 q 872 541 817 622 q 928 343 928 460 q 872 147 928 226 q 719 25 817 67 q 490 -17 621 -17 m 490 122 q 620 148 563 122 q 711 223 678 174 q 744 343 744 272 q 711 465 744 414 q 621 542 678 515 q 490 568 564 568 q 360 542 418 568 q 267 465 301 515 q 233 343 233 415 q 267 223 233 272 q 358 148 300 174 q 490 122 417 122 m 393 835 l 582 1054 l 821 1054 l 565 835 l 393 835 z "},"ô":{"ha":978,"x_min":50,"x_max":928,"o":"m 490 -17 q 260 25 360 -17 q 106 147 161 67 q 50 343 50 226 q 106 541 50 460 q 260 664 161 622 q 490 706 360 706 q 719 664 621 706 q 872 541 817 622 q 928 343 928 460 q 872 147 928 226 q 719 25 817 67 q 490 -17 621 -17 m 490 122 q 620 148 563 122 q 711 223 678 174 q 744 343 744 272 q 711 465 744 414 q 621 542 678 515 q 490 568 564 568 q 360 542 418 568 q 267 465 301 515 q 233 343 233 415 q 267 223 233 272 q 358 148 300 174 q 490 122 417 122 m 585 1054 l 810 835 l 614 835 l 433 1018 l 547 1017 l 365 835 l 169 835 l 396 1054 l 585 1054 z "},"ö":{"ha":978,"x_min":50,"x_max":928,"o":"m 490 -17 q 260 25 360 -17 q 106 147 161 67 q 50 343 50 226 q 106 541 50 460 q 260 664 161 622 q 490 706 360 706 q 719 664 621 706 q 872 541 817 622 q 928 343 928 460 q 872 147 928 226 q 719 25 817 67 q 490 -17 621 -17 m 490 122 q 620 148 563 122 q 711 223 678 174 q 744 343 744 272 q 711 465 744 414 q 621 542 678 515 q 490 568 564 568 q 360 542 418 568 q 267 465 301 515 q 233 343 233 415 q 267 223 233 272 q 358 148 300 174 q 490 122 417 122 m 444 994 l 444 836 l 235 836 l 235 994 l 444 994 m 746 994 l 746 836 l 536 836 l 536 994 l 746 994 z "},"ò":{"ha":978,"x_min":50,"x_max":928,"o":"m 490 -17 q 260 25 360 -17 q 106 147 161 67 q 50 343 50 226 q 106 541 50 460 q 260 664 161 622 q 490 706 360 706 q 719 664 621 706 q 872 541 817 622 q 928 343 928 460 q 872 147 928 226 q 719 25 817 67 q 490 -17 621 -17 m 490 122 q 620 148 563 122 q 711 223 678 174 q 744 343 744 272 q 711 465 744 414 q 621 542 678 515 q 490 568 564 568 q 360 542 418 568 q 267 465 301 515 q 233 343 233 415 q 267 223 233 272 q 358 148 300 174 q 490 122 417 122 m 413 835 l 157 1054 l 396 1054 l 585 835 l 413 835 z "},"ő":{"ha":978,"x_min":50,"x_max":928,"o":"m 490 -17 q 260 25 360 -17 q 106 147 161 67 q 50 343 50 226 q 106 541 50 460 q 260 664 161 622 q 490 706 360 706 q 719 664 621 706 q 872 541 817 622 q 928 343 928 460 q 872 147 928 226 q 719 25 817 67 q 490 -17 621 -17 m 490 122 q 620 148 563 122 q 711 223 678 174 q 744 343 744 272 q 711 465 744 414 q 621 542 678 515 q 490 568 564 568 q 360 542 418 568 q 267 465 301 515 q 233 343 233 415 q 267 223 233 272 q 358 148 300 174 q 490 122 417 122 m 546 835 l 714 1054 l 903 1054 l 688 835 l 546 835 m 246 835 l 406 1054 l 594 1054 l 388 835 l 246 835 z "},"ō":{"ha":978,"x_min":50,"x_max":928,"o":"m 490 -17 q 260 25 360 -17 q 106 147 161 67 q 50 343 50 226 q 106 541 50 460 q 260 664 161 622 q 490 706 360 706 q 719 664 621 706 q 872 541 817 622 q 928 343 928 460 q 872 147 928 226 q 719 25 817 67 q 490 -17 621 -17 m 490 122 q 620 148 563 122 q 711 223 678 174 q 744 343 744 272 q 711 465 744 414 q 621 542 678 515 q 490 568 564 568 q 360 542 418 568 q 267 465 301 515 q 233 343 233 415 q 267 223 233 272 q 358 148 300 174 q 490 122 417 122 m 278 846 l 278 958 l 704 958 l 704 846 l 278 846 z "},"ø":{"ha":978,"x_min":50,"x_max":928,"o":"m 679 754 l 754 713 l 296 -61 l 224 -17 l 679 754 m 490 -17 q 260 25 360 -17 q 106 147 161 67 q 50 343 50 226 q 106 541 50 460 q 260 664 161 622 q 490 706 360 706 q 719 664 621 706 q 872 541 817 622 q 928 343 928 460 q 872 147 928 226 q 719 25 817 67 q 490 -17 621 -17 m 490 122 q 620 148 563 122 q 711 223 678 174 q 744 343 744 272 q 711 465 744 414 q 621 542 678 515 q 490 568 564 568 q 360 542 418 568 q 267 465 301 515 q 233 343 233 415 q 267 223 233 272 q 358 148 300 174 q 490 122 417 122 z "},"õ":{"ha":978,"x_min":50,"x_max":928,"o":"m 490 -17 q 260 25 360 -17 q 106 147 161 67 q 50 343 50 226 q 106 541 50 460 q 260 664 161 622 q 490 706 360 706 q 719 664 621 706 q 872 541 817 622 q 928 343 928 460 q 872 147 928 226 q 719 25 817 67 q 490 -17 621 -17 m 490 122 q 620 148 563 122 q 711 223 678 174 q 744 343 744 272 q 711 465 744 414 q 621 542 678 515 q 490 568 564 568 q 360 542 418 568 q 267 465 301 515 q 233 343 233 415 q 267 223 233 272 q 358 148 300 174 q 490 122 417 122 m 611 833 q 538 846 569 833 q 478 876 506 858 q 422 906 450 893 q 361 918 394 918 q 315 906 332 918 q 288 874 297 893 q 269 835 278 854 l 142 835 q 178 930 153 886 q 246 1001 204 974 q 344 1028 288 1028 q 420 1015 388 1028 q 481 985 453 1003 q 536 956 510 968 q 593 943 563 943 q 641 956 624 943 q 669 989 658 969 q 686 1026 679 1008 l 815 1026 q 778 932 804 976 q 711 860 753 888 q 611 833 669 833 z "},"œ":{"ha":1639,"x_min":50,"x_max":1594,"o":"m 490 -17 q 260 25 360 -17 q 106 147 161 67 q 50 343 50 226 q 106 541 50 460 q 260 664 161 622 q 490 706 360 706 q 719 664 621 706 q 872 541 817 622 q 928 343 928 460 q 872 147 928 226 q 719 25 817 67 q 490 -17 621 -17 m 490 122 q 620 148 563 122 q 711 223 678 174 q 744 343 744 272 q 711 465 744 414 q 621 542 678 515 q 490 568 564 568 q 360 542 418 568 q 267 465 301 515 q 233 343 233 415 q 267 223 233 272 q 358 148 300 174 q 490 122 417 122 m 1410 229 l 1585 229 q 1526 103 1574 158 q 1396 15 1478 47 q 1196 -17 1314 -17 q 963 26 1064 -17 q 804 149 861 68 q 747 343 747 229 q 803 538 747 457 q 958 663 858 619 q 1190 706 1057 706 q 1417 663 1326 706 q 1551 533 1507 619 q 1588 311 1594 446 l 929 311 q 969 215 936 258 q 1058 147 1001 172 q 1192 122 1114 122 q 1335 152 1278 122 q 1410 229 1393 182 m 1182 568 q 1019 524 1082 568 q 939 417 957 481 l 1408 417 q 1342 527 1401 486 q 1182 568 1283 568 z "},"p":{"ha":1006,"x_min":83,"x_max":956,"o":"m 586 -17 q 430 16 494 -17 q 325 102 365 49 q 265 219 285 156 q 246 344 246 283 q 265 486 246 421 q 324 601 283 551 q 428 678 364 650 q 586 706 493 706 q 774 660 690 706 q 906 533 857 614 q 956 344 956 451 q 906 153 956 235 q 772 28 856 72 q 586 -17 689 -17 m 528 124 q 656 151 601 124 q 741 228 711 179 q 771 344 771 278 q 708 506 771 444 q 528 567 644 567 q 394 540 454 567 q 299 465 333 514 q 264 344 264 415 q 296 228 264 278 q 388 151 328 179 q 528 124 447 124 m 83 690 l 256 690 l 264 507 l 264 -278 l 83 -278 l 83 690 z "},"þ":{"ha":1006,"x_min":83,"x_max":956,"o":"m 586 -17 q 430 16 494 -17 q 325 102 365 49 q 265 219 285 156 q 246 344 246 283 q 265 486 246 421 q 324 601 283 551 q 428 678 364 650 q 586 706 493 706 q 774 660 690 706 q 906 533 857 614 q 956 344 956 451 q 906 153 956 235 q 772 28 856 72 q 586 -17 689 -17 m 528 124 q 656 151 601 124 q 741 228 711 179 q 771 344 771 278 q 708 506 771 444 q 528 567 644 567 q 394 540 454 567 q 299 465 333 514 q 264 344 264 415 q 296 228 264 278 q 388 151 328 179 q 528 124 447 124 m 83 967 l 264 967 l 264 507 l 264 -278 l 83 -278 l 83 967 z "},"q":{"ha":1035,"x_min":50,"x_max":924,"o":"m 419 -17 q 233 28 317 -17 q 99 153 149 72 q 50 344 50 235 q 99 533 50 451 q 233 660 149 614 q 419 706 317 706 q 578 678 513 706 q 683 601 643 650 q 742 486 724 551 q 761 344 761 421 q 742 219 761 283 q 682 102 722 156 q 576 16 642 49 q 419 -17 511 -17 m 478 124 q 619 151 560 124 q 711 228 679 179 q 743 344 743 278 q 710 465 743 415 q 619 540 678 514 q 478 567 560 567 q 299 506 363 567 q 235 344 235 444 q 265 228 235 278 q 351 151 296 179 q 478 124 406 124 m 924 690 l 924 -278 l 743 -278 l 743 519 l 749 690 l 924 690 z "},"r":{"ha":557,"x_min":83,"x_max":529,"o":"m 83 690 l 264 690 l 264 0 l 83 0 l 83 690 m 529 542 q 394 512 451 542 q 303 439 338 482 q 254 356 268 396 l 253 432 q 264 481 254 449 q 293 552 274 514 q 344 626 313 590 q 422 683 376 661 q 529 706 468 706 l 529 542 z "},"ŕ":{"ha":557,"x_min":83,"x_max":658,"o":"m 83 690 l 264 690 l 264 0 l 83 0 l 83 690 m 529 542 q 394 512 451 542 q 303 439 338 482 q 254 356 268 396 l 253 432 q 264 481 254 449 q 293 552 274 514 q 344 626 313 590 q 422 683 376 661 q 529 706 468 706 l 529 542 m 231 835 l 419 1054 l 658 1054 l 403 835 l 231 835 z "},"ř":{"ha":557,"x_min":17,"x_max":647,"o":"m 83 690 l 264 690 l 264 0 l 83 0 l 83 690 m 529 542 q 394 512 451 542 q 303 439 338 482 q 254 356 268 396 l 253 432 q 264 481 254 449 q 293 552 274 514 q 344 626 313 590 q 422 683 376 661 q 529 706 468 706 l 529 542 m 389 874 l 275 874 l 451 1054 l 647 1054 l 426 835 l 238 835 l 17 1054 l 213 1054 l 389 874 z "},"ŗ":{"ha":557,"x_min":68,"x_max":529,"o":"m 83 690 l 264 690 l 264 0 l 83 0 l 83 690 m 529 542 q 394 512 451 542 q 303 439 338 482 q 254 356 268 396 l 253 432 q 264 481 254 449 q 293 552 274 514 q 344 626 313 590 q 422 683 376 661 q 529 706 468 706 l 529 542 m 99 -346 l 82 -299 q 132 -266 111 -285 q 154 -228 153 -247 l 68 -212 l 68 -85 l 281 -85 l 281 -157 q 234 -280 281 -232 q 99 -346 188 -328 l 99 -346 z "},"s":{"ha":783,"x_min":53,"x_max":729,"o":"m 56 229 l 222 229 q 285 152 238 182 q 411 122 333 122 q 493 132 464 122 q 533 160 522 142 q 544 203 544 179 q 526 248 544 232 q 471 274 508 264 q 375 292 433 283 q 263 315 317 301 q 167 352 208 329 q 101 410 125 375 q 76 497 76 446 q 101 586 76 547 q 169 651 125 625 q 272 692 213 678 q 399 706 331 706 q 569 676 501 706 q 672 592 638 646 q 706 469 706 539 l 546 469 q 501 544 535 521 q 399 567 468 567 q 296 546 331 567 q 261 489 261 525 q 283 444 261 460 q 347 418 304 428 q 453 397 389 408 q 556 372 507 386 q 644 337 606 358 q 706 280 683 315 q 729 190 729 244 q 691 78 729 124 q 582 8 653 32 q 413 -17 511 -17 q 262 2 325 -17 q 157 51 199 21 q 92 115 115 81 q 61 179 69 149 q 56 229 53 210 z "},"ś":{"ha":783,"x_min":53,"x_max":729,"o":"m 56 229 l 222 229 q 285 152 238 182 q 411 122 333 122 q 493 132 464 122 q 533 160 522 142 q 544 203 544 179 q 526 248 544 232 q 471 274 508 264 q 375 292 433 283 q 263 315 317 301 q 167 352 208 329 q 101 410 125 375 q 76 497 76 446 q 101 586 76 547 q 169 651 125 625 q 272 692 213 678 q 399 706 331 706 q 569 676 501 706 q 672 592 638 646 q 706 469 706 539 l 546 469 q 501 544 535 521 q 399 567 468 567 q 296 546 331 567 q 261 489 261 525 q 283 444 261 460 q 347 418 304 428 q 453 397 389 408 q 556 372 507 386 q 644 337 606 358 q 706 280 683 315 q 729 190 729 244 q 691 78 729 124 q 582 8 653 32 q 413 -17 511 -17 q 262 2 325 -17 q 157 51 199 21 q 92 115 115 81 q 61 179 69 149 q 56 229 53 210 m 292 835 l 481 1054 l 719 1054 l 464 835 l 292 835 z "},"š":{"ha":783,"x_min":53,"x_max":729,"o":"m 56 229 l 222 229 q 285 152 238 182 q 411 122 333 122 q 493 132 464 122 q 533 160 522 142 q 544 203 544 179 q 526 248 544 232 q 471 274 508 264 q 375 292 433 283 q 263 315 317 301 q 167 352 208 329 q 101 410 125 375 q 76 497 76 446 q 101 586 76 547 q 169 651 125 625 q 272 692 213 678 q 399 706 331 706 q 569 676 501 706 q 672 592 638 646 q 706 469 706 539 l 546 469 q 501 544 535 521 q 399 567 468 567 q 296 546 331 567 q 261 489 261 525 q 283 444 261 460 q 347 418 304 428 q 453 397 389 408 q 556 372 507 386 q 644 337 606 358 q 706 280 683 315 q 729 190 729 244 q 691 78 729 124 q 582 8 653 32 q 413 -17 511 -17 q 262 2 325 -17 q 157 51 199 21 q 92 115 115 81 q 61 179 69 149 q 56 229 53 210 m 450 874 l 336 874 l 513 1054 l 708 1054 l 488 835 l 299 835 l 78 1054 l 274 1054 l 450 874 z "},"ş":{"ha":783,"x_min":53,"x_max":729,"o":"m 290 -175 q 299 -196 293 -182 q 322 -221 306 -210 q 371 -232 339 -232 q 426 -215 410 -232 q 442 -176 442 -199 q 435 -153 442 -167 q 408 -125 429 -139 q 340 -103 388 -111 l 453 -64 q 524 -87 492 -71 q 575 -131 556 -104 q 594 -200 594 -158 q 540 -302 594 -258 q 375 -346 485 -346 q 256 -322 306 -346 q 182 -258 207 -297 q 160 -175 157 -218 l 290 -175 m 340 10 l 492 10 l 492 -112 l 340 -103 l 340 10 m 56 229 l 222 229 q 285 152 238 182 q 411 122 333 122 q 493 132 464 122 q 533 160 522 142 q 544 203 544 179 q 526 248 544 232 q 471 274 508 264 q 375 292 433 283 q 263 315 317 301 q 167 352 208 329 q 101 410 125 375 q 76 497 76 446 q 101 586 76 547 q 169 651 125 625 q 272 692 213 678 q 399 706 331 706 q 569 676 501 706 q 672 592 638 646 q 706 469 706 539 l 546 469 q 501 544 535 521 q 399 567 468 567 q 296 546 331 567 q 261 489 261 525 q 283 444 261 460 q 347 418 304 428 q 453 397 389 408 q 556 372 507 386 q 644 337 606 358 q 706 280 683 315 q 729 190 729 244 q 691 78 729 124 q 582 8 653 32 q 413 -17 511 -17 q 262 2 325 -17 q 157 51 199 21 q 92 115 115 81 q 61 179 69 149 q 56 229 53 210 z "},"ș":{"ha":783,"x_min":53,"x_max":729,"o":"m 56 229 l 222 229 q 285 152 238 182 q 411 122 333 122 q 493 132 464 122 q 533 160 522 142 q 544 203 544 179 q 526 248 544 232 q 471 274 508 264 q 375 292 433 283 q 263 315 317 301 q 167 352 208 329 q 101 410 125 375 q 76 497 76 446 q 101 586 76 547 q 169 651 125 625 q 272 692 213 678 q 399 706 331 706 q 569 676 501 706 q 672 592 638 646 q 706 469 706 539 l 546 469 q 501 544 535 521 q 399 567 468 567 q 296 546 331 567 q 261 489 261 525 q 283 444 261 460 q 347 418 304 428 q 453 397 389 408 q 556 372 507 386 q 644 337 606 358 q 706 280 683 315 q 729 190 729 244 q 691 78 729 124 q 582 8 653 32 q 413 -17 511 -17 q 262 2 325 -17 q 157 51 199 21 q 92 115 115 81 q 61 179 69 149 q 56 229 53 210 m 346 -360 l 329 -312 q 379 -280 358 -299 q 401 -242 400 -261 l 315 -226 l 315 -99 l 528 -99 l 528 -171 q 481 -294 528 -246 q 346 -360 435 -342 l 346 -360 z "},"ß":{"ha":990,"x_min":96,"x_max":967,"o":"m 485 -240 l 485 -101 q 630 -93 572 -101 q 722 -68 688 -85 q 769 -25 756 -51 q 783 39 783 1 q 770 99 783 74 q 726 143 757 125 q 641 170 694 161 q 506 179 588 179 l 457 179 l 457 311 l 726 600 l 751 540 l 254 540 l 254 678 l 883 676 l 883 556 l 599 218 l 588 283 q 731 270 663 282 q 852 231 799 258 q 936 157 906 203 q 967 42 967 111 q 932 -82 967 -29 q 834 -170 897 -135 q 682 -223 771 -206 q 485 -240 593 -240 m 96 0 l 96 728 q 126 865 96 811 q 217 943 157 918 q 363 968 276 968 l 519 968 l 519 822 l 392 822 q 308 798 340 824 q 276 706 276 772 l 276 0 l 96 0 z "},"t":{"ha":603,"x_min":35,"x_max":571,"o":"m 35 690 l 571 690 l 571 550 l 35 550 l 35 690 m 213 879 l 393 879 l 393 0 l 213 0 l 213 879 z "},"ŧ":{"ha":601,"x_min":33,"x_max":571,"o":"m 33 449 l 568 449 l 568 344 l 33 344 l 33 449 m 35 690 l 571 690 l 571 550 l 35 550 l 35 690 m 213 879 l 393 879 l 393 0 l 213 0 l 213 879 z "},"ť":{"ha":492,"x_min":35,"x_max":571,"o":"m 35 690 l 571 690 l 571 550 l 35 550 l 35 690 m 213 879 l 393 879 l 393 0 l 213 0 l 213 879 m 425 747 l 329 747 l 271 919 l 271 1039 l 483 1039 l 483 919 l 425 747 z "},"ţ":{"ha":603,"x_min":35,"x_max":571,"o":"m 171 -161 q 180 -182 174 -168 q 203 -207 186 -196 q 251 -218 219 -218 q 306 -201 290 -218 q 322 -162 322 -185 q 316 -139 322 -153 q 289 -111 310 -125 q 221 -89 268 -97 l 333 -50 q 404 -74 372 -57 q 456 -117 436 -90 q 475 -186 475 -144 q 420 -288 475 -244 q 256 -332 365 -332 q 137 -308 186 -332 q 63 -244 88 -283 q 40 -161 38 -204 l 171 -161 m 221 24 l 372 24 l 372 -99 l 221 -89 l 221 24 m 35 690 l 571 690 l 571 550 l 35 550 l 35 690 m 213 879 l 393 879 l 393 0 l 213 0 l 213 879 z "},"ț":{"ha":603,"x_min":35,"x_max":571,"o":"m 35 690 l 571 690 l 571 550 l 35 550 l 35 690 m 213 879 l 393 879 l 393 0 l 213 0 l 213 879 m 226 -346 l 210 -299 q 260 -266 239 -285 q 282 -228 281 -247 l 196 -212 l 196 -85 l 408 -85 l 408 -157 q 362 -280 408 -232 q 226 -346 315 -328 l 226 -346 z "},"u":{"ha":963,"x_min":83,"x_max":882,"o":"m 882 0 l 701 0 l 701 690 l 882 690 l 882 0 m 711 332 l 713 285 q 699 228 710 265 q 665 150 688 192 q 606 70 642 108 q 517 8 569 32 q 392 -17 464 -17 q 280 -3 335 -17 q 181 44 225 11 q 110 132 136 76 q 83 272 83 188 l 83 690 l 264 690 l 264 303 q 285 198 264 236 q 349 144 307 160 q 447 129 390 129 q 576 162 522 129 q 665 242 631 194 q 711 332 699 289 z "},"ú":{"ha":963,"x_min":83,"x_max":882,"o":"m 882 0 l 701 0 l 701 690 l 882 690 l 882 0 m 711 332 l 713 285 q 699 228 710 265 q 665 150 688 192 q 606 70 642 108 q 517 8 569 32 q 392 -17 464 -17 q 280 -3 335 -17 q 181 44 225 11 q 110 132 136 76 q 83 272 83 188 l 83 690 l 264 690 l 264 303 q 285 198 264 236 q 349 144 307 160 q 447 129 390 129 q 576 162 522 129 q 665 242 631 194 q 711 332 699 289 m 399 835 l 588 1054 l 826 1054 l 571 835 l 399 835 z "},"û":{"ha":963,"x_min":83,"x_max":882,"o":"m 882 0 l 701 0 l 701 690 l 882 690 l 882 0 m 711 332 l 713 285 q 699 228 710 265 q 665 150 688 192 q 606 70 642 108 q 517 8 569 32 q 392 -17 464 -17 q 280 -3 335 -17 q 181 44 225 11 q 110 132 136 76 q 83 272 83 188 l 83 690 l 264 690 l 264 303 q 285 198 264 236 q 349 144 307 160 q 447 129 390 129 q 576 162 522 129 q 665 242 631 194 q 711 332 699 289 m 590 1054 l 815 835 l 619 835 l 439 1018 l 553 1017 l 371 835 l 175 835 l 401 1054 l 590 1054 z "},"ü":{"ha":963,"x_min":83,"x_max":882,"o":"m 882 0 l 701 0 l 701 690 l 882 690 l 882 0 m 711 332 l 713 285 q 699 228 710 265 q 665 150 688 192 q 606 70 642 108 q 517 8 569 32 q 392 -17 464 -17 q 280 -3 335 -17 q 181 44 225 11 q 110 132 136 76 q 83 272 83 188 l 83 690 l 264 690 l 264 303 q 285 198 264 236 q 349 144 307 160 q 447 129 390 129 q 576 162 522 129 q 665 242 631 194 q 711 332 699 289 m 450 994 l 450 836 l 240 836 l 240 994 l 450 994 m 751 994 l 751 836 l 542 836 l 542 994 l 751 994 z "},"ù":{"ha":963,"x_min":83,"x_max":882,"o":"m 882 0 l 701 0 l 701 690 l 882 690 l 882 0 m 711 332 l 713 285 q 699 228 710 265 q 665 150 688 192 q 606 70 642 108 q 517 8 569 32 q 392 -17 464 -17 q 280 -3 335 -17 q 181 44 225 11 q 110 132 136 76 q 83 272 83 188 l 83 690 l 264 690 l 264 303 q 285 198 264 236 q 349 144 307 160 q 447 129 390 129 q 576 162 522 129 q 665 242 631 194 q 711 332 699 289 m 418 835 l 163 1054 l 401 1054 l 590 835 l 418 835 z "},"ű":{"ha":963,"x_min":83,"x_max":908,"o":"m 882 0 l 701 0 l 701 690 l 882 690 l 882 0 m 711 332 l 713 285 q 699 228 710 265 q 665 150 688 192 q 606 70 642 108 q 517 8 569 32 q 392 -17 464 -17 q 280 -3 335 -17 q 181 44 225 11 q 110 132 136 76 q 83 272 83 188 l 83 690 l 264 690 l 264 303 q 285 198 264 236 q 349 144 307 160 q 447 129 390 129 q 576 162 522 129 q 665 242 631 194 q 711 332 699 289 m 551 835 l 719 1054 l 908 1054 l 693 835 l 551 835 m 251 835 l 411 1054 l 600 1054 l 393 835 l 251 835 z "},"ū":{"ha":963,"x_min":83,"x_max":882,"o":"m 882 0 l 701 0 l 701 690 l 882 690 l 882 0 m 711 332 l 713 285 q 699 228 710 265 q 665 150 688 192 q 606 70 642 108 q 517 8 569 32 q 392 -17 464 -17 q 280 -3 335 -17 q 181 44 225 11 q 110 132 136 76 q 83 272 83 188 l 83 690 l 264 690 l 264 303 q 285 198 264 236 q 349 144 307 160 q 447 129 390 129 q 576 162 522 129 q 665 242 631 194 q 711 332 699 289 m 283 846 l 283 958 l 710 958 l 710 846 l 283 846 z "},"ų":{"ha":963,"x_min":83,"x_max":882,"o":"m 856 -310 q 631 -263 714 -310 q 547 -136 547 -217 q 583 -47 547 -81 q 681 6 619 -12 q 818 31 742 24 l 818 0 q 724 -36 761 -10 q 688 -110 688 -62 q 708 -166 688 -143 q 767 -201 729 -189 q 856 -214 806 -214 l 856 -310 m 882 0 l 701 0 l 701 690 l 882 690 l 882 0 m 711 332 l 713 285 q 699 228 710 265 q 665 150 688 192 q 606 70 642 108 q 517 8 569 32 q 392 -17 464 -17 q 280 -3 335 -17 q 181 44 225 11 q 110 132 136 76 q 83 272 83 188 l 83 690 l 264 690 l 264 303 q 285 198 264 236 q 349 144 307 160 q 447 129 390 129 q 576 162 522 129 q 665 242 631 194 q 711 332 699 289 z "},"ů":{"ha":963,"x_min":83,"x_max":882,"o":"m 882 0 l 701 0 l 701 690 l 882 690 l 882 0 m 711 332 l 713 285 q 699 228 710 265 q 665 150 688 192 q 606 70 642 108 q 517 8 569 32 q 392 -17 464 -17 q 280 -3 335 -17 q 181 44 225 11 q 110 132 136 76 q 83 272 83 188 l 83 690 l 264 690 l 264 303 q 285 198 264 236 q 349 144 307 160 q 447 129 390 129 q 576 162 522 129 q 665 242 631 194 q 711 332 699 289 m 496 801 q 352 844 406 801 q 299 957 299 886 q 352 1069 299 1026 q 496 1111 406 1111 q 639 1069 586 1111 q 692 957 692 1026 q 639 844 692 886 q 496 801 586 801 m 496 882 q 566 901 544 882 q 588 957 588 919 q 566 1012 588 993 q 496 1031 544 1031 q 424 1012 446 1031 q 403 957 403 993 q 424 901 403 919 q 496 882 446 882 z "},"v":{"ha":871,"x_min":21,"x_max":849,"o":"m 464 118 l 399 118 l 651 690 l 849 690 l 517 0 l 346 0 l 21 690 l 219 690 l 464 118 z "},"w":{"ha":1372,"x_min":21,"x_max":1350,"o":"m 983 125 l 926 126 l 1151 690 l 1350 690 l 1046 0 l 876 0 l 654 557 l 715 557 l 486 0 l 317 0 l 21 690 l 219 690 l 436 125 l 379 125 l 582 690 l 789 690 l 983 125 z "},"ẃ":{"ha":1372,"x_min":21,"x_max":1350,"o":"m 983 125 l 926 126 l 1151 690 l 1350 690 l 1046 0 l 876 0 l 654 557 l 715 557 l 486 0 l 317 0 l 21 690 l 219 690 l 436 125 l 379 125 l 582 690 l 789 690 l 983 125 m 585 835 l 774 1054 l 1013 1054 l 757 835 l 585 835 z "},"ŵ":{"ha":1372,"x_min":21,"x_max":1350,"o":"m 983 125 l 926 126 l 1151 690 l 1350 690 l 1046 0 l 876 0 l 654 557 l 715 557 l 486 0 l 317 0 l 21 690 l 219 690 l 436 125 l 379 125 l 582 690 l 789 690 l 983 125 m 776 1054 l 1001 835 l 806 835 l 625 1018 l 739 1017 l 557 835 l 361 835 l 588 1054 l 776 1054 z "},"ẅ":{"ha":1372,"x_min":21,"x_max":1350,"o":"m 983 125 l 926 126 l 1151 690 l 1350 690 l 1046 0 l 876 0 l 654 557 l 715 557 l 486 0 l 317 0 l 21 690 l 219 690 l 436 125 l 379 125 l 582 690 l 789 690 l 983 125 m 636 994 l 636 836 l 426 836 l 426 994 l 636 994 m 938 994 l 938 836 l 728 836 l 728 994 l 938 994 z "},"ẁ":{"ha":1372,"x_min":21,"x_max":1350,"o":"m 983 125 l 926 126 l 1151 690 l 1350 690 l 1046 0 l 876 0 l 654 557 l 715 557 l 486 0 l 317 0 l 21 690 l 219 690 l 436 125 l 379 125 l 582 690 l 789 690 l 983 125 m 604 835 l 349 1054 l 588 1054 l 776 835 l 604 835 z "},"x":{"ha":913,"x_min":28,"x_max":885,"o":"m 865 690 l 507 306 l 249 0 l 28 0 l 401 404 l 646 690 l 865 690 m 28 690 l 249 690 l 510 407 l 885 0 l 664 0 l 396 301 l 28 690 z "},"y":{"ha":888,"x_min":21,"x_max":865,"o":"m 21 690 l 213 690 l 511 28 l 356 0 l 21 690 m 865 690 l 388 -278 l 200 -278 l 404 103 l 672 690 l 865 690 z "},"ý":{"ha":888,"x_min":21,"x_max":865,"o":"m 21 690 l 213 690 l 511 28 l 356 0 l 21 690 m 865 690 l 388 -278 l 200 -278 l 404 103 l 672 690 l 865 690 m 347 835 l 536 1054 l 775 1054 l 519 835 l 347 835 z "},"ŷ":{"ha":888,"x_min":21,"x_max":865,"o":"m 21 690 l 213 690 l 511 28 l 356 0 l 21 690 m 865 690 l 388 -278 l 200 -278 l 404 103 l 672 690 l 865 690 m 539 1054 l 764 835 l 568 835 l 388 1018 l 501 1017 l 319 835 l 124 835 l 350 1054 l 539 1054 z "},"ÿ":{"ha":888,"x_min":21,"x_max":865,"o":"m 21 690 l 213 690 l 511 28 l 356 0 l 21 690 m 865 690 l 388 -278 l 200 -278 l 404 103 l 672 690 l 865 690 m 399 994 l 399 836 l 189 836 l 189 994 l 399 994 m 700 994 l 700 836 l 490 836 l 490 994 l 700 994 z "},"ỳ":{"ha":888,"x_min":21,"x_max":865,"o":"m 21 690 l 213 690 l 511 28 l 356 0 l 21 690 m 865 690 l 388 -278 l 200 -278 l 404 103 l 672 690 l 865 690 m 367 835 l 111 1054 l 350 1054 l 539 835 l 367 835 z "},"z":{"ha":864,"x_min":79,"x_max":786,"o":"m 776 553 l 228 83 l 208 136 l 786 136 l 786 0 l 79 0 l 79 136 l 628 606 l 647 553 l 79 553 l 79 690 l 776 690 l 776 553 z "},"ź":{"ha":864,"x_min":79,"x_max":786,"o":"m 776 553 l 228 83 l 208 136 l 786 136 l 786 0 l 79 0 l 79 136 l 628 606 l 647 553 l 79 553 l 79 690 l 776 690 l 776 553 m 332 835 l 521 1054 l 760 1054 l 504 835 l 332 835 z "},"ž":{"ha":864,"x_min":79,"x_max":786,"o":"m 776 553 l 228 83 l 208 136 l 786 136 l 786 0 l 79 0 l 79 136 l 628 606 l 647 553 l 79 553 l 79 690 l 776 690 l 776 553 m 490 874 l 376 874 l 553 1054 l 749 1054 l 528 835 l 339 835 l 118 1054 l 314 1054 l 490 874 z "},"ż":{"ha":864,"x_min":79,"x_max":786,"o":"m 776 553 l 228 83 l 208 136 l 786 136 l 786 0 l 79 0 l 79 136 l 628 606 l 647 553 l 79 553 l 79 690 l 776 690 l 776 553 m 535 996 l 535 838 l 325 838 l 325 996 l 535 996 z "},"ﬁ":{"ha":992,"x_min":35,"x_max":910,"o":"m 538 521 l 538 658 l 883 658 l 883 521 l 538 521 m 729 658 l 910 658 l 910 0 l 729 0 l 729 658 m 190 0 l 190 728 l 371 706 l 371 0 l 190 0 m 457 968 l 910 968 l 910 822 l 500 822 q 431 814 460 824 q 386 778 401 804 q 371 706 371 753 l 190 728 q 221 865 190 811 q 311 943 251 918 q 457 968 371 968 m 35 658 l 590 658 l 590 521 l 35 521 l 35 658 z "},"ª":{"ha":936,"x_min":50,"x_max":856,"o":"m 374 407 q 205 444 278 407 q 91 544 132 481 q 50 689 50 608 q 91 843 50 776 q 207 947 132 910 q 383 983 282 983 q 519 960 461 983 q 615 895 576 936 q 674 801 654 854 q 693 690 693 749 q 673 601 693 650 q 613 508 653 553 q 513 435 574 464 q 374 407 453 407 m 424 544 q 524 556 478 544 q 604 588 571 568 q 656 633 638 607 q 675 689 675 660 q 656 755 675 726 q 603 803 638 783 q 524 834 569 824 q 424 844 478 844 q 281 802 326 844 q 235 689 235 760 q 283 585 235 626 q 424 544 332 544 m 675 968 l 856 968 l 856 422 l 688 422 q 684 449 688 422 q 678 515 681 476 q 675 586 675 553 l 675 968 z "},"º":{"ha":978,"x_min":97,"x_max":881,"o":"m 492 396 q 281 431 369 396 q 145 532 193 467 q 97 689 97 597 q 145 847 97 781 q 281 948 193 913 q 492 983 369 983 q 699 948 613 983 q 833 847 786 913 q 881 689 881 781 q 833 532 881 597 q 699 431 786 467 q 492 396 613 396 m 490 528 q 609 549 563 528 q 678 606 656 569 q 701 689 701 642 q 679 772 701 735 q 610 830 657 808 q 492 851 564 851 q 371 830 418 851 q 300 772 324 808 q 276 689 276 736 q 299 606 276 642 q 369 549 322 569 q 490 528 417 528 z "},"Α":{"ha":1096,"x_min":24,"x_max":1072,"o":"m 247 196 l 247 350 l 842 350 l 842 196 l 247 196 m 24 0 l 446 899 l 646 899 l 1072 0 l 871 0 l 501 810 l 590 810 l 224 0 l 24 0 z "},"Β":{"ha":1083,"x_min":107,"x_max":1026,"o":"m 107 0 l 107 899 l 625 899 q 899 838 806 899 q 993 658 993 778 q 956 538 993 582 q 849 474 918 494 q 688 447 781 453 l 693 457 q 822 447 761 456 q 928 417 882 439 q 1000 355 974 394 q 1026 251 1026 315 q 982 113 1026 168 q 858 31 938 58 q 675 0 779 3 l 107 0 m 292 153 l 656 153 q 790 181 743 153 q 838 272 838 210 q 810 339 838 318 q 736 365 782 360 q 638 369 690 369 l 292 369 l 292 153 m 292 518 l 618 518 q 753 544 706 518 q 800 632 800 569 q 753 720 800 694 q 628 746 706 746 l 292 746 l 292 518 z "},"Γ":{"ha":950,"x_min":107,"x_max":926,"o":"m 269 899 l 926 899 l 926 744 l 269 744 l 269 899 m 107 899 l 292 899 l 292 0 l 107 0 l 107 899 z "},"Δ":{"ha":1096,"x_min":24,"x_max":1072,"o":"m 135 0 l 135 154 l 939 154 l 939 0 l 135 0 m 24 0 l 446 899 l 646 899 l 1072 0 l 871 0 l 501 810 l 590 810 l 224 0 l 24 0 z "},"Ε":{"ha":1068,"x_min":107,"x_max":985,"o":"m 292 375 l 292 154 l 985 154 l 985 0 l 107 0 l 107 899 l 983 899 l 983 744 l 292 744 l 292 521 l 858 521 l 858 375 l 292 375 z "},"Ζ":{"ha":1057,"x_min":88,"x_max":969,"o":"m 88 899 l 969 899 l 969 744 l 253 103 l 236 154 l 969 154 l 969 0 l 88 0 l 88 154 l 804 796 l 821 744 l 88 744 l 88 899 z "},"Η":{"ha":1243,"x_min":107,"x_max":1136,"o":"m 269 528 l 982 528 l 982 374 l 269 374 l 269 528 m 951 899 l 1136 899 l 1136 0 l 951 0 l 951 899 m 107 899 l 292 899 l 292 0 l 107 0 l 107 899 z "},"Θ":{"ha":1283,"x_min":74,"x_max":1210,"o":"m 642 -18 q 335 38 463 -18 q 141 199 208 94 q 74 449 74 303 q 141 700 74 596 q 335 860 208 804 q 642 917 463 917 q 949 860 822 917 q 1142 700 1075 804 q 1210 449 1210 596 q 1142 199 1210 303 q 949 38 1075 94 q 642 -18 822 -18 m 642 142 q 837 175 753 142 q 969 276 921 208 q 1017 449 1017 344 q 969 621 1017 553 q 837 723 921 689 q 642 757 753 757 q 446 723 532 757 q 311 621 360 689 q 263 449 263 553 q 311 276 263 344 q 446 175 360 208 q 642 142 532 142 m 356 528 l 922 528 l 922 382 l 356 382 l 356 528 z "},"Ι":{"ha":450,"x_min":133,"x_max":318,"o":"m 133 899 l 318 899 l 318 0 l 133 0 l 133 899 z "},"Κ":{"ha":1131,"x_min":107,"x_max":1096,"o":"m 492 438 l 490 515 l 1096 0 l 829 0 l 290 472 l 769 899 l 1032 899 l 492 438 m 107 899 l 292 899 l 292 0 l 107 0 l 107 899 z "},"Λ":{"ha":1096,"x_min":24,"x_max":1072,"o":"m 24 0 l 446 899 l 646 899 l 1072 0 l 871 0 l 501 810 l 590 810 l 224 0 l 24 0 z "},"Μ":{"ha":1526,"x_min":107,"x_max":1419,"o":"m 806 92 l 718 92 l 1235 899 l 1419 899 l 1419 0 l 1235 0 l 1235 653 l 1279 640 l 867 0 l 660 0 l 247 638 l 292 650 l 292 0 l 107 0 l 107 899 l 292 899 l 806 92 z "},"Ν":{"ha":1251,"x_min":107,"x_max":1144,"o":"m 1018 183 l 960 160 l 960 899 l 1144 899 l 1144 0 l 960 0 l 233 710 l 292 733 l 292 0 l 107 0 l 107 899 l 292 899 l 1018 183 z "},"Ξ":{"ha":1067,"x_min":83,"x_max":983,"o":"m 83 899 l 983 899 l 983 744 l 83 744 l 83 899 m 83 154 l 983 154 l 983 0 l 83 0 l 83 154 m 208 535 l 858 535 l 858 389 l 208 389 l 208 535 z "},"Ο":{"ha":1283,"x_min":74,"x_max":1210,"o":"m 642 -18 q 335 38 463 -18 q 141 199 208 94 q 74 449 74 303 q 141 700 74 596 q 335 860 208 804 q 642 917 463 917 q 949 860 822 917 q 1142 700 1075 804 q 1210 449 1210 596 q 1142 199 1210 303 q 949 38 1075 94 q 642 -18 822 -18 m 642 142 q 837 175 753 142 q 969 276 921 208 q 1017 449 1017 344 q 969 621 1017 553 q 837 723 921 689 q 642 757 753 757 q 446 723 532 757 q 311 621 360 689 q 263 449 263 553 q 311 276 263 344 q 446 175 360 208 q 642 142 532 142 z "},"Π":{"ha":1243,"x_min":107,"x_max":1136,"o":"m 269 899 l 982 899 l 982 744 l 269 744 l 269 899 m 951 899 l 1136 899 l 1136 0 l 951 0 l 951 899 m 107 899 l 292 899 l 292 0 l 107 0 l 107 899 z "},"Ρ":{"ha":1089,"x_min":104,"x_max":1022,"o":"m 267 292 l 267 439 l 678 439 q 794 478 751 439 q 838 589 838 518 q 794 701 838 663 q 678 740 751 740 l 289 740 l 289 0 l 104 0 l 104 899 l 661 899 q 802 881 736 899 q 917 825 868 863 q 994 729 967 788 q 1022 589 1022 671 q 994 451 1022 508 q 917 359 967 394 q 802 308 868 324 q 661 292 736 292 l 267 292 z "},"Σ":{"ha":1118,"x_min":107,"x_max":1011,"o":"m 107 899 l 997 899 l 997 744 l 231 744 l 213 831 l 749 450 l 218 72 l 231 154 l 1011 154 l 1011 0 l 107 0 l 107 153 l 574 496 l 538 432 l 107 740 l 107 899 z "},"Τ":{"ha":1003,"x_min":28,"x_max":975,"o":"m 28 899 l 975 899 l 975 744 l 28 744 l 28 899 m 410 764 l 594 764 l 594 0 l 410 0 l 410 764 z "},"Υ":{"ha":1028,"x_min":26,"x_max":1001,"o":"m 1001 899 l 607 283 l 607 0 l 421 0 l 421 283 l 26 899 l 240 899 l 572 361 l 461 361 l 788 899 l 1001 899 z "},"Φ":{"ha":1367,"x_min":74,"x_max":1293,"o":"m 683 107 q 426 126 539 107 q 234 185 313 144 q 115 290 156 225 q 74 449 74 356 q 115 608 74 543 q 234 714 156 674 q 426 773 313 754 q 683 792 539 792 q 942 773 829 792 q 1133 714 1056 754 q 1252 608 1211 674 q 1293 449 1293 543 q 1252 290 1293 356 q 1133 185 1211 225 q 942 126 1056 144 q 683 107 829 107 m 683 267 q 908 281 815 267 q 1051 334 1001 294 q 1100 449 1100 374 q 1051 565 1100 525 q 908 618 1001 604 q 683 632 815 632 q 458 618 553 632 q 313 565 364 604 q 263 449 263 525 q 313 334 263 374 q 458 281 364 294 q 683 267 553 267 m 592 903 l 776 903 l 776 0 l 592 0 l 592 903 z "},"Χ":{"ha":1083,"x_min":54,"x_max":1029,"o":"m 800 899 l 1025 899 l 600 403 l 594 397 l 279 0 l 54 0 l 492 521 l 496 525 l 800 899 m 293 899 l 593 522 l 596 518 l 1029 0 l 794 0 l 483 403 l 479 406 l 68 899 l 293 899 z "},"Ψ":{"ha":1325,"x_min":94,"x_max":1231,"o":"m 1231 681 q 1192 490 1231 567 q 1081 367 1154 413 q 903 303 1008 322 q 663 283 797 283 q 422 303 528 283 q 244 367 317 322 q 133 490 171 413 q 94 681 94 567 l 94 903 l 279 903 l 279 681 q 308 549 279 597 q 388 478 336 501 q 510 449 440 456 q 663 443 579 443 q 815 449 746 443 q 937 478 885 456 q 1017 549 989 501 q 1046 681 1046 597 l 1046 903 l 1231 903 l 1231 681 m 569 903 l 754 903 l 754 0 l 569 0 l 569 903 z "},"Ω":{"ha":1211,"x_min":49,"x_max":1171,"o":"m 49 0 l 49 154 l 374 154 l 374 178 q 245 228 301 197 q 149 301 189 258 q 89 395 110 343 q 68 508 68 447 q 106 667 68 593 q 214 797 143 740 q 384 885 285 853 q 606 917 483 917 q 828 885 729 917 q 997 797 926 853 q 1106 667 1068 740 q 1143 508 1143 593 q 1117 380 1143 436 q 1046 283 1090 324 q 948 217 1001 243 q 840 178 894 190 l 840 154 l 1171 154 l 1171 0 l 696 0 l 696 211 q 822 269 761 233 q 920 358 882 304 q 958 490 958 413 q 919 628 958 568 q 802 724 881 689 q 606 758 724 758 q 409 724 488 758 q 292 628 331 689 q 253 490 253 568 q 292 355 253 410 q 394 266 332 300 q 524 211 457 232 l 524 0 l 49 0 z "},"Ά":{"ha":1192,"x_min":1,"x_max":1168,"o":"m 343 196 l 343 350 l 938 350 l 938 196 l 343 196 m 119 0 l 542 899 l 742 899 l 1168 0 l 967 0 l 597 810 l 686 810 l 319 0 l 119 0 m 1 679 l 190 899 l 429 899 l 174 679 l 1 679 z "},"Έ":{"ha":1461,"x_min":0,"x_max":1378,"o":"m 685 375 l 685 154 l 1378 154 l 1378 0 l 500 0 l 500 899 l 1376 899 l 1376 744 l 685 744 l 685 521 l 1251 521 l 1251 375 l 685 375 m 0 679 l 189 899 l 428 899 l 172 679 l 0 679 z "},"Ή":{"ha":1636,"x_min":0,"x_max":1529,"o":"m 663 528 l 1375 528 l 1375 374 l 663 374 l 663 528 m 1344 899 l 1529 899 l 1529 0 l 1344 0 l 1344 899 m 500 899 l 685 899 l 685 0 l 500 0 l 500 899 m 0 679 l 189 899 l 428 899 l 172 679 l 0 679 z "},"Ί":{"ha":843,"x_min":0,"x_max":711,"o":"m 526 899 l 711 899 l 711 0 l 526 0 l 526 899 m 0 679 l 189 899 l 428 899 l 172 679 l 0 679 z "},"Ό":{"ha":1551,"x_min":0,"x_max":1478,"o":"m 910 -18 q 603 38 731 -18 q 409 199 476 94 q 342 449 342 303 q 409 700 342 596 q 603 860 476 804 q 910 917 731 917 q 1217 860 1090 917 q 1410 700 1343 804 q 1478 449 1478 596 q 1410 199 1478 303 q 1217 38 1343 94 q 910 -18 1090 -18 m 910 142 q 1105 175 1021 142 q 1237 276 1189 208 q 1285 449 1285 344 q 1237 621 1285 553 q 1105 723 1189 689 q 910 757 1021 757 q 714 723 800 757 q 579 621 628 689 q 531 449 531 553 q 579 276 531 344 q 714 175 628 208 q 910 142 800 142 m 0 679 l 189 899 l 428 899 l 172 679 l 0 679 z "},"Ύ":{"ha":1449,"x_min":0,"x_max":1422,"o":"m 1422 899 l 1028 283 l 1028 0 l 842 0 l 842 283 l 447 899 l 661 899 l 993 361 l 882 361 l 1208 899 l 1422 899 m 0 679 l 189 899 l 428 899 l 172 679 l 0 679 z "},"Ώ":{"ha":1444,"x_min":0,"x_max":1404,"o":"m 282 0 l 282 154 l 607 154 l 607 178 q 478 228 535 197 q 383 301 422 258 q 322 395 343 343 q 301 508 301 447 q 339 667 301 593 q 447 797 376 740 q 617 885 518 853 q 839 917 717 917 q 1061 885 963 917 q 1231 797 1160 853 q 1339 667 1301 740 q 1376 508 1376 593 q 1350 380 1376 436 q 1279 283 1324 324 q 1181 217 1235 243 q 1074 178 1128 190 l 1074 154 l 1404 154 l 1404 0 l 929 0 l 929 211 q 1055 269 994 233 q 1153 358 1115 304 q 1192 490 1192 413 q 1153 628 1192 568 q 1035 724 1114 689 q 839 758 957 758 q 642 724 721 758 q 525 628 564 689 q 486 490 486 568 q 526 355 486 410 q 628 266 565 300 q 757 211 690 232 l 757 0 l 282 0 m 0 683 l 189 903 l 428 903 l 172 683 l 0 683 z "},"Ϊ":{"ha":450,"x_min":-31,"x_max":481,"o":"m 133 899 l 318 899 l 318 0 l 133 0 l 133 899 m 179 1167 l 179 1008 l -31 1008 l -31 1167 l 179 1167 m 481 1167 l 481 1008 l 271 1008 l 271 1167 l 481 1167 z "},"Ϋ":{"ha":1028,"x_min":26,"x_max":1001,"o":"m 1001 899 l 607 283 l 607 0 l 421 0 l 421 283 l 26 899 l 240 899 l 572 361 l 461 361 l 788 899 l 1001 899 m 468 1167 l 468 1008 l 258 1008 l 258 1167 l 468 1167 m 769 1167 l 769 1008 l 560 1008 l 560 1167 l 769 1167 z "},"α":{"ha":1004,"x_min":50,"x_max":924,"o":"m 419 -15 q 233 30 317 -15 q 99 156 149 75 q 50 344 50 238 q 100 535 50 454 q 235 660 150 615 q 429 706 321 706 q 622 658 549 706 q 728 528 694 610 q 761 344 761 446 q 742 220 761 283 q 682 103 722 157 q 576 17 642 50 q 419 -15 511 -15 m 478 124 q 619 151 560 124 q 711 229 679 179 q 743 344 743 279 q 710 465 743 415 q 619 540 678 514 q 478 565 560 565 q 299 505 363 565 q 235 344 235 444 q 265 228 235 278 q 351 151 296 179 q 478 124 406 124 m 743 690 l 924 690 l 924 0 l 756 0 q 752 31 756 4 q 746 98 749 58 q 743 178 743 138 l 743 690 z "},"β":{"ha":1006,"x_min":83,"x_max":956,"o":"m 956 261 q 909 110 956 172 q 783 16 863 49 q 600 -17 703 -17 q 442 16 508 -17 q 332 102 375 49 q 267 219 289 156 q 246 344 246 283 l 83 331 l 83 624 q 130 830 83 750 q 271 947 176 910 q 507 985 365 985 q 814 908 714 985 q 914 707 914 832 q 878 601 914 643 q 792 539 842 560 q 700 517 742 518 q 834 476 776 507 q 924 392 892 446 q 956 261 956 339 m 568 560 q 689 590 649 560 q 729 679 729 619 q 712 763 729 725 q 647 824 694 801 q 507 846 599 846 q 406 837 451 846 q 329 805 361 828 q 281 742 297 782 q 264 638 264 701 l 264 344 q 296 228 264 278 q 388 151 328 179 q 528 124 447 124 q 710 174 649 124 q 771 303 771 224 q 749 382 771 349 q 681 434 726 415 q 567 453 636 453 l 396 453 l 396 560 l 568 560 m 83 331 l 231 358 l 264 358 l 264 -278 l 83 -278 l 83 331 z "},"γ":{"ha":871,"x_min":21,"x_max":849,"o":"m 340 107 l 521 107 l 521 -278 l 340 -278 l 340 107 m 464 118 l 399 118 l 651 690 l 849 690 l 517 0 l 346 0 l 21 690 l 219 690 l 464 118 z "},"δ":{"ha":965,"x_min":50,"x_max":908,"o":"m 478 -17 q 249 25 344 -17 q 101 145 153 67 q 50 331 50 224 q 100 505 50 433 q 233 614 150 576 q 411 651 315 651 q 510 640 463 651 q 599 607 558 629 q 672 552 640 585 q 725 475 704 519 l 729 475 q 661 588 715 533 q 528 690 607 643 q 363 774 450 738 q 196 832 275 811 l 293 888 q 568 801 451 858 q 760 669 685 743 q 872 513 835 594 q 908 350 908 431 q 889 226 908 283 q 833 125 869 169 q 743 49 796 81 q 624 0 690 17 q 478 -17 557 -17 m 486 124 q 616 147 558 124 q 708 215 674 169 q 743 328 743 261 q 722 417 743 379 q 665 479 701 454 q 582 516 629 504 q 482 528 535 528 q 350 506 406 528 q 265 439 294 483 q 235 328 235 394 q 266 215 235 261 q 353 147 297 169 q 486 124 410 124 m 865 968 l 865 831 l 194 831 l 194 968 l 865 968 z "},"ε":{"ha":956,"x_min":65,"x_max":919,"o":"m 483 -17 q 273 3 368 -17 q 122 66 178 22 q 65 181 65 110 q 87 253 65 224 q 144 303 108 283 q 226 332 181 322 q 318 343 271 342 q 228 353 271 344 q 151 381 185 363 q 97 426 117 399 q 78 492 78 454 q 131 603 78 556 q 275 678 183 651 q 483 706 367 706 q 697 672 606 706 q 846 578 789 639 q 918 433 903 517 l 753 433 q 696 510 738 481 q 599 553 654 539 q 483 567 543 567 q 324 538 381 567 q 268 464 268 508 q 294 418 268 432 q 363 401 321 404 q 451 399 404 399 l 622 399 l 622 293 l 451 293 q 358 287 403 293 q 286 264 314 281 q 258 215 258 247 q 289 158 258 179 q 371 130 319 138 q 483 122 422 122 q 604 133 549 122 q 699 174 660 144 q 754 258 739 204 l 919 258 q 868 139 904 190 q 777 53 832 88 q 649 1 722 18 q 483 -17 575 -17 z "},"ζ":{"ha":760,"x_min":69,"x_max":774,"o":"m 774 831 q 519 707 621 768 q 360 585 418 646 q 277 465 301 525 q 253 343 253 404 q 271 262 253 293 q 320 210 289 231 q 390 176 351 190 q 469 147 428 161 q 549 110 510 132 q 619 53 588 88 q 668 -34 650 19 q 686 -167 686 -87 l 686 -278 l 506 -278 l 506 -167 q 488 -83 506 -115 q 438 -29 469 -50 q 368 6 407 -8 q 288 36 329 21 q 207 73 246 51 q 138 128 168 94 q 88 215 107 163 q 69 343 69 267 q 92 464 69 406 q 156 575 114 522 q 258 674 199 628 q 390 758 317 719 q 550 828 464 797 q 732 879 636 858 l 774 831 m 774 968 l 774 831 l 117 831 l 117 968 l 774 968 z "},"η":{"ha":963,"x_min":83,"x_max":882,"o":"m 83 690 l 264 690 l 264 0 l 83 0 l 83 690 m 585 706 q 703 689 649 706 q 797 638 757 672 q 860 549 838 603 q 882 422 882 496 l 882 -278 l 701 -278 l 701 390 q 659 519 701 478 q 521 560 617 560 q 390 532 449 560 q 296 462 332 504 q 254 374 260 419 l 253 444 q 285 539 260 493 q 352 623 310 585 q 453 683 394 661 q 585 706 511 706 z "},"θ":{"ha":1029,"x_min":64,"x_max":965,"o":"m 517 -18 q 258 47 358 -18 q 111 224 158 111 q 64 483 64 338 q 111 742 64 631 q 258 918 158 854 q 517 982 358 982 q 775 918 676 982 q 919 742 874 854 q 965 483 965 631 q 919 224 965 338 q 775 47 874 111 q 517 -18 676 -18 m 517 119 q 633 147 583 119 q 716 224 683 175 q 765 340 749 274 q 781 483 781 406 q 765 627 781 561 q 716 742 749 693 q 633 817 683 790 q 517 844 583 844 q 399 817 450 844 q 315 742 349 790 q 265 627 282 693 q 249 483 249 561 q 265 340 249 406 q 315 224 282 274 q 399 147 349 175 q 517 119 450 119 m 226 556 l 807 556 l 807 410 l 226 410 l 226 556 z "},"ι":{"ha":444,"x_min":83,"x_max":397,"o":"m 397 0 q 215 11 285 -14 q 115 94 146 36 q 83 235 83 151 l 83 690 l 264 690 l 264 253 q 297 157 264 182 q 397 142 329 132 l 397 0 z "},"κ":{"ha":889,"x_min":83,"x_max":878,"o":"m 83 690 l 264 690 l 264 0 l 83 0 l 83 690 m 846 690 l 435 328 l 439 439 l 878 0 l 649 0 l 268 388 l 600 690 l 846 690 z "},"λ":{"ha":871,"x_min":22,"x_max":850,"o":"m 393 572 l 472 572 l 219 0 l 22 0 l 354 690 l 525 690 l 850 0 l 651 0 l 393 572 m 229 972 q 371 937 313 972 q 467 819 429 901 l 525 690 l 376 594 l 314 736 q 260 816 288 797 q 181 835 233 835 l 104 835 l 104 972 l 229 972 z "},"μ":{"ha":1054,"x_min":83,"x_max":1015,"o":"m 1015 -10 q 833 19 903 -10 q 733 103 764 49 q 701 235 701 158 l 701 690 l 882 690 l 882 269 q 897 191 882 217 q 941 157 911 165 q 1015 149 971 149 l 1015 -10 m 711 332 l 713 285 q 701 228 710 265 q 675 150 693 192 q 626 70 657 108 q 547 8 594 32 q 431 -17 499 -17 q 310 16 358 -17 q 240 115 263 49 l 264 144 l 264 -278 l 83 -278 l 83 690 l 264 690 l 264 311 q 289 201 264 240 q 356 145 314 161 q 451 129 399 129 q 580 162 526 129 q 666 242 633 194 q 711 332 699 289 z "},"ν":{"ha":871,"x_min":21,"x_max":849,"o":"m 464 118 l 399 118 l 651 690 l 849 690 l 517 0 l 346 0 l 21 690 l 219 690 l 464 118 z "},"ξ":{"ha":724,"x_min":64,"x_max":710,"o":"m 64 264 q 83 349 64 313 q 134 409 101 385 q 206 447 167 433 q 288 461 246 460 q 212 474 246 463 q 153 507 178 486 q 116 556 129 528 q 103 617 103 583 q 117 685 103 654 q 160 739 131 715 q 235 781 189 763 q 343 815 281 800 q 487 842 406 831 q 668 864 568 854 l 710 831 q 535 790 607 808 q 417 752 464 771 q 342 714 369 733 q 304 671 315 694 q 293 617 293 647 q 309 557 293 581 q 356 522 325 533 q 435 510 388 510 l 619 510 l 619 404 l 435 404 q 343 396 386 404 q 272 363 300 388 q 244 290 244 339 q 263 234 244 256 q 313 199 282 213 q 382 172 343 185 q 462 145 421 160 q 541 108 503 131 q 610 51 579 86 q 660 -37 642 15 q 678 -167 678 -90 l 678 -278 l 497 -278 l 497 -167 q 474 -72 497 -108 q 413 -13 451 -36 q 327 26 374 10 q 235 58 281 42 q 150 99 189 75 q 88 163 111 124 q 64 264 64 201 m 710 968 l 710 831 l 81 831 l 81 968 l 710 968 z "},"ο":{"ha":978,"x_min":50,"x_max":928,"o":"m 490 -17 q 260 25 360 -17 q 106 147 161 67 q 50 343 50 226 q 106 541 50 460 q 260 664 161 622 q 490 706 360 706 q 719 664 621 706 q 872 541 817 622 q 928 343 928 460 q 872 147 928 226 q 719 25 817 67 q 490 -17 621 -17 m 490 122 q 620 148 563 122 q 711 223 678 174 q 744 343 744 272 q 711 465 744 414 q 621 542 678 515 q 490 568 564 568 q 360 542 418 568 q 267 465 301 515 q 233 343 233 415 q 267 223 233 272 q 358 148 300 174 q 490 122 417 122 z "},"π":{"ha":1088,"x_min":69,"x_max":1018,"o":"m 225 593 l 406 593 l 406 0 l 225 0 l 225 593 m 1018 690 l 1018 553 l 69 553 l 69 690 l 1018 690 m 863 265 q 875 183 863 213 q 922 144 888 153 q 1018 142 956 135 l 1018 0 q 839 -1 906 -15 q 740 51 772 14 q 699 142 708 89 q 689 257 689 196 l 689 593 l 863 593 l 863 265 z "},"ρ":{"ha":1006,"x_min":83,"x_max":956,"o":"m 586 -17 q 430 16 494 -17 q 325 102 365 49 q 265 219 285 156 q 246 344 246 283 l 83 331 q 135 528 83 443 q 287 659 188 613 q 528 706 386 706 q 756 660 660 706 q 903 533 851 614 q 956 344 956 451 q 906 153 956 235 q 772 28 856 72 q 586 -17 689 -17 m 528 124 q 656 151 601 124 q 741 228 711 179 q 771 344 771 278 q 708 506 771 444 q 528 567 644 567 q 394 540 454 567 q 299 465 333 514 q 264 344 264 415 q 296 228 264 278 q 388 151 328 179 q 528 124 447 124 m 83 331 l 231 358 l 264 344 l 264 -278 l 83 -278 l 83 331 z "},"ς":{"ha":953,"x_min":50,"x_max":901,"o":"m 233 343 q 258 238 233 278 q 322 175 282 197 q 414 140 363 153 q 519 115 465 126 q 624 88 574 104 q 716 42 675 71 q 781 -37 757 13 q 806 -167 806 -87 l 806 -278 l 625 -278 l 625 -167 q 601 -90 625 -118 q 535 -47 576 -62 q 444 -22 494 -32 q 338 1 393 -11 q 232 33 283 13 q 140 92 181 54 q 74 190 99 129 q 50 343 50 250 q 108 542 50 461 q 266 664 165 622 q 494 706 367 706 q 704 672 617 706 q 842 574 792 638 q 901 419 893 510 l 736 419 q 649 528 713 489 q 494 567 585 567 q 363 542 422 567 q 269 467 304 517 q 233 343 233 418 z "},"σ":{"ha":978,"x_min":50,"x_max":978,"o":"m 490 -17 q 260 24 360 -17 q 106 146 161 65 q 50 342 50 226 q 106 536 50 458 q 260 652 161 614 q 490 690 360 690 l 504 565 q 599 560 550 565 q 694 544 647 556 q 784 512 742 532 q 858 461 826 492 q 909 388 890 431 q 928 288 928 344 q 872 130 928 199 q 719 22 817 61 q 490 -17 621 -17 m 490 122 q 620 144 563 122 q 711 213 678 167 q 744 329 744 258 q 711 449 744 399 q 621 525 678 499 q 490 551 564 551 q 360 529 418 551 q 267 460 301 507 q 233 342 233 414 q 267 223 233 272 q 358 148 300 174 q 490 122 417 122 m 978 690 l 978 551 l 490 551 l 490 690 l 978 690 z "},"τ":{"ha":643,"x_min":42,"x_max":601,"o":"m 601 690 l 601 553 l 42 553 l 42 690 l 601 690 m 404 265 q 417 183 404 213 q 463 144 429 153 q 560 142 497 135 l 560 0 q 381 -1 447 -15 q 282 51 314 14 q 240 142 250 89 q 231 257 231 196 l 231 593 l 404 593 l 404 265 z "},"υ":{"ha":967,"x_min":83,"x_max":883,"o":"m 883 690 l 700 690 l 700 343 q 647 180 700 238 q 485 122 593 122 q 321 180 375 122 q 267 343 267 238 l 267 690 l 83 690 l 83 343 q 186 76 83 168 q 485 -17 289 -17 q 703 25 615 -17 q 838 147 792 67 q 883 343 883 226 l 883 690 z "},"φ":{"ha":1286,"x_min":63,"x_max":1224,"o":"m 1224 346 q 1201 476 1224 418 q 1135 578 1179 535 q 1022 650 1090 621 q 859 693 953 679 q 644 707 765 707 q 429 693 524 707 q 266 650 335 679 q 152 578 197 621 q 85 476 107 535 q 63 346 63 418 q 85 214 63 272 q 152 113 107 156 q 266 41 197 69 q 429 -2 335 13 q 644 -17 524 -17 q 859 -3 765 -17 q 1022 40 953 11 q 1135 113 1090 69 q 1201 214 1179 156 q 1224 346 1224 272 m 247 346 q 286 470 247 421 q 413 544 325 519 q 644 568 500 568 q 874 544 788 568 q 1000 472 961 521 q 1039 346 1039 422 q 1000 221 1039 271 q 874 147 961 171 q 644 122 788 122 q 413 147 500 122 q 286 220 325 171 q 247 346 247 269 m 733 -278 l 733 968 l 553 968 l 553 -278 l 733 -278 z "},"χ":{"ha":913,"x_min":28,"x_max":885,"o":"m 865 690 l 514 167 l 242 -278 l 28 -278 l 394 265 l 653 690 l 865 690 m 28 690 l 242 690 l 517 268 l 885 -278 l 671 -278 l 389 163 l 28 690 z "},"ψ":{"ha":1217,"x_min":83,"x_max":1133,"o":"m 1133 690 l 950 690 l 950 371 q 913 231 950 286 q 799 149 875 176 q 610 122 724 122 q 418 149 494 122 q 304 231 342 176 q 267 371 267 286 l 267 690 l 83 690 l 83 371 q 117 201 83 274 q 217 79 151 128 q 382 7 283 31 q 610 -17 481 -17 q 837 7 739 -17 q 1001 79 935 31 q 1100 201 1067 128 q 1133 371 1133 274 l 1133 690 m 699 -278 l 699 690 l 518 690 l 518 -278 l 699 -278 z "},"ω":{"ha":1322,"x_min":50,"x_max":1272,"o":"m 943 -17 q 773 28 840 -17 q 672 153 706 72 q 639 343 639 233 l 639 486 l 753 486 l 753 346 q 769 238 753 289 q 820 154 785 186 q 915 122 856 122 q 1006 154 967 122 q 1067 238 1044 186 q 1089 346 1089 289 q 1066 453 1089 403 q 1001 536 1043 504 q 899 568 958 568 l 899 707 q 1099 660 1015 707 q 1228 531 1183 613 q 1272 346 1272 449 q 1233 161 1272 243 q 1119 31 1193 79 q 943 -17 1046 -17 m 382 -17 q 205 31 279 -17 q 90 161 131 79 q 50 346 50 243 q 94 531 50 449 q 223 660 139 613 q 424 707 307 707 l 424 568 q 322 536 364 568 q 256 453 279 504 q 233 346 233 403 q 253 238 233 289 q 313 154 274 186 q 410 122 351 122 q 504 154 469 122 q 554 238 539 186 q 569 346 569 289 l 569 486 l 683 486 l 683 343 q 651 153 683 233 q 551 28 618 72 q 382 -17 485 -17 z "},"ί":{"ha":444,"x_min":76,"x_max":504,"o":"m 397 0 q 215 11 285 -14 q 115 94 146 36 q 83 235 83 151 l 83 690 l 264 690 l 264 253 q 297 157 264 182 q 397 142 329 132 l 397 0 m 76 835 l 265 1054 l 504 1054 l 249 835 l 76 835 z "},"ϊ":{"ha":444,"x_min":-75,"x_max":436,"o":"m 397 0 q 215 11 285 -14 q 115 94 146 36 q 83 235 83 151 l 83 690 l 264 690 l 264 253 q 297 157 264 182 q 397 142 329 132 l 397 0 m 135 994 l 135 836 l -75 836 l -75 994 l 135 994 m 436 994 l 436 836 l 226 836 l 226 994 l 436 994 z "},"ΐ":{"ha":444,"x_min":-221,"x_max":624,"o":"m 397 0 q 215 11 285 -14 q 115 94 146 36 q 83 235 83 151 l 83 690 l 264 690 l 264 253 q 297 157 264 182 q 397 142 329 132 l 397 0 m -11 996 l -11 838 l -221 838 l -221 996 l -11 996 m 624 996 l 624 838 l 414 838 l 414 996 l 624 996 m 25 838 l 214 1057 l 453 1057 l 197 838 l 25 838 z "},"ύ":{"ha":967,"x_min":83,"x_max":883,"o":"m 883 690 l 700 690 l 700 343 q 647 180 700 238 q 485 122 593 122 q 321 180 375 122 q 267 343 267 238 l 267 690 l 83 690 l 83 343 q 186 76 83 168 q 485 -17 289 -17 q 703 25 615 -17 q 838 147 792 67 q 883 343 883 226 l 883 690 m 388 835 l 576 1054 l 815 1054 l 560 835 l 388 835 z "},"ϋ":{"ha":967,"x_min":83,"x_max":883,"o":"m 883 690 l 700 690 l 700 343 q 647 180 700 238 q 485 122 593 122 q 321 180 375 122 q 267 343 267 238 l 267 690 l 83 690 l 83 343 q 186 76 83 168 q 485 -17 289 -17 q 703 25 615 -17 q 838 147 792 67 q 883 343 883 226 l 883 690 m 438 994 l 438 836 l 228 836 l 228 994 l 438 994 m 739 994 l 739 836 l 529 836 l 529 994 l 739 994 z "},"ΰ":{"ha":967,"x_min":61,"x_max":906,"o":"m 883 690 l 700 690 l 700 343 q 647 180 700 238 q 485 122 593 122 q 321 180 375 122 q 267 343 267 238 l 267 690 l 83 690 l 83 343 q 186 76 83 168 q 485 -17 289 -17 q 703 25 615 -17 q 838 147 792 67 q 883 343 883 226 l 883 690 m 271 996 l 271 838 l 61 838 l 61 996 l 271 996 m 906 996 l 906 838 l 696 838 l 696 996 l 906 996 m 307 838 l 496 1057 l 735 1057 l 479 838 l 307 838 z "},"ό":{"ha":978,"x_min":50,"x_max":928,"o":"m 490 -17 q 260 25 360 -17 q 106 147 161 67 q 50 343 50 226 q 106 541 50 460 q 260 664 161 622 q 490 706 360 706 q 719 664 621 706 q 872 541 817 622 q 928 343 928 460 q 872 147 928 226 q 719 25 817 67 q 490 -17 621 -17 m 490 122 q 620 148 563 122 q 711 223 678 174 q 744 343 744 272 q 711 465 744 414 q 621 542 678 515 q 490 568 564 568 q 360 542 418 568 q 267 465 301 515 q 233 343 233 415 q 267 223 233 272 q 358 148 300 174 q 490 122 417 122 m 393 835 l 582 1054 l 821 1054 l 565 835 l 393 835 z "},"ώ":{"ha":1322,"x_min":50,"x_max":1272,"o":"m 943 -17 q 773 28 840 -17 q 672 153 706 72 q 639 343 639 233 l 639 486 l 753 486 l 753 346 q 769 238 753 289 q 820 154 785 186 q 915 122 856 122 q 1006 154 967 122 q 1067 238 1044 186 q 1089 346 1089 289 q 1066 453 1089 403 q 1001 536 1043 504 q 899 568 958 568 l 899 707 q 1099 660 1015 707 q 1228 531 1183 613 q 1272 346 1272 449 q 1233 161 1272 243 q 1119 31 1193 79 q 943 -17 1046 -17 m 382 -17 q 205 31 279 -17 q 90 161 131 79 q 50 346 50 243 q 94 531 50 449 q 223 660 139 613 q 424 707 307 707 l 424 568 q 322 536 364 568 q 256 453 279 504 q 233 346 233 403 q 253 238 233 289 q 313 154 274 186 q 410 122 351 122 q 504 154 469 122 q 554 238 539 186 q 569 346 569 289 l 569 486 l 683 486 l 683 343 q 651 153 683 233 q 551 28 618 72 q 382 -17 485 -17 m 563 835 l 751 1054 l 990 1054 l 735 835 l 563 835 z "},"ά":{"ha":1004,"x_min":50,"x_max":924,"o":"m 419 -15 q 233 30 317 -15 q 99 156 149 75 q 50 344 50 238 q 100 535 50 454 q 235 660 150 615 q 429 706 321 706 q 622 658 549 706 q 728 528 694 610 q 761 344 761 446 q 742 220 761 283 q 682 103 722 157 q 576 17 642 50 q 419 -15 511 -15 m 478 124 q 619 151 560 124 q 711 229 679 179 q 743 344 743 279 q 710 465 743 415 q 619 540 678 514 q 478 565 560 565 q 299 505 363 565 q 235 344 235 444 q 265 228 235 278 q 351 151 296 179 q 478 124 406 124 m 743 690 l 924 690 l 924 0 l 756 0 q 752 31 756 4 q 746 98 749 58 q 743 178 743 138 l 743 690 m 381 835 l 569 1054 l 808 1054 l 553 835 l 381 835 z "},"έ":{"ha":956,"x_min":65,"x_max":919,"o":"m 483 -17 q 273 3 368 -17 q 122 66 178 22 q 65 181 65 110 q 87 253 65 224 q 144 303 108 283 q 226 332 181 322 q 318 343 271 342 q 228 353 271 344 q 151 381 185 363 q 97 426 117 399 q 78 492 78 454 q 131 603 78 556 q 275 678 183 651 q 483 706 367 706 q 697 672 606 706 q 846 578 789 639 q 918 433 903 517 l 753 433 q 696 510 738 481 q 599 553 654 539 q 483 567 543 567 q 324 538 381 567 q 268 464 268 508 q 294 418 268 432 q 363 401 321 404 q 451 399 404 399 l 622 399 l 622 293 l 451 293 q 358 287 403 293 q 286 264 314 281 q 258 215 258 247 q 289 158 258 179 q 371 130 319 138 q 483 122 422 122 q 604 133 549 122 q 699 174 660 144 q 754 258 739 204 l 919 258 q 868 139 904 190 q 777 53 832 88 q 649 1 722 18 q 483 -17 575 -17 m 385 835 l 574 1054 l 813 1054 l 557 835 l 385 835 z "},"ή":{"ha":963,"x_min":83,"x_max":882,"o":"m 83 690 l 264 690 l 264 0 l 83 0 l 83 690 m 585 706 q 703 689 649 706 q 797 638 757 672 q 860 549 838 603 q 882 422 882 496 l 882 -278 l 701 -278 l 701 390 q 659 519 701 478 q 521 560 617 560 q 390 532 449 560 q 296 462 332 504 q 254 374 260 419 l 253 444 q 285 539 260 493 q 352 623 310 585 q 453 683 394 661 q 585 706 511 706 m 431 835 l 619 1054 l 858 1054 l 603 835 l 431 835 z "},"⁄":{"ha":117,"x_min":-236,"x_max":367,"o":"m 292 972 l 367 931 l -164 -28 l -236 17 l 292 972 z "},"½":{"ha":1338,"x_min":35,"x_max":1282,"o":"m 35 353 l 35 474 l 206 474 l 206 778 l 40 778 l 40 899 l 364 899 l 364 474 l 508 474 l 508 353 l 35 353 m 924 972 l 999 931 l 468 -28 l 396 17 l 924 972 m 1282 0 l 806 0 l 806 118 q 928 177 875 149 q 1019 232 982 206 q 1080 283 1057 258 q 1114 328 1103 307 q 1125 369 1125 350 q 1042 433 1125 433 q 960 414 985 433 q 931 375 935 394 l 796 375 q 821 468 793 426 q 905 535 849 510 q 1043 561 961 561 q 1165 542 1113 561 q 1247 488 1218 524 q 1276 400 1276 453 q 1249 303 1276 346 q 1174 226 1221 261 q 1069 161 1128 192 l 975 118 l 1282 122 l 1282 0 z "},"↉":{"ha":1381,"x_min":50,"x_max":1331,"o":"m 335 910 q 492 874 429 910 q 588 773 556 838 q 621 622 621 708 q 588 472 621 536 q 492 371 556 407 q 335 335 429 335 q 178 371 242 335 q 83 472 115 407 q 50 622 50 536 q 83 773 50 708 q 178 874 115 838 q 335 910 242 910 m 335 474 q 433 513 400 474 q 467 622 467 553 q 433 730 467 690 q 335 769 400 769 q 237 730 271 769 q 203 622 203 690 q 237 514 203 554 q 335 474 271 474 m 963 972 l 1038 931 l 507 -28 l 435 17 l 963 972 m 1139 279 q 1240 262 1197 275 q 1307 222 1283 249 q 1331 151 1331 196 q 1266 28 1331 75 q 1086 -18 1201 -18 q 950 6 1007 -18 q 864 72 893 29 q 838 168 835 114 l 957 168 q 990 120 958 138 q 1085 103 1022 103 q 1165 119 1140 103 q 1189 169 1189 136 q 1158 221 1189 204 q 1065 238 1126 238 l 985 238 l 985 314 l 1065 314 q 1154 331 1128 314 q 1181 378 1181 347 q 1156 418 1181 403 q 1081 433 1132 433 q 995 417 1026 433 q 963 378 964 401 l 843 378 q 871 474 840 433 q 956 538 901 515 q 1079 560 1011 560 q 1258 516 1194 560 q 1321 410 1321 472 q 1272 316 1321 347 q 1139 279 1222 285 z "},"⅓":{"ha":1342,"x_min":35,"x_max":1292,"o":"m 35 353 l 35 474 l 206 474 l 206 778 l 40 778 l 40 899 l 364 899 l 364 474 l 508 474 l 508 353 l 35 353 m 924 972 l 999 931 l 468 -28 l 396 17 l 924 972 m 1100 279 q 1201 262 1158 275 q 1268 222 1244 249 q 1292 151 1292 196 q 1227 28 1292 75 q 1047 -18 1163 -18 q 911 6 968 -18 q 825 72 854 29 q 799 168 796 114 l 918 168 q 951 120 919 138 q 1046 103 983 103 q 1126 119 1101 103 q 1150 169 1150 136 q 1119 221 1150 204 q 1026 238 1088 238 l 946 238 l 946 314 l 1026 314 q 1115 331 1089 314 q 1142 378 1142 347 q 1117 418 1142 403 q 1042 433 1093 433 q 956 417 988 433 q 924 378 925 401 l 804 378 q 832 474 801 433 q 917 538 863 515 q 1040 560 972 560 q 1219 516 1156 560 q 1282 410 1282 472 q 1233 316 1282 347 q 1100 279 1183 285 z "},"⅔":{"ha":1367,"x_min":44,"x_max":1317,"o":"m 533 353 l 57 353 l 57 471 q 180 530 126 501 q 271 585 233 558 q 331 635 308 611 q 365 681 354 658 q 376 722 376 703 q 293 785 376 785 q 211 766 236 785 q 182 728 186 747 l 47 728 q 72 820 44 778 q 156 888 100 863 q 294 913 213 913 q 417 894 364 913 q 499 840 469 876 q 528 751 528 804 q 500 656 528 699 q 426 579 472 614 q 321 514 379 544 l 226 471 l 533 475 l 533 353 m 949 972 l 1024 931 l 493 -28 l 421 17 l 949 972 m 1125 279 q 1226 262 1183 275 q 1293 222 1269 249 q 1317 151 1317 196 q 1252 28 1317 75 q 1072 -18 1188 -18 q 936 6 993 -18 q 850 72 879 29 q 824 168 821 114 l 943 168 q 976 120 944 138 q 1071 103 1008 103 q 1151 119 1126 103 q 1175 169 1175 136 q 1144 221 1175 204 q 1051 238 1113 238 l 971 238 l 971 314 l 1051 314 q 1140 331 1114 314 q 1167 378 1167 347 q 1142 418 1167 403 q 1067 433 1118 433 q 981 417 1013 433 q 949 378 950 401 l 829 378 q 857 474 826 433 q 942 538 888 515 q 1065 560 997 560 q 1244 516 1181 560 q 1307 410 1307 472 q 1258 316 1307 347 q 1125 279 1208 285 z "},"¼":{"ha":1275,"x_min":35,"x_max":1219,"o":"m 35 353 l 35 474 l 206 474 l 206 778 l 40 778 l 40 899 l 364 899 l 364 474 l 508 474 l 508 353 l 35 353 m 924 972 l 999 931 l 468 -28 l 396 17 l 924 972 m 990 0 l 990 100 l 711 100 l 711 214 l 1007 546 l 1147 546 l 1147 210 l 1219 210 l 1219 100 l 1147 100 l 1147 0 l 990 0 m 865 204 l 996 204 l 996 379 l 865 204 z "},"¾":{"ha":1254,"x_min":47,"x_max":1199,"o":"m 347 631 q 451 614 407 626 q 519 576 494 601 q 543 504 543 550 q 478 381 543 428 q 299 335 414 335 q 163 358 219 335 q 76 424 106 382 q 50 521 47 467 l 169 521 q 203 472 171 490 q 297 454 235 454 q 377 472 353 454 q 401 522 401 489 q 370 573 401 556 q 278 590 339 590 l 197 590 l 197 667 l 278 667 q 367 683 340 667 q 393 731 393 700 q 369 771 393 756 q 293 786 344 786 q 208 770 239 786 q 175 731 176 754 l 56 731 q 83 827 53 786 q 169 890 114 868 q 292 913 224 913 q 470 869 407 913 q 533 763 533 825 q 483 668 533 700 q 347 631 433 636 m 903 972 l 978 931 l 447 -28 l 375 17 l 903 972 m 969 0 l 969 100 l 690 100 l 690 214 l 986 546 l 1126 546 l 1126 210 l 1199 210 l 1199 100 l 1126 100 l 1126 0 l 969 0 m 844 204 l 975 204 l 975 379 l 844 204 z "},"⅕":{"ha":1396,"x_min":35,"x_max":1331,"o":"m 35 353 l 35 474 l 206 474 l 206 778 l 40 778 l 40 899 l 364 899 l 364 474 l 508 474 l 508 353 l 35 353 m 924 972 l 999 931 l 468 -28 l 396 17 l 924 972 m 1129 350 q 1234 328 1189 350 q 1305 267 1279 307 q 1331 171 1331 228 q 1267 32 1331 82 q 1085 -18 1203 -18 q 954 4 1011 -18 q 865 69 897 26 q 829 168 832 111 l 956 168 q 994 119 958 138 q 1089 100 1029 100 q 1160 120 1133 100 q 1188 178 1188 140 q 1161 235 1188 217 q 1093 254 1135 254 q 1032 250 1060 254 q 986 237 1004 246 q 963 214 968 228 l 851 243 l 871 547 l 1278 547 l 1278 429 l 981 429 l 969 293 q 1036 336 997 322 q 1129 350 1075 350 z "},"⅖":{"ha":1421,"x_min":44,"x_max":1356,"o":"m 533 353 l 57 353 l 57 471 q 180 530 126 501 q 271 585 233 558 q 331 635 308 611 q 365 681 354 658 q 376 722 376 703 q 293 785 376 785 q 211 766 236 785 q 182 728 186 747 l 47 728 q 72 820 44 778 q 156 888 100 863 q 294 913 213 913 q 417 894 364 913 q 499 840 469 876 q 528 751 528 804 q 500 656 528 699 q 426 579 472 614 q 321 514 379 544 l 226 471 l 533 475 l 533 353 m 949 972 l 1024 931 l 493 -28 l 421 17 l 949 972 m 1154 350 q 1259 328 1214 350 q 1330 267 1304 307 q 1356 171 1356 228 q 1292 32 1356 82 q 1110 -18 1228 -18 q 979 4 1036 -18 q 890 69 922 26 q 854 168 857 111 l 981 168 q 1019 119 983 138 q 1114 100 1054 100 q 1185 120 1158 100 q 1213 178 1213 140 q 1186 235 1213 217 q 1118 254 1160 254 q 1057 250 1085 254 q 1011 237 1029 246 q 988 214 993 228 l 876 243 l 896 547 l 1303 547 l 1303 429 l 1006 429 l 994 293 q 1061 336 1022 322 q 1154 350 1100 350 z "},"⅗":{"ha":1375,"x_min":47,"x_max":1310,"o":"m 347 631 q 451 614 407 626 q 519 576 494 601 q 543 504 543 550 q 478 381 543 428 q 299 335 414 335 q 163 358 219 335 q 76 424 106 382 q 50 521 47 467 l 169 521 q 203 472 171 490 q 297 454 235 454 q 377 472 353 454 q 401 522 401 489 q 370 573 401 556 q 278 590 339 590 l 197 590 l 197 667 l 278 667 q 367 683 340 667 q 393 731 393 700 q 369 771 393 756 q 293 786 344 786 q 208 770 239 786 q 175 731 176 754 l 56 731 q 83 827 53 786 q 169 890 114 868 q 292 913 224 913 q 470 869 407 913 q 533 763 533 825 q 483 668 533 700 q 347 631 433 636 m 903 972 l 978 931 l 447 -28 l 375 17 l 903 972 m 1108 350 q 1213 328 1168 350 q 1284 267 1258 307 q 1310 171 1310 228 q 1246 32 1310 82 q 1064 -18 1182 -18 q 933 4 990 -18 q 844 69 876 26 q 808 168 811 111 l 935 168 q 973 119 938 138 q 1068 100 1008 100 q 1140 120 1113 100 q 1167 178 1167 140 q 1140 235 1167 217 q 1072 254 1114 254 q 1011 250 1039 254 q 965 237 983 246 q 942 214 947 228 l 831 243 l 850 547 l 1257 547 l 1257 429 l 960 429 l 949 293 q 1015 336 976 322 q 1108 350 1054 350 z "},"⅘":{"ha":1429,"x_min":65,"x_max":1364,"o":"m 344 353 l 344 451 l 65 451 l 65 567 l 361 899 l 501 899 l 501 563 l 574 563 l 574 451 l 501 451 l 501 353 l 344 353 m 219 557 l 350 557 l 350 732 l 219 557 m 957 972 l 1032 931 l 501 -28 l 429 17 l 957 972 m 1163 350 q 1267 328 1222 350 q 1338 267 1313 307 q 1364 171 1364 228 q 1300 32 1364 82 q 1118 -18 1236 -18 q 988 4 1044 -18 q 898 69 931 26 q 863 168 865 111 l 989 168 q 1027 119 992 138 q 1122 100 1063 100 q 1194 120 1167 100 q 1221 178 1221 140 q 1194 235 1221 217 q 1126 254 1168 254 q 1065 250 1093 254 q 1019 237 1038 246 q 996 214 1001 228 l 885 243 l 904 547 l 1311 547 l 1311 429 l 1014 429 l 1003 293 q 1069 336 1031 322 q 1163 350 1108 350 z "},"⅙":{"ha":1300,"x_min":35,"x_max":1250,"o":"m 35 353 l 35 474 l 206 474 l 206 778 l 40 778 l 40 899 l 364 899 l 364 474 l 508 474 l 508 353 l 35 353 m 924 972 l 999 931 l 468 -28 l 396 17 l 924 972 m 1042 374 q 1193 321 1136 374 q 1250 182 1250 268 q 1186 36 1250 90 q 1007 -18 1122 -18 q 860 6 921 -18 q 766 74 799 31 q 733 169 733 117 q 741 225 733 197 q 772 285 749 253 q 800 331 781 300 q 844 398 819 361 q 892 468 869 435 q 931 524 915 501 q 946 546 946 546 l 1115 546 l 950 350 q 992 367 969 361 q 1042 374 1014 374 m 999 103 q 1087 126 1058 103 q 1115 186 1115 150 q 1086 247 1115 224 q 997 269 1057 269 q 906 247 940 269 q 872 186 872 224 q 906 126 872 150 q 999 103 940 103 z "},"⅚":{"ha":1315,"x_min":81,"x_max":1265,"o":"m 381 703 q 485 681 440 703 q 556 619 531 660 q 582 522 582 579 q 518 384 582 433 q 336 335 454 335 q 206 357 263 335 q 116 422 149 379 q 81 521 83 464 l 207 521 q 245 472 210 490 q 340 453 281 453 q 412 472 385 453 q 439 531 439 492 q 413 588 439 569 q 344 607 386 607 q 283 602 311 607 q 238 589 256 597 q 214 567 219 581 l 103 594 l 122 899 l 529 899 l 529 782 l 232 782 l 221 646 q 288 689 249 675 q 381 703 328 703 m 939 972 l 1014 931 l 483 -28 l 411 17 l 939 972 m 1057 374 q 1208 321 1151 374 q 1265 182 1265 268 q 1201 36 1265 90 q 1022 -18 1138 -18 q 875 6 936 -18 q 781 74 814 31 q 749 169 749 117 q 756 225 749 197 q 788 285 764 253 q 815 331 796 300 q 860 398 835 361 q 908 468 885 435 q 946 524 931 501 q 961 546 961 546 l 1131 546 l 965 350 q 1007 367 985 361 q 1057 374 1029 374 m 1014 103 q 1102 126 1074 103 q 1131 186 1131 150 q 1101 247 1131 224 q 1013 269 1072 269 q 922 247 956 269 q 888 186 888 224 q 922 126 888 150 q 1014 103 956 103 z "},"⅐":{"ha":1360,"x_min":35,"x_max":1328,"o":"m 35 353 l 35 474 l 206 474 l 206 778 l 40 778 l 40 899 l 364 899 l 364 474 l 508 474 l 508 353 l 35 353 m 924 972 l 999 931 l 468 -28 l 396 17 l 924 972 m 858 428 l 858 546 l 1328 546 l 1328 426 l 1108 0 l 939 0 l 1168 428 l 858 428 z "},"⅛":{"ha":1363,"x_min":35,"x_max":1304,"o":"m 35 353 l 35 474 l 206 474 l 206 778 l 40 778 l 40 899 l 364 899 l 364 474 l 508 474 l 508 353 l 35 353 m 924 972 l 999 931 l 468 -28 l 396 17 l 924 972 m 1169 281 q 1238 258 1207 275 q 1286 215 1268 242 q 1304 150 1304 188 q 1276 63 1304 100 q 1193 3 1249 25 q 1056 -18 1138 -18 q 918 3 974 -18 q 835 63 863 25 q 807 150 807 100 q 824 215 807 188 q 871 258 842 242 q 935 282 900 275 q 878 305 904 289 q 838 345 853 321 q 822 403 822 369 q 882 517 822 475 q 1056 558 942 558 q 1228 517 1169 558 q 1288 403 1288 475 q 1254 322 1288 353 q 1169 281 1221 292 m 1056 439 q 988 424 1010 439 q 967 382 967 408 q 989 339 967 356 q 1056 322 1011 322 q 1124 339 1100 322 q 1147 382 1147 356 q 1124 424 1147 408 q 1056 439 1100 439 m 1056 100 q 1135 118 1108 100 q 1163 167 1163 136 q 1135 217 1163 199 q 1056 235 1108 235 q 976 217 1001 235 q 950 167 950 199 q 976 118 950 136 q 1056 100 1001 100 z "},"⅜":{"ha":1342,"x_min":47,"x_max":1283,"o":"m 347 631 q 451 614 407 626 q 519 576 494 601 q 543 504 543 550 q 478 381 543 428 q 299 335 414 335 q 163 358 219 335 q 76 424 106 382 q 50 521 47 467 l 169 521 q 203 472 171 490 q 297 454 235 454 q 377 472 353 454 q 401 522 401 489 q 370 573 401 556 q 278 590 339 590 l 197 590 l 197 667 l 278 667 q 367 683 340 667 q 393 731 393 700 q 369 771 393 756 q 293 786 344 786 q 208 770 239 786 q 175 731 176 754 l 56 731 q 83 827 53 786 q 169 890 114 868 q 292 913 224 913 q 470 869 407 913 q 533 763 533 825 q 483 668 533 700 q 347 631 433 636 m 903 972 l 978 931 l 447 -28 l 375 17 l 903 972 m 1149 281 q 1217 258 1186 275 q 1265 215 1247 242 q 1283 150 1283 188 q 1256 63 1283 100 q 1172 3 1228 25 q 1035 -18 1117 -18 q 897 3 953 -18 q 814 63 842 25 q 786 150 786 100 q 803 215 786 188 q 850 258 821 242 q 914 282 879 275 q 858 305 883 289 q 817 345 832 321 q 801 403 801 369 q 861 517 801 475 q 1035 558 921 558 q 1208 517 1149 558 q 1267 403 1267 475 q 1233 322 1267 353 q 1149 281 1200 292 m 1035 439 q 967 424 989 439 q 946 382 946 408 q 968 339 946 356 q 1035 322 990 322 q 1103 339 1079 322 q 1126 382 1126 356 q 1103 424 1126 408 q 1035 439 1079 439 m 1035 100 q 1115 118 1088 100 q 1142 167 1142 136 q 1115 217 1142 199 q 1035 235 1088 235 q 955 217 981 235 q 929 167 929 199 q 955 118 929 136 q 1035 100 981 100 z "},"⅝":{"ha":1378,"x_min":81,"x_max":1319,"o":"m 381 703 q 485 681 440 703 q 556 619 531 660 q 582 522 582 579 q 518 384 582 433 q 336 335 454 335 q 206 357 263 335 q 116 422 149 379 q 81 521 83 464 l 207 521 q 245 472 210 490 q 340 453 281 453 q 412 472 385 453 q 439 531 439 492 q 413 588 439 569 q 344 607 386 607 q 283 602 311 607 q 238 589 256 597 q 214 567 219 581 l 103 594 l 122 899 l 529 899 l 529 782 l 232 782 l 221 646 q 288 689 249 675 q 381 703 328 703 m 939 972 l 1014 931 l 483 -28 l 411 17 l 939 972 m 1185 281 q 1253 258 1222 275 q 1301 215 1283 242 q 1319 150 1319 188 q 1292 63 1319 100 q 1208 3 1264 25 q 1071 -18 1153 -18 q 933 3 989 -18 q 850 63 878 25 q 822 150 822 100 q 840 215 822 188 q 886 258 857 242 q 950 282 915 275 q 894 305 919 289 q 853 345 868 321 q 838 403 838 369 q 897 517 838 475 q 1071 558 957 558 q 1244 517 1185 558 q 1303 403 1303 475 q 1269 322 1303 353 q 1185 281 1236 292 m 1071 439 q 1003 424 1025 439 q 982 382 982 408 q 1004 339 982 356 q 1071 322 1026 322 q 1139 339 1115 322 q 1163 382 1163 356 q 1139 424 1163 408 q 1071 439 1115 439 m 1071 100 q 1151 118 1124 100 q 1178 167 1178 136 q 1151 217 1178 199 q 1071 235 1124 235 q 991 217 1017 235 q 965 167 965 199 q 991 118 965 136 q 1071 100 1017 100 z "},"⅞":{"ha":1222,"x_min":32,"x_max":1164,"o":"m 32 779 l 32 899 l 501 899 l 501 778 l 282 353 l 113 353 l 342 779 l 32 779 m 783 972 l 858 931 l 328 -28 l 256 17 l 783 972 m 1029 281 q 1097 258 1067 275 q 1146 215 1128 242 q 1164 150 1164 188 q 1136 63 1164 100 q 1053 3 1108 25 q 915 -18 997 -18 q 778 3 833 -18 q 694 63 722 25 q 667 150 667 100 q 684 215 667 188 q 731 258 701 242 q 794 282 760 275 q 738 305 764 289 q 697 345 713 321 q 682 403 682 369 q 742 517 682 475 q 915 558 801 558 q 1088 517 1029 558 q 1147 403 1147 475 q 1114 322 1147 353 q 1029 281 1081 292 m 915 439 q 848 424 869 439 q 826 382 826 408 q 849 339 826 356 q 915 322 871 322 q 983 339 960 322 q 1007 382 1007 356 q 983 424 1007 408 q 915 439 960 439 m 915 100 q 995 118 968 100 q 1022 167 1022 136 q 995 217 1022 199 q 915 235 968 235 q 835 217 861 235 q 810 167 810 199 q 835 118 810 136 q 915 100 861 100 z "},"⅑":{"ha":1356,"x_min":35,"x_max":1317,"o":"m 35 353 l 35 474 l 206 474 l 206 778 l 40 778 l 40 899 l 364 899 l 364 474 l 508 474 l 508 353 l 35 353 m 924 972 l 999 931 l 468 -28 l 396 17 l 924 972 m 1049 560 q 1192 535 1132 560 q 1285 468 1253 511 q 1317 371 1317 425 q 1309 317 1317 344 q 1278 256 1301 289 q 1249 212 1269 242 q 1204 146 1229 182 q 1156 76 1179 110 q 1118 22 1133 43 q 1103 0 1103 0 l 933 0 l 1096 189 q 1059 174 1078 179 q 1017 168 1040 168 q 857 221 915 168 q 799 360 799 274 q 865 506 799 451 q 1049 560 931 560 m 1053 272 q 1143 295 1110 272 q 1176 356 1176 318 q 1143 415 1176 392 q 1053 438 1110 438 q 967 415 996 438 q 939 356 939 392 q 968 295 939 318 q 1053 272 997 272 z "},"⅒":{"ha":2071,"x_min":35,"x_max":1994,"o":"m 35 353 l 35 474 l 206 474 l 206 778 l 40 778 l 40 899 l 364 899 l 364 474 l 508 474 l 508 353 l 35 353 m 926 972 l 1001 931 l 471 -28 l 399 17 l 926 972 m 913 0 l 913 121 l 1083 121 l 1083 425 l 918 425 l 918 546 l 1242 546 l 1242 121 l 1386 121 l 1386 0 l 913 0 m 1708 558 q 1866 522 1803 558 q 1962 421 1929 486 q 1994 269 1994 356 q 1962 119 1994 183 q 1866 18 1929 54 q 1708 -18 1803 -18 q 1552 18 1615 -18 q 1456 119 1489 54 q 1424 269 1424 183 q 1456 421 1424 356 q 1552 522 1489 486 q 1708 558 1615 558 m 1708 121 q 1807 161 1774 121 q 1840 269 1840 201 q 1807 378 1840 339 q 1708 417 1774 417 q 1610 378 1644 417 q 1576 269 1576 339 q 1610 161 1576 201 q 1708 121 1644 121 z "},"¹":{"ha":343,"x_min":56,"x_max":260,"o":"m 56 883 l 56 972 l 260 972 l 260 556 l 165 556 l 165 883 l 56 883 z "},"²":{"ha":463,"x_min":63,"x_max":393,"o":"m 199 640 l 389 649 l 389 556 l 82 556 l 82 643 q 196 723 149 693 q 267 776 243 753 q 292 829 292 799 q 275 872 292 856 q 226 889 258 889 q 174 865 193 889 q 165 808 156 842 l 74 808 q 81 897 63 857 q 140 962 100 938 q 233 986 181 986 q 352 944 311 986 q 393 843 393 901 q 344 728 393 772 q 199 640 294 685 z "},"³":{"ha":456,"x_min":65,"x_max":386,"o":"m 289 763 q 386 657 386 742 q 349 570 386 610 q 231 531 313 531 q 103 578 142 531 q 69 686 65 626 l 161 686 q 173 648 160 668 q 231 628 186 628 q 276 643 263 628 q 290 681 290 658 q 224 728 290 728 l 147 728 l 147 796 l 224 796 q 271 810 257 796 q 285 846 285 824 q 228 892 285 892 q 174 875 189 892 q 161 840 160 858 l 76 840 q 107 942 67 899 q 231 986 147 986 q 342 951 304 986 q 381 861 381 915 q 359 800 381 826 q 289 763 338 774 z "},"⁴":{"ha":436,"x_min":56,"x_max":408,"o":"m 353 744 l 408 744 l 408 661 l 353 661 l 353 556 l 265 556 l 265 661 l 56 661 l 56 744 l 260 976 l 353 976 l 353 744 m 265 744 l 265 869 l 157 744 l 265 744 z "},"\r":{"ha":833,"x_min":0,"x_max":0,"o":""}," ":{"ha":335,"x_min":0,"x_max":0,"o":""}," ":{"ha":335,"x_min":0,"x_max":0,"o":""},"·":{"ha":376,"x_min":83,"x_max":293,"o":"m 293 690 l 293 532 l 83 532 l 83 690 l 293 690 z "},";":{"ha":379,"x_min":83,"x_max":296,"o":"m 293 671 l 293 513 l 83 513 l 83 671 l 293 671 m 122 -189 l 97 -142 q 138 -74 118 -111 q 160 3 158 -36 l 83 18 l 83 178 l 296 178 l 296 64 q 249 -95 296 -35 q 122 -189 203 -156 z "},".":{"ha":376,"x_min":83,"x_max":293,"o":"m 293 158 l 293 0 l 83 0 l 83 158 l 293 158 z "},",":{"ha":321,"x_min":54,"x_max":267,"o":"m 93 -207 l 68 -160 q 109 -92 89 -129 q 131 -15 129 -54 l 54 0 l 54 160 l 267 160 l 267 46 q 220 -113 267 -53 q 93 -207 174 -174 z "},":":{"ha":415,"x_min":93,"x_max":303,"o":"m 303 158 l 303 0 l 93 0 l 93 158 l 303 158 m 303 688 l 303 529 l 93 529 l 93 688 l 303 688 z "},";":{"ha":379,"x_min":83,"x_max":296,"o":"m 293 671 l 293 513 l 83 513 l 83 671 l 293 671 m 122 -189 l 97 -142 q 138 -74 118 -111 q 160 3 158 -36 l 83 18 l 83 178 l 296 178 l 296 64 q 249 -95 296 -35 q 122 -189 203 -156 z "},"…":{"ha":960,"x_min":83,"x_max":876,"o":"m 876 158 l 876 0 l 667 0 l 667 158 l 876 158 m 293 158 l 293 0 l 83 0 l 83 158 l 293 158 m 585 158 l 585 0 l 375 0 l 375 158 l 585 158 z "},"!":{"ha":424,"x_min":107,"x_max":317,"o":"m 119 921 l 303 921 l 303 281 l 119 281 l 119 921 m 317 158 l 317 0 l 107 0 l 107 158 l 317 158 z "},"¡":{"ha":424,"x_min":107,"x_max":317,"o":"m 119 -126 l 119 514 l 303 514 l 303 -126 l 119 -126 m 317 636 l 107 636 l 107 794 l 317 794 l 317 636 z "},"?":{"ha":869,"x_min":71,"x_max":801,"o":"m 315 279 l 315 510 l 397 510 q 563 551 510 510 q 615 669 615 593 q 565 786 615 746 q 432 826 515 826 q 333 808 372 826 q 273 758 293 789 q 251 688 253 726 l 72 688 q 84 769 71 728 q 125 850 97 811 q 196 919 153 889 q 299 967 239 950 q 436 985 360 985 q 598 961 529 985 q 712 896 667 938 q 779 798 757 854 q 801 675 801 742 q 760 520 801 583 q 648 423 718 457 q 492 383 578 389 l 492 279 l 315 279 m 303 0 l 303 158 l 513 158 l 513 0 l 303 0 z "},"¿":{"ha":868,"x_min":72,"x_max":801,"o":"m 361 656 l 361 814 l 571 814 l 571 656 l 361 656 m 622 126 l 800 126 q 789 44 801 86 q 749 -36 776 3 q 678 -106 721 -75 q 575 -153 635 -136 q 438 -171 515 -171 q 276 -147 344 -171 q 162 -82 207 -124 q 94 16 117 -40 q 72 139 72 72 q 114 294 72 231 q 226 391 156 357 q 382 431 296 425 l 382 535 l 558 535 l 558 304 l 476 304 q 310 263 363 304 q 258 144 258 221 q 308 28 258 68 q 442 -12 357 -12 q 541 6 501 -12 q 601 56 581 25 q 622 126 621 88 z "},"·":{"ha":376,"x_min":83,"x_max":293,"o":"m 293 458 l 293 300 l 83 300 l 83 458 l 293 458 z "},"•":{"ha":633,"x_min":135,"x_max":499,"o":"m 135 546 l 499 546 l 499 182 l 135 182 l 135 546 z "},"*":{"ha":699,"x_min":57,"x_max":643,"o":"m 600 883 l 643 751 l 457 696 l 581 536 l 468 454 l 347 629 l 228 454 l 115 536 l 239 696 l 57 750 l 100 883 l 283 818 l 278 1017 l 417 1017 l 410 817 l 600 883 z "},"#":{"ha":1263,"x_min":93,"x_max":1171,"o":"m 765 879 l 935 879 l 935 19 l 765 19 l 765 879 m 335 879 l 504 879 l 504 19 l 335 19 l 335 879 m 1171 349 l 1171 219 l 93 219 l 93 349 l 1171 349 m 1171 678 l 1171 550 l 93 550 l 93 678 l 1171 678 z "},"/":{"ha":668,"x_min":50,"x_max":618,"o":"m 472 1046 l 618 993 l 194 -167 l 50 -114 l 472 1046 z "},"\\":{"ha":668,"x_min":50,"x_max":618,"o":"m 194 1046 l 618 -114 l 472 -167 l 50 993 l 194 1046 z "},"-":{"ha":686,"x_min":111,"x_max":575,"o":"m 111 444 l 575 444 l 575 308 l 111 308 l 111 444 z "},"­":{"ha":833,"x_min":111,"x_max":575,"o":"m 111 444 l 575 444 l 575 308 l 111 308 l 111 444 z "},"–":{"ha":839,"x_min":111,"x_max":728,"o":"m 111 446 l 728 446 l 728 307 l 111 307 l 111 446 z "},"—":{"ha":1172,"x_min":83,"x_max":1089,"o":"m 83 447 l 1089 447 l 1089 308 l 83 308 l 83 447 z "},"_":{"ha":1179,"x_min":99,"x_max":1082,"o":"m 99 -139 l 1082 -139 l 1082 -278 l 99 -278 l 99 -139 z "},"(":{"ha":467,"x_min":74,"x_max":393,"o":"m 393 -125 l 297 -203 q 274 -177 297 -203 q 219 -101 251 -151 q 153 22 186 -51 q 97 189 119 94 q 74 397 74 283 q 97 606 74 513 q 153 772 119 700 q 219 892 186 843 q 274 967 251 942 q 297 992 297 992 l 393 915 q 366 882 393 915 q 304 783 339 849 q 242 620 269 717 q 215 397 215 524 q 233 210 215 293 q 278 64 251 126 q 331 -41 304 1 q 375 -104 357 -83 q 393 -125 393 -125 z "},")":{"ha":467,"x_min":74,"x_max":393,"o":"m 74 -125 q 92 -104 74 -125 q 136 -41 110 -83 q 189 64 163 1 q 233 210 215 126 q 251 397 251 293 q 224 620 251 524 q 163 783 197 717 q 101 882 128 849 q 74 915 74 915 l 169 992 q 192 967 169 992 q 249 892 215 942 q 315 772 282 843 q 370 606 347 700 q 393 397 393 513 q 370 189 393 283 q 315 22 347 94 q 249 -101 282 -51 q 192 -177 215 -151 q 169 -203 169 -203 l 74 -125 z "},"{":{"ha":671,"x_min":68,"x_max":547,"o":"m 169 1111 l 547 1111 l 547 969 l 331 969 q 344 892 331 933 q 374 805 357 850 q 405 715 392 760 q 418 626 418 669 q 384 522 418 565 q 289 454 350 479 q 147 421 228 429 l 147 443 q 289 410 228 435 q 384 342 350 385 q 418 238 418 300 q 405 149 418 194 q 374 59 392 104 q 344 -28 357 14 q 331 -106 331 -69 l 547 -106 l 547 -247 l 169 -247 q 172 -112 158 -182 q 210 24 186 -43 q 254 146 235 90 q 274 238 274 201 q 224 335 274 299 q 68 372 175 372 l 68 492 q 224 528 175 492 q 274 626 274 565 q 254 718 274 663 q 210 840 235 774 q 172 977 186 907 q 169 1111 158 1047 z "},"}":{"ha":671,"x_min":124,"x_max":603,"o":"m 397 626 q 447 528 397 565 q 603 492 496 492 l 603 372 q 447 335 496 372 q 397 238 397 299 q 417 146 397 201 q 461 24 438 90 q 499 -112 485 -43 q 501 -247 513 -182 l 124 -247 l 124 -106 l 340 -106 q 327 -28 340 -69 q 297 59 314 14 q 266 149 279 104 q 253 238 253 194 q 287 342 253 300 q 382 410 321 385 q 524 443 443 435 l 524 421 q 382 454 443 429 q 287 522 321 479 q 253 626 253 565 q 266 715 253 669 q 297 805 279 760 q 327 892 314 850 q 340 969 340 933 l 124 969 l 124 1111 l 501 1111 q 499 977 513 1047 q 461 840 485 907 q 417 718 438 774 q 397 626 397 663 z "},"[":{"ha":567,"x_min":124,"x_max":485,"o":"m 485 -114 l 485 -256 l 124 -256 l 124 1111 l 485 1111 l 485 969 l 265 969 l 265 -114 l 485 -114 z "},"]":{"ha":569,"x_min":83,"x_max":444,"o":"m 83 -112 l 304 -112 l 304 969 l 83 969 l 83 1111 l 444 1111 l 444 -254 l 83 -254 l 83 -112 z "},"‚":{"ha":321,"x_min":54,"x_max":267,"o":"m 93 -207 l 68 -160 q 109 -92 89 -129 q 131 -15 129 -54 l 54 0 l 54 160 l 267 160 l 267 46 q 220 -113 267 -53 q 93 -207 174 -174 z "},"„":{"ha":596,"x_min":54,"x_max":542,"o":"m 93 -208 l 68 -161 q 109 -92 89 -131 q 131 -15 129 -54 l 54 0 l 54 158 l 267 158 l 267 44 q 220 -113 267 -53 q 93 -208 174 -174 m 368 -208 l 343 -161 q 384 -92 364 -131 q 406 -15 404 -54 l 329 0 l 329 158 l 542 158 l 542 44 q 495 -113 542 -53 q 368 -208 449 -174 z "},"“":{"ha":596,"x_min":54,"x_max":542,"o":"m 226 975 l 253 928 q 212 860 231 897 q 190 782 193 822 l 267 768 l 267 608 l 54 608 l 54 722 q 101 881 54 821 q 226 975 147 942 m 501 975 l 528 928 q 487 860 506 897 q 465 782 468 822 l 542 768 l 542 608 l 329 608 l 329 722 q 376 881 329 821 q 501 975 422 942 z "},"”":{"ha":596,"x_min":54,"x_max":542,"o":"m 93 540 l 68 588 q 109 656 89 618 q 131 733 129 694 l 54 749 l 54 907 l 267 907 l 267 793 q 220 635 267 696 q 93 540 174 575 m 368 540 l 343 588 q 384 656 364 618 q 406 733 404 694 l 329 749 l 329 907 l 542 907 l 542 793 q 495 635 542 696 q 368 540 449 575 z "},"‘":{"ha":321,"x_min":54,"x_max":267,"o":"m 226 975 l 253 928 q 212 860 231 897 q 190 782 193 822 l 267 768 l 267 608 l 54 608 l 54 722 q 101 881 54 821 q 226 975 147 942 z "},"’":{"ha":321,"x_min":54,"x_max":267,"o":"m 93 540 l 68 588 q 109 656 89 618 q 131 733 129 694 l 54 749 l 54 907 l 267 907 l 267 793 q 220 635 267 696 q 93 540 174 575 z "},"«":{"ha":811,"x_min":67,"x_max":690,"o":"m 401 750 l 501 654 l 249 388 l 501 119 l 401 25 l 67 388 l 401 750 m 593 601 l 690 507 l 576 390 l 690 272 l 592 179 l 400 390 l 593 601 z "},"»":{"ha":819,"x_min":111,"x_max":736,"o":"m 301 654 l 401 750 l 736 388 l 401 25 l 300 119 l 553 388 l 301 654 m 111 507 l 210 601 l 403 390 l 210 179 l 111 272 l 225 390 l 111 507 z "},"‹":{"ha":588,"x_min":83,"x_max":518,"o":"m 83 388 l 418 750 l 518 654 l 181 299 l 83 388 m 83 388 l 181 476 l 518 119 l 418 25 l 83 388 z "},"›":{"ha":588,"x_min":69,"x_max":504,"o":"m 504 388 l 407 299 l 69 654 l 169 750 l 504 388 m 504 388 l 169 25 l 69 119 l 407 476 l 504 388 z "},"\"":{"ha":575,"x_min":54,"x_max":521,"o":"m 207 615 l 111 615 l 54 788 l 54 907 l 265 907 l 265 788 l 207 615 m 463 615 l 367 615 l 310 788 l 310 907 l 521 907 l 521 788 l 463 615 z "},"'":{"ha":319,"x_min":54,"x_max":265,"o":"m 207 615 l 111 615 l 54 788 l 54 907 l 265 907 l 265 788 l 207 615 z "},"ƒ":{"ha":1257,"x_min":51,"x_max":1206,"o":"m 890 917 q 1063 881 993 917 q 1169 782 1133 844 q 1206 638 1206 719 l 1033 638 q 996 728 1032 693 q 890 763 960 763 q 823 751 854 763 q 768 713 792 740 q 731 638 744 686 q 718 515 718 590 l 718 372 q 674 151 718 236 q 554 26 631 65 q 379 -14 478 -14 q 208 23 282 -14 q 92 122 133 60 q 51 261 51 185 l 224 261 q 269 173 225 206 q 379 140 313 140 q 461 160 425 140 q 517 230 497 179 q 538 372 538 281 l 538 515 q 584 750 538 663 q 710 877 631 838 q 890 917 790 917 m 349 506 l 897 506 l 897 410 l 349 410 l 349 506 z "},"":{"ha":1194,"x_min":42,"x_max":1153,"o":"m 597 -14 q 378 19 479 -14 q 201 113 276 51 q 83 260 125 174 q 42 451 42 346 q 83 644 42 558 q 201 790 125 729 q 378 884 276 851 q 597 917 479 917 q 817 884 717 917 q 994 790 918 851 q 1111 644 1069 729 q 1153 451 1153 558 q 1111 260 1153 346 q 994 113 1069 174 q 817 19 918 51 q 597 -14 717 -14 m 450 74 q 378 143 408 101 q 325 232 347 185 q 228 192 267 217 q 326 119 269 149 q 450 74 383 89 m 197 228 q 306 283 239 263 q 289 354 296 319 q 281 424 282 389 l 128 424 q 149 317 131 365 q 197 228 167 268 m 567 65 l 567 257 q 465 253 511 256 q 379 243 418 250 q 454 126 407 175 q 567 65 501 76 m 128 479 l 279 479 q 307 628 283 556 q 201 681 243 649 q 150 590 169 640 q 128 479 131 539 m 361 299 q 456 312 404 307 q 567 318 507 317 l 567 424 l 340 424 q 361 299 344 358 m 629 65 q 741 125 694 76 q 815 242 788 174 q 731 252 776 249 q 629 257 685 256 l 629 65 m 340 479 l 567 479 l 567 594 q 456 601 507 596 q 361 614 404 606 q 340 479 344 550 m 744 74 q 965 190 878 103 q 922 213 946 203 q 868 231 899 224 q 816 142 847 183 q 744 74 785 101 m 326 679 q 376 763 347 725 q 444 828 406 801 q 233 717 317 799 q 326 679 271 693 m 833 297 q 847 360 842 328 q 854 424 853 393 l 629 424 l 629 318 q 833 297 747 317 m 567 656 l 567 839 q 455 783 501 829 q 381 669 408 736 q 465 660 418 664 q 567 656 511 657 m 629 479 l 854 479 q 847 549 853 515 q 832 615 842 583 q 629 594 749 597 l 629 479 m 996 225 q 1045 315 1026 265 q 1067 424 1064 365 l 914 424 q 906 353 913 389 q 888 282 899 318 q 947 258 921 272 q 996 225 974 243 m 629 656 q 730 660 685 657 q 814 671 775 664 q 740 783 786 736 q 629 839 694 829 l 629 656 m 915 479 l 1067 479 q 1044 592 1064 540 q 990 683 1024 643 q 944 654 969 667 q 888 631 918 642 q 915 479 911 556 m 867 682 q 917 699 894 689 q 958 719 940 708 q 750 828 875 799 q 818 764 789 801 q 867 682 847 726 z "},"@":{"ha":1490,"x_min":72,"x_max":1422,"o":"m 743 -76 q 384 -14 535 -76 q 153 166 233 49 q 72 447 72 283 q 153 725 72 613 q 388 895 235 838 q 753 953 540 953 q 1116 895 967 953 q 1344 727 1265 838 q 1422 457 1422 617 q 1396 319 1422 376 q 1317 230 1369 261 q 1188 199 1265 199 q 1081 215 1125 199 q 1008 260 1036 232 q 967 321 981 288 q 954 388 954 354 l 954 688 l 1135 688 l 1135 446 q 1141 380 1135 408 q 1165 335 1147 351 q 1217 318 1183 318 q 1267 335 1250 318 q 1291 382 1285 351 q 1297 451 1297 413 q 1260 624 1297 551 q 1153 745 1224 697 q 983 817 1083 793 q 756 840 882 840 q 525 817 628 840 q 349 744 422 793 q 236 622 275 696 q 197 447 197 549 q 263 224 197 317 q 450 84 328 132 q 743 36 572 36 q 873 43 813 36 q 983 63 933 50 q 1068 92 1033 75 l 1118 -10 q 1019 -44 1076 -29 q 891 -68 961 -60 q 743 -76 821 -76 m 653 154 q 484 191 557 154 q 371 292 411 228 q 331 438 331 356 q 371 590 331 524 q 486 694 411 656 q 663 732 561 732 q 835 691 767 732 q 938 583 904 650 q 972 438 972 515 q 952 349 972 397 q 892 256 932 300 q 792 183 853 211 q 653 154 732 154 m 711 292 q 806 303 761 292 q 883 335 850 315 q 935 381 917 354 q 954 436 954 407 q 935 502 954 474 q 882 551 915 531 q 805 581 849 571 q 711 592 761 592 q 561 550 607 592 q 515 436 515 508 q 565 332 515 372 q 711 292 614 292 z "},"&":{"ha":1082,"x_min":50,"x_max":1050,"o":"m 365 -15 q 244 1 301 -15 q 143 49 186 18 q 75 123 100 79 q 50 221 50 167 q 82 334 50 288 q 170 410 114 381 q 300 453 226 439 q 457 471 374 468 l 463 463 q 315 476 383 465 q 195 510 246 486 q 116 572 144 533 q 88 668 88 610 q 135 799 88 743 q 271 886 182 856 q 482 917 360 917 q 637 900 567 917 q 758 849 707 883 q 836 765 808 815 q 864 646 864 714 l 694 646 q 637 733 693 703 q 485 763 581 763 q 329 730 382 763 q 276 640 276 697 q 301 571 276 600 q 378 526 326 542 q 510 511 431 511 l 1050 511 l 1050 407 l 875 407 l 875 0 l 707 0 q 699 80 701 40 q 695 169 696 119 q 694 288 694 218 l 707 250 q 673 156 696 203 q 610 69 650 108 q 510 8 571 31 q 365 -15 450 -15 m 442 124 q 582 153 526 124 q 666 231 638 183 q 694 331 694 279 l 694 407 l 510 407 q 315 372 389 407 q 242 260 242 336 q 293 162 242 200 q 442 124 344 124 z "},"¶":{"ha":1021,"x_min":42,"x_max":914,"o":"m 914 899 l 914 0 l 736 0 l 736 328 l 632 328 l 632 0 l 454 0 l 454 328 l 386 328 q 208 360 286 328 q 86 456 131 392 q 42 613 42 519 q 85 769 42 706 q 205 866 128 833 q 382 899 282 899 l 914 899 m 386 478 l 736 478 l 736 739 l 386 739 q 274 710 321 739 q 226 607 226 681 q 273 506 226 535 q 386 478 319 478 z "},"§":{"ha":785,"x_min":47,"x_max":729,"o":"m 450 326 l 510 335 q 669 262 617 306 q 722 146 722 218 q 643 3 722 56 q 428 -50 564 -50 q 260 -24 331 -50 q 144 41 189 1 q 79 123 99 81 q 64 197 60 165 l 224 197 q 284 121 236 151 q 417 89 332 90 q 519 109 488 88 q 551 169 551 131 q 532 218 551 201 q 475 245 513 235 q 381 267 438 256 q 208 308 283 283 q 90 373 132 333 q 47 474 47 413 q 81 556 47 521 q 185 606 114 590 q 369 610 256 621 l 294 601 q 158 652 210 626 q 82 710 106 678 q 58 785 58 742 q 141 930 58 874 q 365 986 224 986 q 600 922 514 986 q 688 751 686 858 l 526 751 q 475 824 517 801 q 360 846 433 846 q 266 825 301 846 q 231 767 231 804 q 252 718 231 736 q 314 689 274 700 q 411 665 354 678 q 575 625 503 649 q 688 563 647 601 q 729 458 729 524 q 664 355 729 393 q 450 326 599 317 m 232 479 q 256 427 232 447 q 326 392 281 407 q 432 364 371 378 q 516 397 488 371 q 544 461 544 422 q 524 515 544 496 q 461 547 503 535 q 357 571 419 558 q 265 541 297 565 q 232 479 232 517 z "},"©":{"ha":1408,"x_min":74,"x_max":1335,"o":"m 706 10 q 370 65 513 10 q 151 222 228 121 q 74 461 74 324 q 150 699 74 600 q 369 851 226 797 q 706 904 511 904 q 1041 851 900 904 q 1258 699 1182 797 q 1335 461 1335 600 q 1258 222 1335 324 q 1040 65 1181 121 q 706 10 899 10 m 706 121 q 908 144 817 121 q 1068 210 1000 167 q 1173 317 1136 253 q 1210 461 1210 381 q 1173 604 1210 543 q 1069 708 1136 665 q 909 771 1001 750 q 706 792 817 792 q 500 771 593 792 q 340 708 407 750 q 235 604 272 665 q 199 461 199 543 q 235 317 199 381 q 340 210 272 253 q 501 144 408 167 q 706 121 594 121 m 1011 431 q 978 338 1011 376 q 881 277 946 299 q 715 256 815 256 q 480 309 564 256 q 396 456 396 363 q 433 564 396 519 q 542 633 471 608 q 715 657 614 657 q 880 636 815 657 q 977 576 944 615 q 1010 483 1010 538 l 876 483 q 828 533 867 515 q 715 551 789 551 q 584 526 629 551 q 539 456 539 500 q 583 387 539 411 q 715 363 628 363 q 828 381 789 363 q 878 431 868 399 l 1011 431 z "},"®":{"ha":1351,"x_min":74,"x_max":1278,"o":"m 676 107 q 361 161 497 107 q 149 311 225 215 q 74 531 74 407 q 149 749 74 656 q 360 894 224 842 q 676 946 496 946 q 992 894 857 946 q 1202 749 1126 842 q 1278 531 1278 656 q 1202 311 1278 407 q 991 161 1126 215 q 676 107 856 107 m 676 219 q 867 241 781 219 q 1018 303 954 263 q 1117 401 1082 343 q 1153 531 1153 458 q 1118 659 1153 603 q 1019 754 1083 715 q 868 813 956 793 q 676 833 781 833 q 483 813 571 833 q 332 754 396 793 q 233 659 268 715 q 199 531 199 603 q 234 401 199 458 q 333 303 269 343 q 485 241 397 263 q 676 219 572 219 m 458 338 l 458 732 l 764 732 q 901 699 857 732 q 944 604 944 667 q 922 528 944 557 q 836 494 899 499 q 899 478 878 489 q 927 452 919 468 q 935 414 935 436 l 935 338 l 814 338 l 814 407 q 808 433 814 424 q 781 447 801 443 q 719 451 761 451 l 579 451 l 579 338 l 458 338 m 579 546 l 769 546 q 810 556 796 546 q 824 590 824 567 q 810 619 824 610 q 769 628 797 628 l 579 628 l 579 546 z "},"™":{"ha":1549,"x_min":107,"x_max":1442,"o":"m 449 551 l 286 551 l 286 767 l 107 767 l 107 899 l 633 899 l 633 767 l 449 767 l 449 551 m 1086 653 l 1278 899 l 1442 899 l 1442 551 l 1281 551 l 1279 714 l 1169 549 l 1006 549 l 894 713 l 894 551 l 733 551 l 733 899 l 896 899 l 1086 653 m 1442 324 l 122 324 l 122 454 l 1442 454 l 1442 324 z "},"°":{"ha":622,"x_min":65,"x_max":558,"o":"m 311 521 q 183 545 239 521 q 97 614 128 569 q 65 718 65 658 q 97 822 65 778 q 183 890 128 865 q 311 914 239 914 q 440 890 385 914 q 527 822 496 865 q 558 718 558 778 q 527 614 558 658 q 440 545 496 569 q 311 521 385 521 m 311 618 q 410 646 376 618 q 444 718 444 674 q 410 788 444 761 q 311 815 376 815 q 213 788 247 815 q 179 718 179 761 q 213 646 179 674 q 311 618 247 618 z "},"|":{"ha":449,"x_min":139,"x_max":310,"o":"m 139 1111 l 310 1111 l 310 -222 l 139 -222 l 139 1111 z "},"¦":{"ha":449,"x_min":139,"x_max":310,"o":"m 310 283 l 310 -222 l 139 -222 l 139 283 l 310 283 m 310 1111 l 310 606 l 139 606 l 139 1111 l 310 1111 z "},"†":{"ha":1060,"x_min":133,"x_max":926,"o":"m 133 694 l 926 694 l 926 540 l 133 540 l 133 694 m 439 972 l 619 972 l 619 -278 l 439 -278 l 439 972 z "},"‡":{"ha":1017,"x_min":111,"x_max":904,"o":"m 418 -278 l 418 972 l 599 972 l 599 -278 l 418 -278 m 111 7 l 111 161 l 904 161 l 904 7 l 111 7 m 111 540 l 111 694 l 904 694 l 904 540 l 111 540 z "},"¢":{"ha":953,"x_min":50,"x_max":903,"o":"m 738 272 l 903 272 q 845 117 896 182 q 706 17 794 51 q 494 -17 617 -17 q 480 -17 488 -17 q 465 -17 472 -17 l 444 -136 l 349 -118 l 368 -6 q 138 108 225 21 q 50 343 50 196 q 108 542 50 461 q 265 664 165 622 q 493 706 365 706 l 518 844 l 614 828 l 592 699 q 811 608 731 681 q 901 419 892 535 l 736 419 q 674 510 718 475 q 567 560 629 546 l 490 122 l 496 122 q 653 161 593 122 q 738 272 714 200 m 233 343 q 278 208 233 260 q 393 136 322 156 l 469 565 q 349 535 403 561 q 265 462 296 510 q 233 343 233 414 z "},"¤":{"ha":936,"x_min":104,"x_max":832,"o":"m 469 143 q 278 179 361 143 q 150 279 196 215 q 104 428 104 343 q 150 576 104 513 q 278 676 196 640 q 469 713 361 713 q 660 676 578 713 q 787 576 742 640 q 832 428 832 513 q 787 279 832 343 q 660 179 742 215 q 469 143 578 143 m 469 274 q 606 319 556 274 q 657 428 657 364 q 606 538 657 492 q 469 583 556 583 q 331 538 383 583 q 279 428 279 493 q 331 319 279 364 q 469 274 382 274 m 208 57 l 136 122 l 264 264 l 340 204 l 208 57 m 731 57 l 597 204 l 678 261 l 803 122 l 731 57 m 271 585 l 136 735 l 208 800 l 342 651 l 271 585 m 667 583 l 596 650 l 731 800 l 803 735 l 667 583 z "},"$":{"ha":776,"x_min":44,"x_max":722,"o":"m 438 972 l 536 956 l 503 763 l 404 779 l 438 972 m 251 -82 l 286 111 l 383 94 l 350 -99 l 251 -82 m 49 321 l 215 321 q 278 244 231 274 q 403 214 325 214 q 485 224 456 214 q 525 251 514 233 q 536 293 536 269 q 518 338 536 322 q 463 364 500 354 q 367 382 425 374 q 254 406 308 392 q 158 443 200 421 q 92 501 117 465 q 68 588 68 536 q 92 676 68 638 q 160 742 117 715 q 263 783 204 769 q 392 797 322 797 q 562 767 494 797 q 663 683 629 736 q 697 561 697 631 l 538 561 q 493 635 526 611 q 390 658 460 658 q 288 637 324 658 q 253 579 253 615 q 274 535 253 551 q 338 509 296 519 q 444 488 381 499 q 549 463 499 476 q 638 427 599 449 q 699 371 676 406 q 722 282 722 336 q 683 169 722 215 q 574 99 644 122 q 404 75 503 75 q 224 103 294 75 q 113 174 153 132 q 59 256 74 215 q 49 321 44 296 z "},"€":{"ha":1339,"x_min":28,"x_max":1265,"o":"m 710 324 l 28 324 l 111 401 l 785 401 l 710 324 m 856 475 l 28 475 l 111 557 l 931 557 l 856 475 m 403 339 q 478 229 426 274 q 602 163 529 185 q 763 140 675 140 q 915 162 850 140 q 1022 225 979 183 q 1082 324 1064 267 l 1265 324 q 1190 139 1254 215 q 1018 22 1126 63 q 763 -18 910 -18 q 560 5 654 -18 q 391 73 465 28 q 268 185 317 118 q 203 339 219 251 l 403 339 m 1011 657 q 906 730 969 706 q 763 754 842 754 q 588 727 665 754 q 460 649 511 700 q 392 521 410 597 l 197 521 q 255 693 210 619 q 372 817 300 767 q 535 892 443 867 q 732 917 626 917 q 972 884 868 917 q 1139 790 1075 851 l 1011 657 z "},"£":{"ha":914,"x_min":47,"x_max":858,"o":"m 47 372 l 47 458 l 629 458 l 629 372 l 47 372 m 401 315 q 383 244 401 274 q 338 197 364 215 q 288 168 313 178 q 250 154 263 158 l 829 154 l 829 0 l 101 0 l 101 154 q 117 159 101 154 q 158 175 133 164 q 206 203 182 186 q 245 246 229 221 q 261 304 261 271 q 253 351 261 328 q 231 397 244 375 q 227 407 226 401 q 230 419 228 413 q 231 429 232 425 q 225 436 231 433 q 178 478 204 456 q 129 530 153 501 q 90 592 106 558 q 75 668 75 626 q 124 803 75 749 q 258 888 172 858 q 453 917 343 917 q 616 897 542 917 q 744 841 690 878 q 828 753 799 804 q 858 638 858 701 l 668 638 q 638 703 667 675 q 562 746 608 731 q 460 761 515 761 q 358 749 404 761 q 283 710 311 738 q 256 636 256 682 q 278 547 256 588 q 328 470 300 507 q 379 396 357 433 q 401 315 401 358 z "},"¥":{"ha":1028,"x_min":26,"x_max":1001,"o":"m 421 283 l 26 899 l 240 899 l 572 361 l 461 361 l 788 899 l 1001 899 l 607 283 l 421 283 m 421 0 l 421 115 l 607 115 l 607 0 l 421 0 m 264 169 l 764 169 l 764 75 l 264 75 l 264 169 m 264 322 l 764 322 l 764 228 l 264 228 l 264 322 z "},"∕":{"ha":603,"x_min":0,"x_max":603,"o":"m 528 972 l 603 931 l 72 -28 l 0 17 l 528 972 z "},"+":{"ha":778,"x_min":69,"x_max":708,"o":"m 69 442 l 708 442 l 708 310 l 69 310 l 69 442 m 464 638 l 464 113 l 314 113 l 314 638 l 464 638 z "},"−":{"ha":681,"x_min":69,"x_max":611,"o":"m 69 443 l 611 443 l 611 307 l 69 307 l 69 443 z "},"×":{"ha":694,"x_min":82,"x_max":613,"o":"m 175 101 l 613 538 l 518 631 l 82 194 l 175 101 m 518 101 l 613 194 l 175 631 l 82 538 l 518 101 z "},"÷":{"ha":736,"x_min":69,"x_max":667,"o":"m 69 439 l 667 439 l 667 303 l 69 303 l 69 439 m 454 226 l 454 85 l 244 85 l 244 226 l 454 226 m 454 656 l 454 513 l 244 513 l 244 656 l 454 656 z "},"=":{"ha":814,"x_min":69,"x_max":744,"o":"m 69 594 l 744 594 l 744 458 l 69 458 l 69 594 m 69 313 l 744 313 l 744 176 l 69 176 l 69 313 z "},"≠":{"ha":814,"x_min":69,"x_max":744,"o":"m 258 32 l 467 769 l 556 746 l 347 8 l 258 32 m 69 594 l 744 594 l 744 458 l 69 458 l 69 594 m 69 313 l 744 313 l 744 176 l 69 176 l 69 313 z "},">":{"ha":747,"x_min":131,"x_max":654,"o":"m 131 611 l 199 736 l 654 478 l 654 326 l 199 68 l 131 197 l 514 403 l 131 611 z "},"<":{"ha":739,"x_min":85,"x_max":608,"o":"m 539 736 l 608 611 l 225 403 l 608 197 l 539 68 l 85 326 l 85 478 l 539 736 z "},"≥":{"ha":754,"x_min":131,"x_max":661,"o":"m 661 344 l 178 156 l 131 292 l 510 429 l 138 608 l 197 733 l 661 497 l 661 344 m 643 -14 l 149 -14 l 149 86 l 643 86 l 643 -14 z "},"≤":{"ha":808,"x_min":147,"x_max":678,"o":"m 678 292 l 631 156 l 147 344 l 147 497 l 611 733 l 672 608 l 299 429 l 678 292 m 660 -14 l 167 -14 l 167 86 l 660 86 l 660 -14 z "},"±":{"ha":778,"x_min":69,"x_max":708,"o":"m 69 342 l 69 474 l 708 474 l 708 342 l 69 342 m 79 -14 l 79 86 l 699 86 l 699 -14 l 79 -14 m 314 172 l 314 643 l 464 643 l 464 172 l 314 172 z "},"≈":{"ha":864,"x_min":67,"x_max":799,"o":"m 661 615 l 794 615 q 778 510 799 558 q 713 434 757 463 q 603 406 669 406 q 511 421 553 406 q 433 457 469 436 q 360 493 396 478 q 289 508 325 508 q 225 485 247 508 q 203 436 203 463 l 71 436 q 88 541 67 493 q 158 617 110 589 q 279 646 207 646 q 371 631 329 646 q 450 594 413 615 q 522 558 488 574 q 593 543 557 543 q 648 566 635 543 q 661 615 661 589 m 669 339 l 794 339 q 786 261 797 299 q 751 194 775 224 q 690 147 726 164 q 603 129 653 129 q 511 144 553 129 q 433 181 469 160 q 360 217 396 201 q 289 232 325 232 q 225 209 247 232 q 203 160 203 186 l 71 160 q 88 265 67 217 q 158 341 110 313 q 279 369 207 369 q 371 354 329 369 q 450 318 413 339 q 522 282 488 297 q 593 267 557 267 q 652 290 635 267 q 669 339 669 313 z "},"~":{"ha":432,"x_min":111,"x_max":321,"o":"m 321 458 l 321 300 l 111 300 l 111 458 l 321 458 z "},"¬":{"ha":1004,"x_min":118,"x_max":865,"o":"m 118 578 l 865 578 l 865 222 l 707 222 l 707 442 l 118 442 l 118 578 z "},"^":{"ha":815,"x_min":303,"x_max":513,"o":"m 513 857 l 513 699 l 303 699 l 303 857 l 513 857 z "},"∅":{"ha":1106,"x_min":83,"x_max":1022,"o":"m 311 -94 l 226 -46 l 306 92 q 142 222 201 138 q 83 421 83 307 q 117 575 83 506 q 212 694 150 644 q 360 770 274 743 q 553 797 447 797 q 631 793 593 797 q 704 781 669 789 l 793 935 l 876 886 l 799 751 q 963 620 904 706 q 1022 421 1022 535 q 989 267 1022 336 q 894 148 956 197 q 746 72 832 99 q 553 44 660 44 q 474 49 513 44 q 400 61 436 53 l 311 -94 m 381 221 l 632 656 q 594 662 614 660 q 553 664 574 664 q 400 632 467 664 q 296 545 333 600 q 258 421 258 490 q 291 305 258 357 q 381 221 324 253 m 553 178 q 706 210 639 178 q 810 297 772 242 q 847 421 847 351 q 815 538 847 486 q 725 622 782 590 l 472 186 q 512 180 492 182 q 553 178 532 178 z "},"∞":{"ha":1533,"x_min":74,"x_max":1460,"o":"m 1124 111 q 1006 128 1058 111 q 913 175 954 146 q 837 242 871 204 q 771 319 803 279 q 677 219 728 267 q 562 142 626 171 q 410 113 497 113 q 235 152 311 113 q 117 259 160 192 q 74 411 74 326 q 117 561 74 494 q 233 667 160 628 q 400 706 307 706 q 524 688 469 706 q 622 640 578 671 q 703 572 667 610 q 772 493 739 533 q 839 572 804 533 q 916 640 874 610 q 1012 688 958 671 q 1133 706 1065 706 q 1300 667 1226 706 q 1417 561 1374 628 q 1460 410 1460 494 q 1417 258 1460 325 q 1298 151 1374 190 q 1124 111 1222 111 m 435 246 q 545 267 497 246 q 631 326 593 289 q 704 406 669 363 q 628 489 668 451 q 540 549 589 526 q 426 572 490 572 q 342 552 382 572 q 276 496 301 532 q 251 411 251 460 q 267 343 251 374 q 310 291 283 313 q 369 258 336 269 q 435 246 401 246 m 1099 244 q 1165 256 1132 244 q 1224 290 1197 268 q 1266 342 1250 311 q 1282 410 1282 372 q 1257 496 1282 460 q 1192 552 1232 532 q 1107 572 1153 572 q 1001 549 1049 572 q 915 489 954 526 q 840 406 876 451 q 913 326 875 363 q 996 267 950 289 q 1099 244 1042 244 z "},"∫":{"ha":700,"x_min":32,"x_max":667,"o":"m 496 1056 l 667 1056 l 667 897 l 565 897 q 477 872 514 899 q 440 772 440 846 l 440 83 q 409 -52 440 0 q 324 -128 378 -104 q 200 -153 269 -153 l 32 -153 l 32 6 l 135 6 q 224 31 188 4 q 260 131 260 57 l 260 819 q 326 1000 260 944 q 496 1056 392 1056 z "},"∏":{"ha":1190,"x_min":56,"x_max":1135,"o":"m 267 788 l 447 788 l 447 0 l 267 0 l 267 788 m 1135 899 l 1135 743 l 56 743 l 56 899 l 1135 899 m 924 0 l 743 0 l 743 788 l 924 788 l 924 0 z "},"∑":{"ha":1010,"x_min":117,"x_max":882,"o":"m 117 899 l 882 899 l 882 744 l 240 744 l 236 831 l 675 436 l 242 72 l 240 154 l 882 154 l 882 0 l 117 0 l 117 153 l 493 496 l 457 411 l 117 740 l 117 899 z "},"√":{"ha":1121,"x_min":21,"x_max":1103,"o":"m 1103 899 l 1103 744 l 840 744 l 515 0 l 346 0 l 21 690 l 219 690 l 429 200 l 719 899 l 1103 899 z "},"µ":{"ha":1035,"x_min":83,"x_max":1015,"o":"m 1015 -10 q 833 19 903 -10 q 733 103 764 49 q 701 235 701 158 l 701 690 l 882 690 l 882 269 q 897 191 882 217 q 941 157 911 165 q 1015 149 971 149 l 1015 -10 m 711 332 l 713 285 q 701 228 710 265 q 675 150 693 192 q 626 70 657 108 q 547 8 594 32 q 431 -17 499 -17 q 310 16 358 -17 q 240 115 263 49 l 264 144 l 264 -278 l 83 -278 l 83 690 l 264 690 l 264 311 q 289 201 264 240 q 356 145 314 161 q 451 129 399 129 q 580 162 526 129 q 666 242 633 194 q 711 332 699 289 z "},"∂":{"ha":975,"x_min":50,"x_max":901,"o":"m 478 -17 q 249 28 344 -17 q 101 156 153 74 q 50 344 50 238 q 77 491 50 426 q 153 601 104 556 q 269 669 203 646 q 411 693 335 693 q 568 666 501 693 q 678 590 635 639 q 743 475 722 540 l 735 483 q 687 601 721 546 q 592 704 653 657 q 440 789 531 751 q 224 853 350 826 l 251 985 q 485 917 385 958 q 657 825 585 876 q 776 715 729 774 q 851 597 824 657 q 890 477 879 536 q 901 364 901 418 q 881 239 901 297 q 824 134 861 181 q 734 53 786 88 q 617 1 682 19 q 478 -17 553 -17 m 486 124 q 616 150 558 124 q 708 226 674 176 q 743 342 743 275 q 722 433 743 393 q 665 500 701 472 q 582 542 629 528 q 482 556 535 556 q 301 497 367 556 q 235 339 235 438 q 303 181 235 238 q 486 124 372 124 z "},"%":{"ha":1317,"x_min":56,"x_max":1261,"o":"m 317 463 q 178 490 238 463 q 88 569 119 518 q 56 692 56 621 q 126 862 56 801 q 317 922 197 922 q 506 862 436 922 q 576 692 576 801 q 544 569 576 621 q 454 490 513 518 q 317 463 396 463 m 317 576 q 402 608 369 576 q 435 692 435 639 q 402 777 435 746 q 317 808 369 808 q 230 777 263 808 q 197 692 197 746 q 230 608 197 639 q 317 576 263 576 m 1003 -17 q 813 44 883 -17 q 742 213 742 104 q 813 382 742 321 q 1003 443 883 443 q 1191 382 1121 443 q 1261 213 1261 321 q 1191 44 1261 104 q 1003 -17 1121 -17 m 1003 97 q 1088 128 1056 97 q 1121 213 1121 158 q 1088 297 1121 265 q 1003 329 1056 329 q 916 298 949 329 q 883 213 883 267 q 916 128 883 158 q 1003 97 949 97 m 864 953 l 939 911 l 408 -47 l 336 -3 l 864 953 z "},"‰":{"ha":1463,"x_min":56,"x_max":1407,"o":"m 317 463 q 178 490 238 463 q 88 569 119 518 q 56 692 56 621 q 126 862 56 801 q 317 922 197 922 q 506 862 436 922 q 576 692 576 801 q 544 569 576 621 q 454 490 513 518 q 317 463 396 463 m 317 576 q 402 608 369 576 q 435 692 435 639 q 402 777 435 746 q 317 808 369 808 q 230 777 263 808 q 197 692 197 746 q 230 608 197 639 q 317 576 263 576 m 1147 344 q 1009 372 1068 344 q 918 451 950 400 q 886 574 886 503 q 957 743 886 682 q 1147 804 1028 804 q 1337 743 1267 804 q 1407 574 1407 682 q 1375 451 1407 503 q 1285 372 1343 400 q 1147 344 1226 344 m 1147 458 q 1233 490 1200 458 q 1265 574 1265 521 q 1233 659 1265 628 q 1147 690 1200 690 q 1060 659 1093 690 q 1028 574 1028 628 q 1060 490 1028 521 q 1147 458 1093 458 m 878 -139 q 740 -111 799 -139 q 649 -32 682 -83 q 617 92 617 19 q 688 260 617 200 q 878 321 760 321 q 1067 260 997 321 q 1138 92 1138 199 q 1106 -32 1138 19 q 1015 -111 1074 -83 q 878 -139 957 -139 m 878 -25 q 963 6 931 -25 q 996 92 996 38 q 963 176 996 144 q 878 207 931 207 q 792 176 825 207 q 758 92 758 144 q 791 6 758 38 q 878 -25 824 -25 m 858 953 l 933 911 l 403 -47 l 331 -3 l 858 953 z "},"↑":{"ha":976,"x_min":126,"x_max":851,"o":"m 421 -64 l 421 660 l 424 765 l 222 575 l 126 675 l 489 1010 l 851 675 l 757 575 l 554 767 l 557 660 l 557 -64 l 421 -64 z "},"↗":{"ha":1106,"x_min":139,"x_max":967,"o":"m 236 72 l 139 169 l 651 682 l 728 754 l 450 763 l 453 900 l 947 881 l 967 388 l 828 383 l 821 661 l 747 585 l 236 72 z "},"→":{"ha":1213,"x_min":56,"x_max":1129,"o":"m 794 25 l 694 119 l 886 322 l 779 319 l 56 319 l 56 456 l 779 456 l 885 453 l 694 654 l 794 750 l 1129 388 l 794 25 z "},"↘":{"ha":1106,"x_min":139,"x_max":967,"o":"m 453 -7 l 450 132 l 728 139 l 651 213 l 139 724 l 236 821 l 747 308 l 821 232 l 828 508 l 967 507 l 947 13 l 453 -7 z "},"↓":{"ha":976,"x_min":125,"x_max":851,"o":"m 488 -92 l 125 244 l 221 344 l 422 154 l 419 260 l 419 983 l 556 983 l 556 260 l 553 153 l 754 344 l 851 244 l 488 -92 z "},"↙":{"ha":1106,"x_min":139,"x_max":967,"o":"m 651 -7 l 158 13 l 139 507 l 278 508 l 285 232 l 358 308 l 869 821 l 967 724 l 454 213 l 378 139 l 656 132 l 651 -7 z "},"←":{"ha":1213,"x_min":83,"x_max":1157,"o":"m 418 25 l 83 388 l 418 750 l 518 654 l 328 453 l 433 456 l 1157 456 l 1157 319 l 433 319 l 326 322 l 518 119 l 418 25 z "},"↖":{"ha":1106,"x_min":139,"x_max":967,"o":"m 869 76 l 358 588 l 285 665 l 278 386 l 139 390 l 158 883 l 651 903 l 654 765 l 379 757 l 454 685 l 967 172 l 869 76 z "},"↔":{"ha":1492,"x_min":83,"x_max":1408,"o":"m 418 25 l 83 388 l 418 750 l 518 654 l 328 453 l 413 456 l 1079 456 l 1164 453 l 974 654 l 1074 750 l 1408 388 l 1074 25 l 972 119 l 1164 322 l 1079 319 l 413 319 l 326 322 l 518 119 l 418 25 z "},"↕":{"ha":976,"x_min":125,"x_max":851,"o":"m 488 -197 l 125 138 l 221 238 l 422 47 l 419 132 l 419 754 l 422 839 l 221 649 l 125 749 l 488 1083 l 851 749 l 754 649 l 553 840 l 556 754 l 556 132 l 553 46 l 754 238 l 851 138 l 488 -197 z "},"◊":{"ha":961,"x_min":69,"x_max":892,"o":"m 481 -8 l 69 468 l 479 944 l 892 468 l 481 -8 m 481 201 l 710 468 l 479 735 l 251 468 l 481 201 z "},"΄":{"ha":672,"x_min":132,"x_max":560,"o":"m 132 835 l 321 1054 l 560 1054 l 304 835 l 132 835 z "},"΅":{"ha":844,"x_min":0,"x_max":844,"o":"m 210 968 l 210 810 l 0 810 l 0 968 l 210 968 m 844 968 l 844 810 l 635 810 l 635 968 l 844 968 m 246 810 l 435 1029 l 674 1029 l 418 810 l 246 810 z "},"̈":{"ha":0,"x_min":111,"x_max":622,"o":"m 321 994 l 321 836 l 111 836 l 111 994 l 321 994 m 622 994 l 622 836 l 413 836 l 413 994 l 622 994 z "},"̇":{"ha":0,"x_min":104,"x_max":314,"o":"m 314 996 l 314 838 l 104 838 l 104 996 l 314 996 z "},"̀":{"ha":0,"x_min":139,"x_max":567,"o":"m 394 835 l 139 1054 l 378 1054 l 567 835 l 394 835 z "},"́":{"ha":0,"x_min":132,"x_max":560,"o":"m 132 835 l 321 1054 l 560 1054 l 304 835 l 132 835 z "},"̋":{"ha":0,"x_min":139,"x_max":796,"o":"m 439 835 l 607 1054 l 796 1054 l 581 835 l 439 835 m 139 835 l 299 1054 l 488 1054 l 281 835 l 139 835 z "},"̂":{"ha":0,"x_min":143,"x_max":783,"o":"m 558 1054 l 783 835 l 588 835 l 407 1018 l 521 1017 l 339 835 l 143 835 l 369 1054 l 558 1054 z "},"̌":{"ha":0,"x_min":149,"x_max":779,"o":"m 521 874 l 407 874 l 583 1054 l 779 1054 l 558 835 l 369 835 l 149 1054 l 344 1054 l 521 874 z "},"̆":{"ha":0,"x_min":151,"x_max":735,"o":"m 735 1014 q 693 906 726 954 q 598 831 660 858 q 443 804 536 804 q 289 831 350 804 q 194 906 228 858 q 151 1014 161 954 l 283 1014 q 333 941 294 967 q 443 915 371 915 q 555 941 517 915 q 603 1014 593 967 l 735 1014 z "},"̊":{"ha":0,"x_min":143,"x_max":536,"o":"m 340 801 q 197 844 250 801 q 143 957 143 886 q 197 1069 143 1026 q 340 1111 250 1111 q 483 1069 431 1111 q 536 957 536 1026 q 483 844 536 886 q 340 801 431 801 m 340 882 q 410 901 389 882 q 432 957 432 919 q 410 1012 432 993 q 340 1031 389 1031 q 269 1012 290 1031 q 247 957 247 993 q 269 901 247 919 q 340 882 290 882 z "},"̃":{"ha":0,"x_min":118,"x_max":792,"o":"m 588 833 q 514 846 546 833 q 454 876 482 858 q 399 906 426 893 q 338 918 371 918 q 291 906 308 918 q 264 874 274 893 q 246 835 254 854 l 118 835 q 155 930 129 886 q 222 1001 181 974 q 321 1028 264 1028 q 397 1015 364 1028 q 458 985 429 1003 q 513 956 486 968 q 569 943 539 943 q 617 956 600 943 q 645 989 635 969 q 663 1026 656 1008 l 792 1026 q 755 932 781 976 q 688 860 729 888 q 588 833 646 833 z "},"̄":{"ha":0,"x_min":139,"x_max":565,"o":"m 139 846 l 139 958 l 565 958 l 565 846 l 139 846 z "},"̒":{"ha":0,"x_min":322,"x_max":535,"o":"m 504 1054 l 521 1007 q 475 977 499 997 q 450 936 451 957 l 535 921 l 535 793 l 322 793 l 322 865 q 369 988 322 940 q 504 1054 415 1036 z "},"̦":{"ha":0,"x_min":42,"x_max":254,"o":"m 72 -346 l 56 -299 q 106 -266 85 -285 q 128 -228 126 -247 l 42 -212 l 42 -85 l 254 -85 l 254 -157 q 208 -280 254 -232 q 72 -346 161 -328 l 72 -346 z "},"̧":{"ha":0,"x_min":146,"x_max":583,"o":"m 481 24 l 481 -140 l 421 -44 q 483 -60 454 -50 q 535 -87 513 -71 q 571 -128 558 -104 q 583 -186 583 -153 q 528 -288 583 -244 q 364 -332 474 -332 q 245 -308 294 -332 q 171 -244 196 -283 q 149 -161 146 -204 l 279 -161 q 288 -182 282 -168 q 311 -207 294 -196 q 360 -218 328 -218 q 415 -201 399 -218 q 431 -162 431 -185 q 424 -139 431 -153 q 397 -111 418 -125 q 329 -89 376 -97 l 329 24 l 481 24 z "},"̨":{"ha":0,"x_min":139,"x_max":447,"o":"m 447 -310 q 222 -263 306 -310 q 139 -136 139 -217 q 175 -47 139 -81 q 272 6 211 -12 q 410 31 333 24 l 410 0 q 316 -36 353 -10 q 279 -110 279 -62 q 300 -166 279 -143 q 359 -201 321 -189 q 447 -214 397 -214 l 447 -310 z "},"̵":{"ha":0,"x_min":104,"x_max":603,"o":"m 104 592 l 603 592 l 603 496 l 104 496 l 104 592 z "},"̶":{"ha":0,"x_min":104,"x_max":660,"o":"m 104 589 l 660 589 l 660 506 l 104 506 l 104 589 z "},"̷":{"ha":0,"x_min":104,"x_max":722,"o":"m 671 783 l 722 710 l 153 321 l 104 394 l 671 783 z "},"̸":{"ha":0,"x_min":104,"x_max":729,"o":"m 654 1000 l 729 958 l 176 -40 l 104 4 l 654 1000 z "},"¨":{"ha":751,"x_min":111,"x_max":622,"o":"m 321 994 l 321 836 l 111 836 l 111 994 l 321 994 m 622 994 l 622 836 l 413 836 l 413 994 l 622 994 z "},"˙":{"ha":422,"x_min":104,"x_max":314,"o":"m 314 996 l 314 838 l 104 838 l 104 996 l 314 996 z "},"`":{"ha":706,"x_min":139,"x_max":567,"o":"m 394 835 l 139 1054 l 378 1054 l 567 835 l 394 835 z "},"´":{"ha":672,"x_min":132,"x_max":560,"o":"m 132 835 l 321 1054 l 560 1054 l 304 835 l 132 835 z "},"˝":{"ha":886,"x_min":139,"x_max":796,"o":"m 439 835 l 607 1054 l 796 1054 l 581 835 l 439 835 m 139 835 l 299 1054 l 488 1054 l 281 835 l 139 835 z "},"ˆ":{"ha":928,"x_min":143,"x_max":783,"o":"m 558 1054 l 783 835 l 588 835 l 407 1018 l 521 1017 l 339 835 l 143 835 l 369 1054 l 558 1054 z "},"ˇ":{"ha":919,"x_min":149,"x_max":779,"o":"m 521 874 l 407 874 l 583 1054 l 779 1054 l 558 835 l 369 835 l 149 1054 l 344 1054 l 521 874 z "},"˘":{"ha":888,"x_min":151,"x_max":735,"o":"m 735 1014 q 693 906 726 954 q 598 831 660 858 q 443 804 536 804 q 289 831 350 804 q 194 906 228 858 q 151 1014 161 954 l 283 1014 q 333 941 294 967 q 443 915 371 915 q 555 941 517 915 q 603 1014 593 967 l 735 1014 z "},"˚":{"ha":681,"x_min":143,"x_max":536,"o":"m 340 801 q 197 844 250 801 q 143 957 143 886 q 197 1069 143 1026 q 340 1111 250 1111 q 483 1069 431 1111 q 536 957 536 1026 q 483 844 536 886 q 340 801 431 801 m 340 882 q 410 901 389 882 q 432 957 432 919 q 410 1012 432 993 q 340 1031 389 1031 q 269 1012 290 1031 q 247 957 247 993 q 269 901 247 919 q 340 882 290 882 z "},"˜":{"ha":935,"x_min":118,"x_max":792,"o":"m 588 833 q 514 846 546 833 q 454 876 482 858 q 399 906 426 893 q 338 918 371 918 q 291 906 308 918 q 264 874 274 893 q 246 835 254 854 l 118 835 q 155 930 129 886 q 222 1001 181 974 q 321 1028 264 1028 q 397 1015 364 1028 q 458 985 429 1003 q 513 956 486 968 q 569 943 539 943 q 617 956 600 943 q 645 989 635 969 q 663 1026 656 1008 l 792 1026 q 755 932 781 976 q 688 860 729 888 q 588 833 646 833 z "},"¯":{"ha":704,"x_min":139,"x_max":565,"o":"m 139 846 l 139 958 l 565 958 l 565 846 l 139 846 z "},"¸":{"ha":710,"x_min":146,"x_max":583,"o":"m 481 24 l 481 -140 l 421 -44 q 483 -60 454 -50 q 535 -87 513 -71 q 571 -128 558 -104 q 583 -186 583 -153 q 528 -288 583 -244 q 364 -332 474 -332 q 245 -308 294 -332 q 171 -244 196 -283 q 149 -161 146 -204 l 279 -161 q 288 -182 282 -168 q 311 -207 294 -196 q 360 -218 328 -218 q 415 -201 399 -218 q 431 -162 431 -185 q 424 -139 431 -153 q 397 -111 418 -125 q 329 -89 376 -97 l 329 24 l 481 24 z "},"˛":{"ha":586,"x_min":139,"x_max":447,"o":"m 447 -310 q 222 -263 306 -310 q 139 -136 139 -217 q 175 -47 139 -81 q 272 6 211 -12 q 410 31 333 24 l 410 0 q 316 -36 353 -10 q 279 -110 279 -62 q 300 -166 279 -143 q 359 -201 321 -189 q 447 -214 397 -214 l 447 -310 z "}}}
